STARTFONT 2.1
COMMENT
COMMENT Converted from OpenType font "SourceSansPro-Regular.otf" by "otf2bdf 3.0".
COMMENT
FONT -FreeType-Source Sans Pro-Medium-R-Normal--44-320-100-100-P-202-ISO10646-1
SIZE 32 100 100
FONTBOUNDINGBOX 116 55 -20 -12
STARTPROPERTIES 19
FOUNDRY "FreeType"
FAMILY_NAME "Source Sans Pro"
WEIGHT_NAME "Medium"
SLANT "R"
SETWIDTH_NAME "Normal"
ADD_STYLE_NAME ""
PIXEL_SIZE 44
POINT_SIZE 320
RESOLUTION_X 100
RESOLUTION_Y 100
SPACING "P"
AVERAGE_WIDTH 202
CHARSET_REGISTRY "ISO10646"
CHARSET_ENCODING "1"
FONT_ASCENT 43
FONT_DESCENT 12
COPYRIGHT "Copyright 2010, 2012, 2014 Adobe Systems Incorporated (http://www.adobe.com/), with Reserved Font Name Source."
_OTF_FONTFILE "SourceSansPro-Regular.otf"
_OTF_PSNAME "SourceSansPro-Regular"
ENDPROPERTIES
CHARS 1296
STARTCHAR 0020
ENCODING 32
SWIDTH 202 0
DWIDTH 9 0
BBX 0 0 0 0
BITMAP
ENDCHAR
STARTCHAR 0021
ENCODING 33
SWIDTH 292 0
DWIDTH 13 0
BBX 5 30 4 0
BITMAP
70
70
70
70
70
70
70
70
70
70
70
70
70
70
70
70
70
70
70
70
70
00
00
00
20
F8
F8
F8
F8
70
ENDCHAR
STARTCHAR 0022
ENCODING 34
SWIDTH 427 0
DWIDTH 19 0
BBX 11 12 4 19
BITMAP
E1E0
E1E0
E1E0
E1E0
E0E0
E0E0
E0E0
E0E0
E0E0
E0E0
E0E0
E0E0
ENDCHAR
STARTCHAR 0023
ENCODING 35
SWIDTH 495 0
DWIDTH 22 0
BBX 19 29 2 0
BITMAP
070300
070300
070300
060700
060700
060600
060600
060600
FFFFE0
FFFFE0
FFFFE0
0E0E00
0C0E00
0C0E00
0C0C00
0C0C00
0C0C00
FFFFC0
FFFFC0
FFFFC0
181C00
181C00
181800
181800
181800
381800
381800
383800
303800
ENDCHAR
STARTCHAR 0024
ENCODING 36
SWIDTH 495 0
DWIDTH 22 0
BBX 17 37 2 -4
BITMAP
00E000
00E000
00E000
00E000
03F800
0FFE00
1FFF00
3E0F80
3C0300
380000
780000
780000
380000
3C0000
3E0000
1F0000
0FC000
07F000
01FC00
007E00
003F00
000F80
000780
000780
000380
000380
000380
200780
700780
FC0F00
7FFE00
1FFC00
07F000
00E000
00E000
00E000
00E000
ENDCHAR
STARTCHAR 0025
ENCODING 37
SWIDTH 832 0
DWIDTH 37 0
BBX 33 29 2 0
BITMAP
0F80018000
3FC0038000
79E0030000
7070070000
E070060000
E0300E0000
C0381C0000
C038180000
C038380000
C038300000
C038700000
E03860F800
E030E1FC00
E070C3DE00
7071C70700
79E3870700
3FC30E0380
0F070E0380
00060E0380
000E0E0380
000C0E0380
001C0E0380
00180E0380
00380E0380
00300E0300
0060070700
00E003DE00
00C003FE00
01C000F800
ENDCHAR
STARTCHAR 0026
ENCODING 38
SWIDTH 607 0
DWIDTH 27 0
BBX 25 29 1 0
BITMAP
00FC0000
01FE0000
03FF0000
07870000
07038000
0F038000
0E038000
0F070000
0F070000
070E0000
073C0000
07F80000
03F00000
03E00380
0FE00780
1FE00700
3CF00700
38780E00
783C0E00
701E1C00
F00F3C00
F007B800
7003F800
7801F000
7803FC00
3E07FF00
1FFF9F80
0FFE0780
03F80180
ENDCHAR
STARTCHAR 0027
ENCODING 39
SWIDTH 247 0
DWIDTH 11 0
BBX 3 12 4 19
BITMAP
E0
E0
E0
E0
E0
E0
E0
E0
E0
E0
E0
E0
ENDCHAR
STARTCHAR 0028
ENCODING 40
SWIDTH 292 0
DWIDTH 13 0
BBX 8 40 4 -8
BITMAP
06
0E
0E
1C
1C
18
38
38
70
70
70
70
E0
E0
E0
E0
E0
E0
E0
E0
E0
E0
E0
E0
E0
E0
E0
E0
70
70
70
70
38
38
1C
1C
0C
0E
07
06
ENDCHAR
STARTCHAR 0029
ENCODING 41
SWIDTH 292 0
DWIDTH 13 0
BBX 8 40 2 -8
BITMAP
E0
E0
70
70
38
38
38
1C
1C
1C
0E
0E
0E
0E
0E
07
07
07
07
07
07
07
07
07
07
0E
0E
0E
0E
0E
1C
1C
1C
38
38
30
70
60
E0
40
ENDCHAR
STARTCHAR 002A
ENCODING 42
SWIDTH 427 0
DWIDTH 19 0
BBX 13 13 3 19
BITMAP
0600
0600
0700
0700
E778
FFF8
7FE0
0F80
1F80
1DC0
39C0
70E0
3040
ENDCHAR
STARTCHAR 002B
ENCODING 43
SWIDTH 495 0
DWIDTH 22 0
BBX 19 20 2 5
BITMAP
00C000
00C000
00C000
00C000
00C000
00C000
00C000
00C000
00C000
FFFFE0
FFFFE0
FFFFE0
00C000
00C000
00C000
00C000
00C000
00C000
00C000
00C000
ENDCHAR
STARTCHAR 002C
ENCODING 44
SWIDTH 247 0
DWIDTH 11 0
BBX 7 12 2 -8
BITMAP
3C
7C
7E
7E
3E
0E
0E
1C
1C
38
F0
60
ENDCHAR
STARTCHAR 002D
ENCODING 45
SWIDTH 315 0
DWIDTH 14 0
BBX 10 3 2 10
BITMAP
FFC0
FFC0
FFC0
ENDCHAR
STARTCHAR 002E
ENCODING 46
SWIDTH 247 0
DWIDTH 11 0
BBX 5 6 3 0
BITMAP
20
F8
F8
F8
F8
70
ENDCHAR
STARTCHAR 002F
ENCODING 47
SWIDTH 360 0
DWIDTH 16 0
BBX 14 39 1 -7
BITMAP
001C
001C
0018
0038
0038
0030
0070
0070
0060
00E0
00E0
00E0
00C0
01C0
01C0
0180
0380
0380
0300
0700
0700
0600
0600
0E00
0E00
0C00
1C00
1C00
1800
3800
3800
3000
7000
7000
6000
6000
E000
E000
C000
ENDCHAR
STARTCHAR 0030
ENCODING 48
SWIDTH 495 0
DWIDTH 22 0
BBX 18 29 2 0
BITMAP
03F000
0FFC00
1FFE00
1E1F00
3C0F00
380780
780780
700380
7003C0
F003C0
F003C0
F003C0
F001C0
F001C0
F001C0
F001C0
F001C0
F003C0
F003C0
F003C0
7003C0
700380
780780
780780
3C0F00
1E1F00
1FFE00
0FFC00
03F000
ENDCHAR
STARTCHAR 0031
ENCODING 49
SWIDTH 495 0
DWIDTH 22 0
BBX 16 29 4 0
BITMAP
03C0
1FC0
7FC0
7FC0
03C0
03C0
03C0
03C0
03C0
03C0
03C0
03C0
03C0
03C0
03C0
03C0
03C0
03C0
03C0
03C0
03C0
03C0
03C0
03C0
03C0
03C0
FFFF
FFFF
FFFF
ENDCHAR
STARTCHAR 0032
ENCODING 50
SWIDTH 495 0
DWIDTH 22 0
BBX 18 29 2 0
BITMAP
07E000
1FF800
3FFE00
F83E00
F00F00
600F00
000780
000780
000780
000780
000700
000700
000F00
000E00
001E00
003C00
007800
007800
00F000
01E000
03C000
078000
0F8000
1F0000
3E0000
7C0000
FFFFC0
FFFFC0
FFFFC0
ENDCHAR
STARTCHAR 0033
ENCODING 51
SWIDTH 495 0
DWIDTH 22 0
BBX 18 29 2 0
BITMAP
07F000
1FFC00
3FFE00
FC1F00
700F00
000780
000780
000780
000780
000700
000F00
003E00
07FC00
07F000
07FC00
003F00
000F00
000780
0003C0
0003C0
0003C0
0003C0
0003C0
C00780
E00780
F81F00
7FFE00
3FFC00
07F000
ENDCHAR
STARTCHAR 0034
ENCODING 52
SWIDTH 495 0
DWIDTH 22 0
BBX 20 29 1 0
BITMAP
000F00
001F00
003F00
003F00
007700
00F700
00E700
01E700
03C700
038700
078F00
0F0F00
0E0F00
1E0F00
3C0F00
380F00
780F00
F00F00
FFFFF0
FFFFF0
FFFFF0
000F00
000F00
000F00
000F00
000F00
000F00
000F00
000F00
ENDCHAR
STARTCHAR 0035
ENCODING 53
SWIDTH 495 0
DWIDTH 22 0
BBX 18 29 2 0
BITMAP
3FFF80
3FFF80
3FFF80
3C0000
380000
380000
380000
380000
380000
380000
39F000
3FFC00
7FFE00
7C1F00
100F80
000780
0003C0
0003C0
0003C0
0003C0
0003C0
0003C0
0003C0
C00780
E00F80
F81F00
7FFE00
3FFC00
07E000
ENDCHAR
STARTCHAR 0036
ENCODING 54
SWIDTH 495 0
DWIDTH 22 0
BBX 18 29 2 0
BITMAP
00FC00
03FF00
0FFF80
1F8780
1E0100
3C0000
380000
780000
780000
700000
700000
F07800
F3FE00
F7FF00
FE0F80
FC07C0
F803C0
F001C0
F001C0
F001C0
7001C0
7001C0
7803C0
3803C0
3C0780
1E0F80
0FFF00
07FE00
01F800
ENDCHAR
STARTCHAR 0037
ENCODING 55
SWIDTH 495 0
DWIDTH 22 0
BBX 18 29 2 0
BITMAP
FFFFC0
FFFFC0
FFFFC0
000380
000780
000700
000E00
001E00
001C00
003C00
003800
007800
007000
007000
00F000
00E000
00E000
01E000
01E000
01E000
01C000
01C000
03C000
03C000
03C000
03C000
03C000
03C000
03C000
ENDCHAR
STARTCHAR 0038
ENCODING 56
SWIDTH 495 0
DWIDTH 22 0
BBX 18 29 2 0
BITMAP
03F000
0FFC00
1FFF00
3C0F00
380780
780380
780380
780380
780380
380380
3C0780
1E0700
0F8E00
07FC00
0FFC00
1C7E00
381F00
700780
F003C0
E003C0
E001C0
E001C0
E001C0
F003C0
7803C0
7C0F80
3FFF00
1FFE00
03F000
ENDCHAR
STARTCHAR 0039
ENCODING 57
SWIDTH 495 0
DWIDTH 22 0
BBX 18 29 2 0
BITMAP
07E000
1FF800
3FFC00
3C1E00
780F00
F00700
F00780
E00380
E00380
E003C0
E003C0
F003C0
F007C0
780FC0
7C1FC0
3FFBC0
1FF3C0
07C3C0
0003C0
000380
000380
000780
000700
000F00
201E00
787E00
7FFC00
3FF000
0FC000
ENDCHAR
STARTCHAR 003A
ENCODING 58
SWIDTH 247 0
DWIDTH 11 0
BBX 5 22 3 0
BITMAP
20
F8
F8
F8
F8
70
00
00
00
00
00
00
00
00
00
00
20
F8
F8
F8
F8
70
ENDCHAR
STARTCHAR 003B
ENCODING 59
SWIDTH 247 0
DWIDTH 11 0
BBX 7 28 2 -8
BITMAP
38
7C
7C
7C
7C
10
00
00
00
00
00
00
00
00
00
00
3C
7C
7E
7E
3E
0E
0E
1C
1C
38
F0
60
ENDCHAR
STARTCHAR 003C
ENCODING 60
SWIDTH 495 0
DWIDTH 22 0
BBX 19 18 2 6
BITMAP
000020
0001E0
0007E0
003FC0
01FE00
07F800
3FC000
FE0000
F80000
F00000
FE0000
3FC000
0FF000
01FE00
003FC0
000FE0
0001E0
000060
ENDCHAR
STARTCHAR 003D
ENCODING 61
SWIDTH 495 0
DWIDTH 22 0
BBX 19 13 2 8
BITMAP
FFFFE0
FFFFE0
FFFFE0
000000
000000
000000
000000
000000
000000
000000
FFFFE0
FFFFE0
FFFFE0
ENDCHAR
STARTCHAR 003E
ENCODING 62
SWIDTH 495 0
DWIDTH 22 0
BBX 19 17 2 7
BITMAP
E00000
FC0000
FF0000
1FE000
07F800
00FF00
001FC0
0003E0
0003E0
001FE0
007F00
03FC00
1FE000
FF0000
FC0000
E00000
800000
ENDCHAR
STARTCHAR 003F
ENCODING 63
SWIDTH 427 0
DWIDTH 19 0
BBX 15 31 2 0
BITMAP
0FE0
3FF0
7FF8
F87C
603C
001E
001E
001E
001E
001C
003C
0038
0078
00F0
01E0
01C0
03C0
0380
0780
0700
0700
0700
0000
0000
0000
0200
0780
0F80
0F80
0F80
0700
ENDCHAR
STARTCHAR 0040
ENCODING 64
SWIDTH 855 0
DWIDTH 38 0
BBX 33 36 2 -7
BITMAP
0001FE0000
000FFFC000
003FDFF000
00F800F800
01E0003C00
03C0001E00
0700000E00
0E00000700
1E00000700
1C00400380
3803F30380
3807FF0380
300F1F0180
701C0E0180
703C0E0180
60380E0180
60380E0180
E0700E0180
E0700E0380
E0700C0380
E0701C0300
E0701C0700
E0783C0600
60387E0E00
703FEFFC00
701F87F800
700003E000
3800000000
3800000000
1C00000000
0E00000000
0F80000000
07E0030000
01FE7F0000
007FFE0000
000FF00000
ENDCHAR
STARTCHAR 0041
ENCODING 65
SWIDTH 540 0
DWIDTH 24 0
BBX 24 29 0 0
BITMAP
003C00
007E00
007E00
007E00
00F700
00E700
00E700
01E780
01C380
01C380
03C3C0
0381C0
0381C0
0781E0
0700E0
0700E0
0F00F0
0FFFF0
0FFFF0
1FFFF8
1E0078
1C0038
3C003C
3C003C
38001E
78001E
78001E
70000F
F0000F
ENDCHAR
STARTCHAR 0042
ENCODING 66
SWIDTH 585 0
DWIDTH 26 0
BBX 20 29 4 0
BITMAP
FFF800
FFFF00
FFFF80
F00FC0
F003C0
F001E0
F001E0
F001E0
F001E0
F001C0
F003C0
F00F80
FFFF00
FFFE00
FFFF80
F007E0
F001E0
F000F0
F000F0
F00070
F00070
F00070
F000F0
F000F0
F001E0
F007E0
FFFFC0
FFFF00
FFFC00
ENDCHAR
STARTCHAR 0043
ENCODING 67
SWIDTH 562 0
DWIDTH 25 0
BBX 22 29 2 0
BITMAP
003F80
01FFE0
03FFF0
0FE1F8
0F8030
1E0010
3C0000
3C0000
780000
780000
780000
700000
F00000
F00000
F00000
F00000
F00000
700000
780000
780000
780000
3C0000
3C0000
1E0018
1F803C
0FE1F8
07FFF0
01FFE0
007F00
ENDCHAR
STARTCHAR 0044
ENCODING 68
SWIDTH 607 0
DWIDTH 27 0
BBX 21 29 4 0
BITMAP
FFF000
FFFE00
FFFF00
F01F80
F007C0
F003E0
F001F0
F000F0
F000F0
F00078
F00078
F00078
F00078
F00078
F00078
F00078
F00078
F00078
F00078
F00070
F000F0
F000F0
F001E0
F003E0
F007C0
F01F80
FFFF00
FFFC00
FFF000
ENDCHAR
STARTCHAR 0045
ENCODING 69
SWIDTH 517 0
DWIDTH 23 0
BBX 17 29 4 0
BITMAP
FFFF80
FFFF80
FFFF80
F00000
F00000
F00000
F00000
F00000
F00000
F00000
F00000
F00000
FFFE00
FFFE00
FFFE00
F00000
F00000
F00000
F00000
F00000
F00000
F00000
F00000
F00000
F00000
F00000
FFFF80
FFFF80
FFFF80
ENDCHAR
STARTCHAR 0046
ENCODING 70
SWIDTH 495 0
DWIDTH 22 0
BBX 17 29 4 0
BITMAP
FFFF80
FFFF80
FFFF80
F00000
F00000
F00000
F00000
F00000
F00000
F00000
F00000
F00000
F00000
FFFE00
FFFE00
FFFE00
F00000
F00000
F00000
F00000
F00000
F00000
F00000
F00000
F00000
F00000
F00000
F00000
F00000
ENDCHAR
STARTCHAR 0047
ENCODING 71
SWIDTH 607 0
DWIDTH 27 0
BBX 22 29 2 0
BITMAP
003F80
01FFF0
03FFF8
07E0FC
0F8038
1E0000
3E0000
3C0000
780000
780000
780000
700000
F00000
F00000
F007FC
F007FC
F007FC
70001C
78001C
78001C
78001C
3C001C
3E001C
1E001C
1F801C
0FE0FC
07FFF8
01FFF0
003F80
ENDCHAR
STARTCHAR 0048
ENCODING 72
SWIDTH 652 0
DWIDTH 29 0
BBX 21 29 4 0
BITMAP
F00078
F00078
F00078
F00078
F00078
F00078
F00078
F00078
F00078
F00078
F00078
F00078
FFFFF8
FFFFF8
FFFFF8
F00078
F00078
F00078
F00078
F00078
F00078
F00078
F00078
F00078
F00078
F00078
F00078
F00078
F00078
ENDCHAR
STARTCHAR 0049
ENCODING 73
SWIDTH 270 0
DWIDTH 12 0
BBX 4 29 4 0
BITMAP
F0
F0
F0
F0
F0
F0
F0
F0
F0
F0
F0
F0
F0
F0
F0
F0
F0
F0
F0
F0
F0
F0
F0
F0
F0
F0
F0
F0
F0
ENDCHAR
STARTCHAR 004A
ENCODING 74
SWIDTH 472 0
DWIDTH 21 0
BBX 16 29 1 0
BITMAP
0007
0007
0007
0007
0007
0007
0007
0007
0007
0007
0007
0007
0007
0007
0007
0007
0007
0007
0007
0007
0007
0007
000F
300F
F81F
7C3E
3FFC
1FF8
07E0
ENDCHAR
STARTCHAR 004B
ENCODING 75
SWIDTH 585 0
DWIDTH 26 0
BBX 21 29 4 0
BITMAP
F000F0
F001E0
F003C0
F00780
F00F00
F01F00
F01E00
F03C00
F07800
F0F000
F1E000
F3E000
F3F000
F7F000
FF7800
FE3C00
FE3C00
FC1E00
F81E00
F00F00
F00F80
F00780
F003C0
F003C0
F001E0
F001F0
F000F0
F00078
F00078
ENDCHAR
STARTCHAR 004C
ENCODING 76
SWIDTH 495 0
DWIDTH 22 0
BBX 16 29 4 0
BITMAP
F000
F000
F000
F000
F000
F000
F000
F000
F000
F000
F000
F000
F000
F000
F000
F000
F000
F000
F000
F000
F000
F000
F000
F000
F000
F000
FFFF
FFFF
FFFF
ENDCHAR
STARTCHAR 004D
ENCODING 77
SWIDTH 720 0
DWIDTH 32 0
BBX 24 29 4 0
BITMAP
F8000F
F8001F
F8001F
FC001F
FC003F
FC003F
EE0077
EE0077
EF0077
E700E7
E700E7
E380E7
E381C7
E381C7
E1C1C7
E1C387
E1C387
E0E307
E0E707
E0F707
E07607
E07E07
E03E07
E03C07
E03C07
E01C07
E00007
E00007
E00007
ENDCHAR
STARTCHAR 004E
ENCODING 78
SWIDTH 652 0
DWIDTH 29 0
BBX 21 29 4 0
BITMAP
F00078
F80078
F80078
FC0078
FC0078
EE0078
EF0078
E70078
E78078
E38078
E3C078
E1C078
F1E078
F0F078
F0F078
F07878
F03878
F03C78
F01E78
F01E78
F00F78
F00738
F007B8
F003B8
F003F8
F001F8
F001F8
F000F8
F00078
ENDCHAR
STARTCHAR 004F
ENCODING 79
SWIDTH 675 0
DWIDTH 30 0
BBX 25 29 2 0
BITMAP
007F0000
01FFE000
07FFF000
0FE1F800
1F007C00
1E003E00
3C001F00
3C000F00
78000F00
78000780
78000780
70000780
F0000780
F0000780
F0000780
F0000780
F0000780
70000780
78000780
78000780
78000F00
3C000F00
3C001E00
1E003E00
1F807C00
0FE1F800
07FFF000
01FFE000
007F0000
ENDCHAR
STARTCHAR 0050
ENCODING 80
SWIDTH 562 0
DWIDTH 25 0
BBX 19 29 4 0
BITMAP
FFF800
FFFF00
FFFF80
F00FC0
F003C0
F001E0
F001E0
F001E0
F000E0
F000E0
F001E0
F001E0
F001E0
F003C0
F00FC0
FFFF80
FFFE00
FFF800
F00000
F00000
F00000
F00000
F00000
F00000
F00000
F00000
F00000
F00000
F00000
ENDCHAR
STARTCHAR 0051
ENCODING 81
SWIDTH 675 0
DWIDTH 30 0
BBX 26 36 2 -7
BITMAP
007F0000
01FFE000
07FFF000
0FE1F800
1F007C00
1E003E00
3C001F00
3C000F00
78000F00
78000780
78000780
70000780
F0000780
F0000780
F0000780
F0000780
F0000780
70000780
78000780
78000780
78000F00
3C000F00
3C001F00
1E001E00
1F003C00
0FC0F800
07FFF000
03FFE000
007F8000
001E0000
000F0000
000F8000
0007E000
0003FF80
0000FFC0
00003F80
ENDCHAR
STARTCHAR 0052
ENCODING 82
SWIDTH 562 0
DWIDTH 25 0
BBX 20 29 4 0
BITMAP
FFFC00
FFFF00
FFFF80
F00FC0
F003E0
F001E0
F001E0
F000E0
F000E0
F000E0
F001E0
F001E0
F003C0
F00FC0
FFFF80
FFFF00
FFF800
F07800
F03C00
F03C00
F01E00
F00F00
F00F00
F00780
F00780
F003C0
F001E0
F001E0
F000F0
ENDCHAR
STARTCHAR 0053
ENCODING 83
SWIDTH 540 0
DWIDTH 24 0
BBX 20 29 2 0
BITMAP
01FC00
07FF00
0FFFC0
1F07E0
3C01C0
380000
780000
780000
780000
3C0000
3E0000
1F8000
0FE000
07FC00
01FF00
007F80
000FC0
0003E0
0001F0
0000F0
0000F0
0000F0
0000F0
7000F0
F801E0
7F0FC0
3FFF80
0FFF00
03FC00
ENDCHAR
STARTCHAR 0054
ENCODING 84
SWIDTH 540 0
DWIDTH 24 0
BBX 22 29 1 0
BITMAP
FFFFFC
FFFFFC
FFFFFC
007800
007800
007800
007800
007800
007800
007800
007800
007800
007800
007800
007800
007800
007800
007800
007800
007800
007800
007800
007800
007800
007800
007800
007800
007800
007800
ENDCHAR
STARTCHAR 0055
ENCODING 85
SWIDTH 652 0
DWIDTH 29 0
BBX 21 29 4 0
BITMAP
F00078
F00078
F00078
F00078
F00078
F00078
F00078
F00078
F00078
F00078
F00078
F00078
F00078
F00078
F00078
F00078
F00078
F00078
F00078
F00078
F00070
F00070
7800F0
7800F0
3C01E0
3F8FC0
1FFFC0
0FFF00
01FC00
ENDCHAR
STARTCHAR 0056
ENCODING 86
SWIDTH 517 0
DWIDTH 23 0
BBX 23 29 0 0
BITMAP
F0001E
F0001C
78003C
78003C
780038
3C0078
3C0078
3C0070
1C0070
1E00F0
1E00F0
0E00E0
0F01E0
0F01E0
0701C0
0783C0
0783C0
038380
03C380
03C780
01C700
01C700
01EF00
00EE00
00EE00
00FE00
007C00
007C00
007C00
ENDCHAR
STARTCHAR 0057
ENCODING 87
SWIDTH 787 0
DWIDTH 35 0
BBX 33 29 1 0
BITMAP
F001C00780
F003E00780
7003E00700
7803E00700
7803E00F00
7807700F00
7807700E00
3807700E00
3807700E00
3C0E781E00
3C0E381E00
3C0E381C00
1C0E381C00
1C1C3C1C00
1E1C1C3C00
1E1C1C3C00
0E1C1C3800
0E381E3800
0E380E3800
0F380E3800
0F380E7800
07300F7000
0770077000
0770077000
07F0077000
07E007F000
03E003E000
03E003E000
03E003E000
ENDCHAR
STARTCHAR 0058
ENCODING 88
SWIDTH 517 0
DWIDTH 23 0
BBX 21 29 1 0
BITMAP
7800F0
7800F0
3C01E0
3C01E0
1E03C0
1E03C0
0F0780
0F0700
078F00
038E00
03DE00
01FC00
01FC00
00F800
00F800
01F800
01FC00
03DE00
039E00
078F00
0F0F00
0F0780
1E0780
1E03C0
3C01E0
3801E0
7800F0
F000F0
F00078
ENDCHAR
STARTCHAR 0059
ENCODING 89
SWIDTH 472 0
DWIDTH 21 0
BBX 21 29 0 0
BITMAP
F00078
780070
7800F0
3C00E0
3C01E0
1C01C0
1E03C0
0E0380
0F0780
070780
078700
038F00
03CE00
01DE00
01DC00
00FC00
00F800
007800
007000
007000
007000
007000
007000
007000
007000
007000
007000
007000
007000
ENDCHAR
STARTCHAR 005A
ENCODING 90
SWIDTH 540 0
DWIDTH 24 0
BBX 20 29 2 0
BITMAP
7FFFF0
7FFFF0
7FFFF0
0001E0
0003C0
0003C0
000780
000F00
000F00
001E00
001E00
003C00
007800
007800
00F000
01E000
01E000
03C000
078000
078000
0F0000
1E0000
1E0000
3C0000
780000
780000
FFFFF0
FFFFF0
FFFFF0
ENDCHAR
STARTCHAR 005B
ENCODING 91
SWIDTH 292 0
DWIDTH 13 0
BBX 8 38 4 -7
BITMAP
FF
FF
E0
E0
E0
E0
E0
E0
E0
E0
E0
E0
E0
E0
E0
E0
E0
E0
E0
E0
E0
E0
E0
E0
E0
E0
E0
E0
E0
E0
E0
E0
E0
E0
E0
E0
FF
FF
ENDCHAR
STARTCHAR 005C
ENCODING 92
SWIDTH 360 0
DWIDTH 16 0
BBX 14 39 1 -7
BITMAP
C000
E000
E000
6000
7000
7000
7000
3000
3800
3800
1800
1C00
1C00
0C00
0E00
0E00
0600
0700
0700
0700
0300
0380
0380
0180
01C0
01C0
00C0
00E0
00E0
0060
0060
0070
0070
0030
0038
0038
0018
001C
001C
ENDCHAR
STARTCHAR 005D
ENCODING 93
SWIDTH 292 0
DWIDTH 13 0
BBX 8 38 1 -7
BITMAP
FF
FF
03
03
03
03
03
03
03
03
03
03
03
03
03
03
03
03
03
03
03
03
03
03
03
03
03
03
03
03
03
03
03
03
03
03
FF
FF
ENDCHAR
STARTCHAR 005E
ENCODING 94
SWIDTH 495 0
DWIDTH 22 0
BBX 16 17 3 13
BITMAP
03C0
03C0
07E0
07E0
0760
0E70
0E70
1C38
1C38
1C38
381C
381C
781E
700E
700E
E007
E007
ENDCHAR
STARTCHAR 005F
ENCODING 95
SWIDTH 495 0
DWIDTH 22 0
BBX 21 2 1 -5
BITMAP
FFFFF8
FFFFF8
ENDCHAR
STARTCHAR 0060
ENCODING 96
SWIDTH 540 0
DWIDTH 24 0
BBX 8 9 6 26
BITMAP
20
70
F0
78
3C
1E
0F
07
02
ENDCHAR
STARTCHAR 0061
ENCODING 97
SWIDTH 495 0
DWIDTH 22 0
BBX 17 22 2 0
BITMAP
03F800
0FFE00
3FFF00
3C1F00
300780
000780
000780
000380
000780
01FF80
07FF80
1F0380
3C0380
780380
700380
F00380
F00780
F00F80
783F80
7FFB80
3FE380
0F8380
ENDCHAR
STARTCHAR 0062
ENCODING 98
SWIDTH 562 0
DWIDTH 25 0
BBX 19 32 4 0
BITMAP
E00000
E00000
E00000
E00000
E00000
E00000
E00000
E00000
E00000
E00000
E1F800
E7FE00
EFFF00
FE1F80
F80780
F003C0
E003C0
E003C0
E001C0
E001E0
E001E0
E001E0
E001C0
E003C0
E003C0
E003C0
E00780
F00F80
FC1F00
FFFE00
E7FC00
E1F000
ENDCHAR
STARTCHAR 0063
ENCODING 99
SWIDTH 450 0
DWIDTH 20 0
BBX 17 22 2 0
BITMAP
01FC00
07FF00
0FFF80
1F0700
3C0200
7C0000
780000
700000
F00000
F00000
F00000
F00000
F00000
F00000
F00000
780000
7C0000
3C0100
3F0780
1FFF80
07FE00
01F800
ENDCHAR
STARTCHAR 0064
ENCODING 100
SWIDTH 562 0
DWIDTH 25 0
BBX 19 32 2 0
BITMAP
0001E0
0001E0
0001E0
0001E0
0001E0
0001E0
0001E0
0001E0
0001E0
0001E0
01F1E0
07FDE0
0FFFE0
1F0FE0
3C03E0
7801E0
7801E0
7001E0
F001E0
F001E0
F001E0
F001E0
F001E0
F001E0
F001E0
7801E0
7801E0
7C03E0
3F0FE0
1FFEE0
0FFCE0
03F0E0
ENDCHAR
STARTCHAR 0065
ENCODING 101
SWIDTH 495 0
DWIDTH 22 0
BBX 18 22 2 0
BITMAP
01F800
07FE00
0FFF00
1E0F80
3C0380
7803C0
7001C0
7001C0
F001C0
FFFFC0
FFFFC0
FFFFC0
F00000
F00000
F00000
780000
780000
3C0000
3F0380
1FFF80
07FF00
01FC00
ENDCHAR
STARTCHAR 0066
ENCODING 102
SWIDTH 292 0
DWIDTH 13 0
BBX 13 32 1 0
BITMAP
01F8
07F8
0FF8
0F00
0E00
1E00
1E00
1E00
1E00
1E00
FFE0
FFE0
FFE0
1E00
1E00
1E00
1E00
1E00
1E00
1E00
1E00
1E00
1E00
1E00
1E00
1E00
1E00
1E00
1E00
1E00
1E00
1E00
ENDCHAR
STARTCHAR 0067
ENCODING 103
SWIDTH 495 0
DWIDTH 22 0
BBX 20 32 2 -10
BITMAP
03FFF0
0FFFF0
1FFFF0
3C0F00
780700
780780
700780
700780
700780
780780
780700
3C0F00
1FFE00
1FFC00
3BF000
380000
700000
700000
7C0000
3FFF00
1FFFC0
3FFFE0
7801F0
7000F0
E000F0
E000F0
E000E0
F001E0
7C07C0
3FFF80
1FFE00
00C000
ENDCHAR
STARTCHAR 0068
ENCODING 104
SWIDTH 540 0
DWIDTH 24 0
BBX 17 32 4 0
BITMAP
E00000
E00000
E00000
E00000
E00000
E00000
E00000
E00000
E00000
E00000
E0F800
E3FE00
EFFF00
FE1F00
FC0F80
F00780
E00780
E00780
E00780
E00780
E00780
E00780
E00780
E00780
E00780
E00780
E00780
E00780
E00780
E00780
E00780
E00780
ENDCHAR
STARTCHAR 0069
ENCODING 105
SWIDTH 247 0
DWIDTH 11 0
BBX 5 31 3 0
BITMAP
70
F8
F8
F8
70
00
00
00
00
70
70
70
70
70
70
70
70
70
70
70
70
70
70
70
70
70
70
70
70
70
70
ENDCHAR
STARTCHAR 006A
ENCODING 106
SWIDTH 247 0
DWIDTH 11 0
BBX 10 40 -2 -9
BITMAP
0380
07C0
07C0
07C0
0380
0000
0000
0000
0000
0380
0380
0380
0380
0380
0380
0380
0380
0380
0380
0380
0380
0380
0380
0380
0380
0380
0380
0380
0380
0380
0380
0380
0380
0380
0380
0780
0780
7F00
FF00
FC00
ENDCHAR
STARTCHAR 006B
ENCODING 107
SWIDTH 495 0
DWIDTH 22 0
BBX 17 32 4 0
BITMAP
E00000
E00000
E00000
E00000
E00000
E00000
E00000
E00000
E00000
E00000
E00F00
E01E00
E01E00
E03C00
E07800
E0F000
E1E000
E1C000
E3C000
E7C000
EFC000
FFE000
FCF000
FC7000
F87800
F03C00
E03C00
E01E00
E01E00
E00F00
E00780
E00780
ENDCHAR
STARTCHAR 006C
ENCODING 108
SWIDTH 247 0
DWIDTH 11 0
BBX 6 32 4 0
BITMAP
E0
E0
E0
E0
E0
E0
E0
E0
E0
E0
E0
E0
E0
E0
E0
E0
E0
E0
E0
E0
E0
E0
E0
E0
E0
E0
E0
E0
F0
F8
F8
7C
ENDCHAR
STARTCHAR 006D
ENCODING 109
SWIDTH 832 0
DWIDTH 37 0
BBX 29 22 4 0
BITMAP
E1F807C0
E3FC1FE0
EFFE7FF0
FE1FF0F8
F80FC078
F00F8078
E0070038
E0070038
E0070038
E0070038
E0070038
E0070038
E0070038
E0070038
E0070038
E0070038
E0070038
E0070038
E0070038
E0070038
E0070038
E0070038
ENDCHAR
STARTCHAR 006E
ENCODING 110
SWIDTH 540 0
DWIDTH 24 0
BBX 17 22 4 0
BITMAP
E0F800
E3FE00
EFFF00
FE1F00
FC0F80
F00780
E00780
E00780
E00780
E00780
E00780
E00780
E00780
E00780
E00780
E00780
E00780
E00780
E00780
E00780
E00780
E00780
ENDCHAR
STARTCHAR 006F
ENCODING 111
SWIDTH 540 0
DWIDTH 24 0
BBX 20 22 2 0
BITMAP
01F800
07FE00
0FFF80
1F0FC0
3C03C0
7801E0
7801E0
7000F0
F000F0
F000F0
F000F0
F000F0
F000F0
F000F0
F000F0
7801E0
7801E0
3C03C0
1F0FC0
1FFF80
07FE00
01F800
ENDCHAR
STARTCHAR 0070
ENCODING 112
SWIDTH 562 0
DWIDTH 25 0
BBX 19 31 4 -9
BITMAP
E1F800
E7FE00
EFFF00
FE1F80
F80780
F003C0
E003C0
E003C0
E001C0
E001E0
E001E0
E001E0
E001C0
E003C0
E003C0
E003C0
E00780
F00F80
FC1F00
FFFE00
E7FC00
E1F000
E00000
E00000
E00000
E00000
E00000
E00000
E00000
E00000
E00000
ENDCHAR
STARTCHAR 0071
ENCODING 113
SWIDTH 562 0
DWIDTH 25 0
BBX 19 31 2 -9
BITMAP
01F0E0
07FCE0
1FFFE0
1F0FE0
3C03E0
7801E0
7801E0
7001E0
F001E0
F001E0
F001E0
F001E0
F001E0
F001E0
F001E0
7801E0
7801E0
7C03E0
3F0FE0
1FFFE0
0FFDE0
03F1E0
0001E0
0001E0
0001E0
0001E0
0001E0
0001E0
0001E0
0001E0
0001E0
ENDCHAR
STARTCHAR 0072
ENCODING 114
SWIDTH 337 0
DWIDTH 15 0
BBX 11 22 4 0
BITMAP
E1E0
E3E0
EFE0
EF20
FC00
F800
F000
F000
E000
E000
E000
E000
E000
E000
E000
E000
E000
E000
E000
E000
E000
E000
ENDCHAR
STARTCHAR 0073
ENCODING 115
SWIDTH 427 0
DWIDTH 19 0
BBX 15 22 2 0
BITMAP
07E0
1FF8
3FFC
781C
7008
F000
F000
7800
7C00
3F80
1FE0
07F8
00FC
003E
001E
000E
000E
C01E
F03C
FFFC
7FF8
0FE0
ENDCHAR
STARTCHAR 0074
ENCODING 116
SWIDTH 337 0
DWIDTH 15 0
BBX 13 28 1 0
BITMAP
0E00
0E00
0E00
0E00
0E00
1E00
FFF8
FFF8
FFF8
1E00
1E00
1E00
1E00
1E00
1E00
1E00
1E00
1E00
1E00
1E00
1E00
1E00
1E00
0E00
0F00
0FF8
07F8
01F0
ENDCHAR
STARTCHAR 0075
ENCODING 117
SWIDTH 540 0
DWIDTH 24 0
BBX 18 22 3 0
BITMAP
F003C0
F003C0
F003C0
F003C0
F003C0
F003C0
F003C0
F003C0
F003C0
F003C0
F003C0
F003C0
F003C0
F003C0
F003C0
F003C0
7807C0
780FC0
7C3FC0
3FFBC0
1FF3C0
0FC3C0
ENDCHAR
STARTCHAR 0076
ENCODING 118
SWIDTH 472 0
DWIDTH 21 0
BBX 19 22 1 0
BITMAP
E001E0
F001E0
F001C0
7003C0
7803C0
780380
380780
3C0780
1C0700
1C0700
1E0F00
0E0E00
0E0E00
0F1E00
071C00
071C00
07B800
03B800
03B800
03F000
01F000
01F000
ENDCHAR
STARTCHAR 0077
ENCODING 119
SWIDTH 720 0
DWIDTH 32 0
BBX 30 22 1 0
BITMAP
F007803C
F0078038
70078038
780FC078
780FC078
380DC070
380CE070
3C1CE0F0
3C1CE0F0
1C1CE0E0
1C1870E0
1E3870E0
1E3871E0
0E3871C0
0E3039C0
0F7039C0
07703B80
07603B80
07601F80
07E01F80
03E01F00
03C01F00
ENDCHAR
STARTCHAR 0078
ENCODING 120
SWIDTH 450 0
DWIDTH 20 0
BBX 18 22 1 0
BITMAP
F00380
780780
3C0700
3C0F00
1E1E00
0E1C00
0F3C00
07B800
07F800
03F000
01E000
03F000
07F000
077800
0F3800
0E3C00
1E1E00
3C1E00
380F00
780780
700780
F003C0
ENDCHAR
STARTCHAR 0079
ENCODING 121
SWIDTH 472 0
DWIDTH 21 0
BBX 19 31 1 -9
BITMAP
E001E0
F001E0
7001C0
7801C0
7803C0
380380
3C0380
1C0780
1C0700
1E0700
0E0F00
0F0E00
0F0E00
071E00
079C00
039C00
03B800
03F800
01F800
01F000
00F000
00F000
00E000
00E000
01E000
01C000
03C000
078000
7F0000
7E0000
FC0000
ENDCHAR
STARTCHAR 007A
ENCODING 122
SWIDTH 427 0
DWIDTH 19 0
BBX 17 22 1 0
BITMAP
3FFF00
3FFF00
3FFF00
001E00
001E00
003C00
007800
007800
00F000
01E000
01E000
03C000
078000
078000
0F0000
1E0000
1E0000
3C0000
780000
7FFF80
FFFF80
FFFF80
ENDCHAR
STARTCHAR 007B
ENCODING 123
SWIDTH 292 0
DWIDTH 13 0
BBX 10 38 2 -7
BITMAP
07C0
0FC0
1E00
1C00
1C00
1C00
1C00
1C00
1C00
1C00
1C00
1C00
1C00
1C00
1C00
1C00
1C00
7800
F000
F800
3C00
1C00
1C00
1C00
1C00
1C00
1C00
1C00
1C00
1C00
1C00
1C00
1C00
1C00
1C00
1E00
0FC0
07C0
ENDCHAR
STARTCHAR 007C
ENCODING 124
SWIDTH 247 0
DWIDTH 11 0
BBX 3 44 4 -11
BITMAP
E0
E0
E0
E0
E0
E0
E0
E0
E0
E0
E0
E0
E0
E0
E0
E0
E0
E0
E0
E0
E0
E0
E0
E0
E0
E0
E0
E0
E0
E0
E0
E0
E0
E0
E0
E0
E0
E0
E0
E0
E0
E0
E0
E0
ENDCHAR
STARTCHAR 007D
ENCODING 125
SWIDTH 292 0
DWIDTH 13 0
BBX 11 38 1 -7
BITMAP
F800
FE00
1E00
0E00
0F00
0700
0700
0700
0600
0E00
0E00
0E00
0E00
0E00
0E00
0E00
0700
07C0
03E0
03E0
0780
0700
0E00
0E00
0E00
0E00
0E00
0E00
0E00
0600
0700
0700
0700
0E00
0E00
1E00
FC00
F800
ENDCHAR
STARTCHAR 007E
ENCODING 126
SWIDTH 495 0
DWIDTH 22 0
BBX 18 7 2 11
BITMAP
1E0000
3F8080
7FC0C0
E1F1C0
C0FF80
003F00
001C00
ENDCHAR
STARTCHAR 00A0
ENCODING 160
SWIDTH 202 0
DWIDTH 9 0
BBX 0 0 0 0
BITMAP
ENDCHAR
STARTCHAR 00A1
ENCODING 161
SWIDTH 292 0
DWIDTH 13 0
BBX 5 30 4 -8
BITMAP
70
F8
F8
F8
F8
20
00
00
00
70
70
70
70
70
70
70
70
70
70
70
70
70
70
70
70
70
70
70
70
70
ENDCHAR
STARTCHAR 00A2
ENCODING 162
SWIDTH 495 0
DWIDTH 22 0
BBX 17 31 3 -2
BITMAP
006000
006000
006000
006000
006000
01FC00
07FE00
1FFF80
3F6700
7C6000
786000
F06000
F06000
F06000
E06000
E06000
E06000
F06000
F06000
F06000
786000
7C6100
3F6780
1FFF80
0FFE00
03F800
006000
006000
006000
006000
006000
ENDCHAR
STARTCHAR 00A3
ENCODING 163
SWIDTH 495 0
DWIDTH 22 0
BBX 18 29 2 0
BITMAP
00FC00
03FF00
07FF80
0F87C0
0F0180
1E0000
1E0000
1E0000
1E0000
1E0000
1E0000
1E0000
0E0000
0E0000
FFFE00
FFFE00
07FE00
070000
070000
070000
070000
070000
0F0000
0E0000
1E0000
3C0000
7FFFC0
FFFFC0
FFFFC0
ENDCHAR
STARTCHAR 00A4
ENCODING 164
SWIDTH 495 0
DWIDTH 22 0
BBX 20 19 1 5
BITMAP
600060
F1F8F0
7FFFE0
3FFFC0
1E0780
3C03C0
3801C0
3801C0
7801E0
7801E0
7801E0
3801C0
3C01C0
3C03C0
1E0780
3FFFC0
7FFFE0
F1F8F0
600060
ENDCHAR
STARTCHAR 00A5
ENCODING 165
SWIDTH 495 0
DWIDTH 22 0
BBX 20 29 1 0
BITMAP
F000F0
7000E0
7801E0
3801C0
3C03C0
1C0380
1E0780
0E0700
0F0700
070E00
070E00
039C00
039C00
01D800
01F800
7FFFE0
7FFFE0
00F000
00F000
00F000
7FFFE0
7FFFE0
00F000
00F000
00F000
00F000
00F000
00F000
00F000
ENDCHAR
STARTCHAR 00A6
ENCODING 166
SWIDTH 247 0
DWIDTH 11 0
BBX 3 44 4 -11
BITMAP
E0
E0
E0
E0
E0
E0
E0
E0
E0
E0
E0
E0
E0
E0
E0
E0
E0
E0
E0
E0
00
00
00
E0
E0
E0
E0
E0
E0
E0
E0
E0
E0
E0
E0
E0
E0
E0
E0
E0
E0
E0
E0
E0
ENDCHAR
STARTCHAR 00A7
ENCODING 167
SWIDTH 495 0
DWIDTH 22 0
BBX 18 33 2 -3
BITMAP
03F000
0FFE00
1FFF00
1E0E00
1C0000
3C0000
3C0000
1E0000
1F0000
0FC000
3FF000
79FC00
707F00
E01F80
E00780
E003C0
F001C0
F001C0
7C01C0
3F01C0
1FC380
07FF80
01FE00
007E00
001E00
000F00
000F00
000F00
300E00
7C1E00
3FFC00
1FF800
03E000
ENDCHAR
STARTCHAR 00A8
ENCODING 168
SWIDTH 540 0
DWIDTH 24 0
BBX 13 4 6 26
BITMAP
F070
F0F8
F0F0
E070
ENDCHAR
STARTCHAR 00A9
ENCODING 169
SWIDTH 742 0
DWIDTH 33 0
BBX 29 30 2 0
BITMAP
000FC000
00FFF800
01E03E00
07800F00
0E000380
1C0001C0
180000E0
301FE060
303FF070
60787030
60E00030
60E00038
C1C00018
C1C00018
C1C00018
C1C00018
C1C00018
C1C00018
E1C00038
60E00030
60F03030
707EF870
303FF060
380FC0E0
1C0001C0
0E000380
07000700
03E01E00
00FFF800
001FC000
ENDCHAR
STARTCHAR 00AA
ENCODING 170
SWIDTH 337 0
DWIDTH 15 0
BBX 11 15 2 17
BITMAP
1F80
7FC0
79E0
40E0
00E0
00E0
0FE0
7EE0
F0E0
E0E0
C0E0
E0E0
E3E0
7F60
3C60
ENDCHAR
STARTCHAR 00AB
ENCODING 171
SWIDTH 427 0
DWIDTH 19 0
BBX 14 16 2 4
BITMAP
060C
0E1C
1C38
3C38
3870
70E0
E1C0
E1C0
E1C0
F1E0
70E0
3870
1C38
0E1C
060C
0204
ENDCHAR
STARTCHAR 00AC
ENCODING 172
SWIDTH 495 0
DWIDTH 22 0
BBX 19 11 2 5
BITMAP
FFFFE0
FFFFE0
FFFFE0
0000E0
0000E0
0000E0
0000E0
0000E0
0000E0
0000E0
0000E0
ENDCHAR
STARTCHAR 00AD
ENCODING 173
SWIDTH 315 0
DWIDTH 14 0
BBX 10 3 2 10
BITMAP
FFC0
FFC0
FFC0
ENDCHAR
STARTCHAR 00AE
ENCODING 174
SWIDTH 427 0
DWIDTH 19 0
BBX 17 18 1 14
BITMAP
03E000
0FF800
181C00
300600
678300
67E300
C63100
C63180
C63180
C7E180
C66180
C66180
663300
663300
300600
380C00
0FF800
03E000
ENDCHAR
STARTCHAR 00AF
ENCODING 175
SWIDTH 540 0
DWIDTH 24 0
BBX 12 3 6 26
BITMAP
FFF0
FFF0
FFF0
ENDCHAR
STARTCHAR 00B0
ENCODING 176
SWIDTH 337 0
DWIDTH 15 0
BBX 11 11 2 19
BITMAP
1F00
7F80
71C0
E0E0
C060
C060
C060
E0E0
71C0
7F80
1F00
ENDCHAR
STARTCHAR 00B1
ENCODING 177
SWIDTH 495 0
DWIDTH 22 0
BBX 19 24 2 0
BITMAP
00C000
00C000
00C000
00C000
00C000
00C000
00C000
00C000
FFFFE0
FFFFE0
FFFFE0
00C000
00C000
00C000
00C000
00C000
00C000
00C000
000000
000000
000000
FFFFE0
FFFFE0
FFFFE0
ENDCHAR
STARTCHAR 00B2
ENCODING 178
SWIDTH 360 0
DWIDTH 16 0
BBX 12 17 2 18
BITMAP
3F80
7FC0
E1E0
C0E0
00E0
0060
00E0
00E0
00C0
01C0
0380
0700
0E00
1C00
3800
7FF0
FFF0
ENDCHAR
STARTCHAR 00B3
ENCODING 179
SWIDTH 360 0
DWIDTH 16 0
BBX 12 18 2 17
BITMAP
1F80
7FC0
F1E0
60E0
0060
0060
00E0
01C0
0F80
0FC0
00E0
0070
0070
4070
E070
F1E0
7FC0
1F80
ENDCHAR
STARTCHAR 00B4
ENCODING 180
SWIDTH 540 0
DWIDTH 24 0
BBX 8 9 10 26
BITMAP
04
06
0F
1E
3C
78
F0
E0
40
ENDCHAR
STARTCHAR 00B5
ENCODING 181
SWIDTH 562 0
DWIDTH 25 0
BBX 20 29 4 -7
BITMAP
E00780
E00780
E00780
E00780
E00780
E00780
E00780
E00780
E00780
E00780
E00780
E00700
E00700
E00700
E00700
F00700
F00F00
F01F00
F83F80
FFF3E0
FFE3F0
E7C1F0
E00000
E00000
E00000
E00000
E00000
E00000
E00000
ENDCHAR
STARTCHAR 00B6
ENCODING 182
SWIDTH 562 0
DWIDTH 25 0
BBX 19 33 2 -4
BITMAP
03F1E0
0FF1E0
3FF1E0
3FF1E0
7FF1E0
7FF1E0
FFF1E0
FFF1E0
FFF1E0
FFF1E0
FFF1E0
FFF1E0
FFF1E0
7FF1E0
7FF1E0
3FF1E0
1FF1E0
0FF1E0
03F1E0
0001E0
0001E0
0001E0
0001E0
0001E0
0001E0
0001E0
0001E0
0001E0
0001E0
0001E0
0001E0
0001E0
0001E0
ENDCHAR
STARTCHAR 00B7
ENCODING 183
SWIDTH 247 0
DWIDTH 11 0
BBX 5 6 3 11
BITMAP
70
F8
F8
F8
F8
20
ENDCHAR
STARTCHAR 00B8
ENCODING 184
SWIDTH 540 0
DWIDTH 24 0
BBX 8 10 8 -10
BITMAP
1C
18
38
3C
0E
07
07
0E
FC
F0
ENDCHAR
STARTCHAR 00B9
ENCODING 185
SWIDTH 360 0
DWIDTH 16 0
BBX 6 17 4 18
BITMAP
1C
7C
FC
FC
0C
0C
0C
0C
0C
0C
0C
0C
0C
0C
0C
0C
0C
ENDCHAR
STARTCHAR 00BA
ENCODING 186
SWIDTH 360 0
DWIDTH 16 0
BBX 14 15 1 17
BITMAP
07C0
1FE0
3CF0
7038
7038
601C
E01C
E01C
E01C
601C
7038
7038
3CF0
1FE0
0FC0
ENDCHAR
STARTCHAR 00BB
ENCODING 187
SWIDTH 427 0
DWIDTH 19 0
BBX 14 16 3 4
BITMAP
C180
E1C0
70E0
78F0
3870
1C38
0E1C
0E1C
0E1C
1E3C
1C38
3870
70E0
E1C0
C180
8100
ENDCHAR
STARTCHAR 00BC
ENCODING 188
SWIDTH 787 0
DWIDTH 35 0
BBX 30 30 3 0
BITMAP
00000700
1C000600
7C000C00
FC001C00
FC001800
0C003800
0C003000
0C007000
0C006000
0C00E000
0C00C000
0C01C000
0C018000
0C0300F0
0C0701F0
0C0601F0
0C0E03F0
0C0C0770
001C0670
00180E70
00381C70
00301870
00703870
00607FFC
00C07FFC
01C00070
01800070
03800070
03000070
07000070
ENDCHAR
STARTCHAR 00BD
ENCODING 189
SWIDTH 810 0
DWIDTH 36 0
BBX 31 30 3 0
BITMAP
00000E00
1C000C00
7C001C00
FC001800
FC003000
0C007000
0C006000
0C00E000
0C00C000
0C01C000
0C018000
0C038000
0C0303E0
0C070FF0
0C061EF8
0C0C383C
0C1C001C
0C18001C
0038001C
0030001C
00700038
00600038
00E00070
00C000E0
01C001C0
01800380
03000700
07000F00
06001FFE
0E001FFE
ENDCHAR
STARTCHAR 00BE
ENCODING 190
SWIDTH 787 0
DWIDTH 35 0
BBX 32 29 2 0
BITMAP
1F8001C0
3FC00180
71E00380
60E00300
00600700
00600600
00E00E00
01C00C00
0F801C00
0FC03800
00E03000
00707000
00706038
4070E078
E070C0F8
F1E1C0D8
7FC181D8
1F838398
00070318
00060718
000E0E18
000C0C18
001C1FFF
00181FFF
00380018
00300018
00700018
00600018
00C00018
ENDCHAR
STARTCHAR 00BF
ENCODING 191
SWIDTH 427 0
DWIDTH 19 0
BBX 15 31 2 -9
BITMAP
01C0
03C0
07E0
07E0
03C0
0180
0000
0000
0000
01C0
01C0
01C0
03C0
0380
0780
0700
0F00
1E00
3C00
3800
7800
7000
F000
F000
F000
F000
780C
7C3E
3FFC
1FF8
0FC0
ENDCHAR
STARTCHAR 00C0
ENCODING 192
SWIDTH 540 0
DWIDTH 24 0
BBX 24 38 0 0
BITMAP
018000
03C000
01E000
00F000
007800
001C00
000800
000000
000000
003C00
007E00
007E00
007E00
00F700
00E700
00E700
01E780
01C380
01C380
03C3C0
0381C0
0381C0
0781E0
0700E0
0700E0
0F00F0
0FFFF0
0FFFF0
1FFFF8
1E0078
1C0038
3C003C
3C003C
38001E
78001E
78001E
70000F
F0000F
ENDCHAR
STARTCHAR 00C1
ENCODING 193
SWIDTH 540 0
DWIDTH 24 0
BBX 24 38 0 0
BITMAP
000180
0003C0
000780
000F00
003E00
003800
001000
000000
000000
003C00
007E00
007E00
007E00
00F700
00E700
00E700
01E780
01C380
01C380
03C3C0
0381C0
0381C0
0781E0
0700E0
0700E0
0F00F0
0FFFF0
0FFFF0
1FFFF8
1E0078
1C0038
3C003C
3C003C
38001E
78001E
78001E
70000F
F0000F
ENDCHAR
STARTCHAR 00C2
ENCODING 194
SWIDTH 540 0
DWIDTH 24 0
BBX 24 37 0 0
BITMAP
003C00
007E00
00E700
01C380
0381C0
0300C0
000000
000000
003C00
007E00
007E00
007E00
00F700
00E700
00E700
01E780
01C380
01C380
03C3C0
0381C0
0381C0
0781E0
0700E0
0700E0
0F00F0
0FFFF0
0FFFF0
1FFFF8
1E0078
1C0038
3C003C
3C003C
38001E
78001E
78001E
70000F
F0000F
ENDCHAR
STARTCHAR 00C3
ENCODING 195
SWIDTH 540 0
DWIDTH 24 0
BBX 24 37 0 0
BITMAP
01E070
07F070
07FC60
0E1FE0
0E0FC0
020300
000000
000000
003C00
007E00
007E00
007E00
00F700
00E700
00E700
01E780
01C380
01C380
03C3C0
0381C0
0381C0
0781E0
0700E0
0700E0
0F00F0
0FFFF0
0FFFF0
1FFFF8
1E0078
1C0038
3C003C
3C003C
38001E
78001E
78001E
70000F
F0000F
ENDCHAR
STARTCHAR 00C4
ENCODING 196
SWIDTH 540 0
DWIDTH 24 0
BBX 24 36 0 0
BITMAP
0381C0
07C1E0
07C3E0
0381C0
000000
000000
000000
003C00
007E00
007E00
007E00
00F700
00E700
00E700
01E780
01C380
01C380
03C3C0
0381C0
0381C0
0781E0
0700E0
0700E0
0F00F0
0FFFF0
0FFFF0
1FFFF8
1E0078
1C0038
3C003C
3C003C
38001E
78001E
78001E
70000F
F0000F
ENDCHAR
STARTCHAR 00C5
ENCODING 197
SWIDTH 540 0
DWIDTH 24 0
BBX 24 39 0 0
BITMAP
003C00
007F00
00C300
00C300
00C300
00C300
007E00
003C00
000000
000000
003C00
007E00
007E00
007E00
00F700
00E700
00E700
01E780
01C380
01C380
03C3C0
0381C0
0381C0
0781E0
0700E0
0700E0
0F00F0
0FFFF0
0FFFF0
1FFFF8
1E0078
1C0038
3C003C
3C003C
38001E
78001E
78001E
70000F
F0000F
ENDCHAR
STARTCHAR 00C6
ENCODING 198
SWIDTH 832 0
DWIDTH 37 0
BBX 33 29 1 0
BITMAP
0003FFFF80
0003FFFF80
0007FFFF80
0007780000
000F780000
000E780000
001E780000
001C780000
003C780000
0038780000
0078780000
0070780000
00F07FFE00
00E07FFE00
01E07FFE00
03C0780000
03C0780000
0780780000
07FFF80000
0FFFF80000
0FFFF80000
1E00780000
1E00780000
3C00780000
3C00780000
7800780000
78007FFF80
F0007FFF80
F0007FFF80
ENDCHAR
STARTCHAR 00C7
ENCODING 199
SWIDTH 562 0
DWIDTH 25 0
BBX 22 39 2 -10
BITMAP
003F80
01FFE0
03FFF0
0FE1F8
0F8030
1E0010
3C0000
3C0000
780000
780000
780000
700000
F00000
F00000
F00000
F00000
F00000
700000
780000
780000
780000
3C0000
3C0000
1E0018
1F803C
0FE0F8
07FFF0
01FFE0
007F80
000C00
001C00
001C00
003F00
000780
000380
000380
000F00
007E00
007000
ENDCHAR
STARTCHAR 00C8
ENCODING 200
SWIDTH 517 0
DWIDTH 23 0
BBX 17 38 4 0
BITMAP
0C0000
1E0000
1F0000
0F8000
03C000
01E000
00C000
000000
000000
FFFF80
FFFF80
FFFF80
F00000
F00000
F00000
F00000
F00000
F00000
F00000
F00000
F00000
FFFE00
FFFE00
FFFE00
F00000
F00000
F00000
F00000
F00000
F00000
F00000
F00000
F00000
F00000
F00000
FFFF80
FFFF80
FFFF80
ENDCHAR
STARTCHAR 00C9
ENCODING 201
SWIDTH 517 0
DWIDTH 23 0
BBX 17 38 4 0
BITMAP
000800
003C00
007C00
00F800
01E000
03C000
018000
000000
000000
FFFF80
FFFF80
FFFF80
F00000
F00000
F00000
F00000
F00000
F00000
F00000
F00000
F00000
FFFE00
FFFE00
FFFE00
F00000
F00000
F00000
F00000
F00000
F00000
F00000
F00000
F00000
F00000
F00000
FFFF80
FFFF80
FFFF80
ENDCHAR
STARTCHAR 00CA
ENCODING 202
SWIDTH 517 0
DWIDTH 23 0
BBX 17 37 4 0
BITMAP
03E000
07F000
0F7800
1E3C00
3C0E00
100400
000000
000000
FFFF80
FFFF80
FFFF80
F00000
F00000
F00000
F00000
F00000
F00000
F00000
F00000
F00000
FFFE00
FFFE00
FFFE00
F00000
F00000
F00000
F00000
F00000
F00000
F00000
F00000
F00000
F00000
F00000
FFFF80
FFFF80
FFFF80
ENDCHAR
STARTCHAR 00CB
ENCODING 203
SWIDTH 517 0
DWIDTH 23 0
BBX 17 36 4 0
BITMAP
180E00
3C1E00
3C1E00
3C1E00
000000
000000
000000
FFFF80
FFFF80
FFFF80
F00000
F00000
F00000
F00000
F00000
F00000
F00000
F00000
F00000
FFFE00
FFFE00
FFFE00
F00000
F00000
F00000
F00000
F00000
F00000
F00000
F00000
F00000
F00000
F00000
FFFF80
FFFF80
FFFF80
ENDCHAR
STARTCHAR 00CC
ENCODING 204
SWIDTH 270 0
DWIDTH 12 0
BBX 8 38 0 0
BITMAP
60
F0
F8
3C
1E
0F
02
00
00
0F
0F
0F
0F
0F
0F
0F
0F
0F
0F
0F
0F
0F
0F
0F
0F
0F
0F
0F
0F
0F
0F
0F
0F
0F
0F
0F
0F
0F
ENDCHAR
STARTCHAR 00CD
ENCODING 205
SWIDTH 270 0
DWIDTH 12 0
BBX 7 38 4 0
BITMAP
04
0E
1E
7C
F8
E0
C0
00
00
F0
F0
F0
F0
F0
F0
F0
F0
F0
F0
F0
F0
F0
F0
F0
F0
F0
F0
F0
F0
F0
F0
F0
F0
F0
F0
F0
F0
F0
ENDCHAR
STARTCHAR 00CE
ENCODING 206
SWIDTH 270 0
DWIDTH 12 0
BBX 12 37 0 0
BITMAP
1F00
3F80
3BC0
70E0
E070
C030
0000
0000
0F00
0F00
0F00
0F00
0F00
0F00
0F00
0F00
0F00
0F00
0F00
0F00
0F00
0F00
0F00
0F00
0F00
0F00
0F00
0F00
0F00
0F00
0F00
0F00
0F00
0F00
0F00
0F00
0F00
ENDCHAR
STARTCHAR 00CF
ENCODING 207
SWIDTH 270 0
DWIDTH 12 0
BBX 14 36 -1 0
BITMAP
7038
F07C
F07C
F038
0000
0000
0000
0780
0780
0780
0780
0780
0780
0780
0780
0780
0780
0780
0780
0780
0780
0780
0780
0780
0780
0780
0780
0780
0780
0780
0780
0780
0780
0780
0780
0780
ENDCHAR
STARTCHAR 00D0
ENCODING 208
SWIDTH 630 0
DWIDTH 28 0
BBX 25 29 1 0
BITMAP
0FFF0000
0FFFE000
0FFFF000
0F01F800
0F007C00
0F003E00
0F001E00
0F000F00
0F000F00
0F000780
0F000780
0F000780
0F000780
FFFC0780
FFFC0780
0F000780
0F000780
0F000780
0F000780
0F000700
0F000F00
0F000F00
0F001E00
0F003E00
0F007C00
0F01F800
0FFFF000
0FFFC000
0FFF0000
ENDCHAR
STARTCHAR 00D1
ENCODING 209
SWIDTH 652 0
DWIDTH 29 0
BBX 21 37 4 0
BITMAP
0780C0
0FE0C0
1FF1C0
1C7FC0
183F80
000600
000000
000000
F00078
F80078
F80078
FC0078
FC0078
EE0078
EF0078
E70078
E78078
E38078
E3C078
E1C078
F1E078
F0F078
F0F078
F07878
F03878
F03C78
F01E78
F01E78
F00F78
F00738
F007B8
F003B8
F003F8
F001F8
F001F8
F000F8
F00078
ENDCHAR
STARTCHAR 00D2
ENCODING 210
SWIDTH 675 0
DWIDTH 30 0
BBX 25 37 2 1
BITMAP
00C00000
01E00000
00F80000
007C0000
001E0000
000E0000
00040000
00000000
007F0000
01FFE000
07FFF000
0FE1F800
1F007C00
1E003E00
3C001F00
3C000F00
78000F00
78000780
78000780
70000780
F0000780
F0000780
F0000780
F0000780
F0000780
70000780
78000780
78000780
78000F00
3C000F00
3C001E00
1E003E00
1F807C00
0FE1F800
07FFF000
01FFE000
007F0000
ENDCHAR
STARTCHAR 00D3
ENCODING 211
SWIDTH 675 0
DWIDTH 30 0
BBX 25 38 2 0
BITMAP
00008000
0001C000
0003E000
0007C000
000F0000
001E0000
001C0000
00000000
00000000
007F0000
01FFE000
07FFF000
0FE1F800
1F007C00
1E003E00
3C001F00
3C000F00
78000F00
78000780
78000780
70000780
F0000780
F0000780
F0000780
F0000780
F0000780
70000780
78000780
78000780
78000F00
3C000F00
3C001E00
1E003E00
1F807C00
0FE1F800
07FFF000
01FFE000
007F0000
ENDCHAR
STARTCHAR 00D4
ENCODING 212
SWIDTH 675 0
DWIDTH 30 0
BBX 25 37 2 0
BITMAP
003E0000
003F0000
00778000
00E3C000
01C0E000
03806000
00000000
00000000
007F0000
01FFE000
07FFF000
0FE1F800
1F007C00
1E003E00
3C001F00
3C000F00
78000F00
78000780
78000780
70000780
F0000780
F0000780
F0000780
F0000780
F0000780
70000780
78000780
78000780
78000F00
3C000F00
3C001E00
1E003E00
1F807C00
0FE1F800
07FFF000
01FFE000
007F0000
ENDCHAR
STARTCHAR 00D5
ENCODING 213
SWIDTH 675 0
DWIDTH 30 0
BBX 25 37 2 0
BITMAP
00E00000
01F03800
03FC3000
071E7000
070FF000
0607E000
00018000
00000000
007F0000
01FFE000
07FFF000
0FE1F800
1F007C00
1E003E00
3C001F00
3C000F00
78000F00
78000780
78000780
70000780
F0000780
F0000780
F0000780
F0000780
F0000780
70000780
78000780
78000780
78000F00
3C000F00
3C001E00
1E003E00
1F807C00
0FE1F800
07FFF000
01FFE000
007F0000
ENDCHAR
STARTCHAR 00D6
ENCODING 214
SWIDTH 675 0
DWIDTH 30 0
BBX 25 35 2 0
BITMAP
03C0E000
03C1F000
03C1E000
01C0E000
00000000
00000000
007F0000
01FFE000
07FFF000
0FE1F800
1F007C00
1E003E00
3C001F00
3C000F00
78000F00
78000780
78000780
70000780
F0000780
F0000780
F0000780
F0000780
F0000780
70000780
78000780
78000780
78000F00
3C000F00
3C001E00
1E003E00
1F807C00
0FE1F800
07FFF000
01FFE000
007F0000
ENDCHAR
STARTCHAR 00D7
ENCODING 215
SWIDTH 495 0
DWIDTH 22 0
BBX 16 18 3 6
BITMAP
4002
E007
F00F
780E
3C1C
1E38
0F70
07E0
03C0
03C0
07E0
0F70
1E38
3C3C
781E
F00F
E007
4002
ENDCHAR
STARTCHAR 00D8
ENCODING 216
SWIDTH 675 0
DWIDTH 30 0
BBX 25 31 2 -1
BITMAP
00000100
007F8380
01FFE380
07FFF700
0FE1FE00
1F007E00
1E003E00
3C003F00
3C007F00
7800EF00
7801E780
7803C780
70038780
70070780
F00E0780
F01C0780
F03C0780
70380780
78700780
78E00780
79C00780
7BC00F00
3F800F00
3F001F00
1E003E00
1F807C00
3FE1F800
3BFFF000
71FFE000
607F0000
20000000
ENDCHAR
STARTCHAR 00D9
ENCODING 217
SWIDTH 652 0
DWIDTH 29 0
BBX 21 38 4 0
BITMAP
020000
078000
07C000
03E000
00F000
007800
003000
000000
000000
F00078
F00078
F00078
F00078
F00078
F00078
F00078
F00078
F00078
F00078
F00078
F00078
F00078
F00078
F00078
F00078
F00078
F00078
F00078
F00078
F00070
F00070
7800F0
7800F0
3C01E0
3F8FC0
1FFFC0
0FFF00
01FC00
ENDCHAR
STARTCHAR 00DA
ENCODING 218
SWIDTH 652 0
DWIDTH 29 0
BBX 21 38 4 0
BITMAP
000600
000F00
001F00
003C00
007800
00F000
006000
000000
000000
F00078
F00078
F00078
F00078
F00078
F00078
F00078
F00078
F00078
F00078
F00078
F00078
F00078
F00078
F00078
F00078
F00078
F00078
F00078
F00078
F00070
F00070
7800F0
7800F0
3C01E0
3F8FC0
1FFFC0
0FFF00
01FC00
ENDCHAR
STARTCHAR 00DB
ENCODING 219
SWIDTH 652 0
DWIDTH 29 0
BBX 21 37 4 0
BITMAP
00F800
01FC00
03DE00
070F00
0E0700
040100
000000
000000
F00078
F00078
F00078
F00078
F00078
F00078
F00078
F00078
F00078
F00078
F00078
F00078
F00078
F00078
F00078
F00078
F00078
F00078
F00078
F00078
F00070
F00070
7800F0
7800F0
3C01E0
3F8FC0
1FFFC0
0FFF00
01FC00
ENDCHAR
STARTCHAR 00DC
ENCODING 220
SWIDTH 652 0
DWIDTH 29 0
BBX 21 36 4 0
BITMAP
0E0300
0F0780
0F0780
0F0780
000000
000000
000000
F00078
F00078
F00078
F00078
F00078
F00078
F00078
F00078
F00078
F00078
F00078
F00078
F00078
F00078
F00078
F00078
F00078
F00078
F00078
F00078
F00070
F00070
7800F0
7800F0
3C01E0
3F8FC0
1FFFC0
0FFF00
01FC00
ENDCHAR
STARTCHAR 00DD
ENCODING 221
SWIDTH 472 0
DWIDTH 21 0
BBX 21 38 0 0
BITMAP
000200
000F00
001F00
003E00
007800
00F000
006000
000000
000000
F00078
780070
7800F0
3C00E0
3C01E0
1C01C0
1E03C0
0E0380
0F0780
070780
078700
038F00
03CE00
01DE00
01DC00
00FC00
00F800
007800
007000
007000
007000
007000
007000
007000
007000
007000
007000
007000
007000
ENDCHAR
STARTCHAR 00DE
ENCODING 222
SWIDTH 585 0
DWIDTH 26 0
BBX 20 29 4 0
BITMAP
F00000
F00000
F00000
F00000
F00000
FFFC00
FFFF00
FFFFC0
F007C0
F001E0
F001E0
F000F0
F000F0
F000F0
F000F0
F000E0
F001E0
F003E0
F00FC0
FFFF80
FFFF00
FFF800
F00000
F00000
F00000
F00000
F00000
F00000
F00000
ENDCHAR
STARTCHAR 00DF
ENCODING 223
SWIDTH 585 0
DWIDTH 26 0
BBX 20 32 4 0
BITMAP
07E000
1FF800
3FFC00
7C3E00
781E00
F00F00
F00F00
F00F00
E00E00
E01E00
E01C00
E03800
E07800
E07000
E0F000
E0F000
E0F000
E0F800
E07E00
E03F00
E01FC0
E007E0
E001F0
E000F0
E00070
E00070
E00070
E080F0
E0C1F0
E1FFE0
E0FFC0
E03F00
ENDCHAR
STARTCHAR 00E0
ENCODING 224
SWIDTH 495 0
DWIDTH 22 0
BBX 17 34 2 1
BITMAP
060000
0F0000
0F8000
078000
03C000
01E000
00F000
007000
000000
000000
000000
000000
03F800
0FFE00
3FFF00
3C1F00
300780
000780
000780
000380
000780
01FF80
07FF80
1F0380
3C0380
780380
700380
F00380
F00780
F00F80
783F80
7FFB80
3FE380
0F8380
ENDCHAR
STARTCHAR 00E1
ENCODING 225
SWIDTH 495 0
DWIDTH 22 0
BBX 17 35 2 0
BITMAP
000400
000600
000F00
001E00
003C00
007800
00F000
01E000
00C000
000000
000000
000000
000000
03F800
0FFE00
3FFF00
3C1F00
300780
000780
000780
000380
000780
01FF80
07FF80
1F0380
3C0380
780380
700380
F00380
F00780
F00F80
783F80
7FFB80
3FE380
0F8380
ENDCHAR
STARTCHAR 00E2
ENCODING 226
SWIDTH 495 0
DWIDTH 22 0
BBX 17 33 2 0
BITMAP
00F000
01F000
03F800
07BC00
0F1E00
0E0F00
1C0780
080100
000000
000000
000000
03F800
0FFE00
3FFF00
3C1F00
300780
000780
000780
000380
000780
01FF80
07FF80
1F0380
3C0380
780380
700380
F00380
F00780
F00F80
783F80
7FFB80
3FE380
0F8380
ENDCHAR
STARTCHAR 00E3
ENCODING 227
SWIDTH 495 0
DWIDTH 22 0
BBX 17 32 2 0
BITMAP
0F8180
1FC180
1FE180
38F380
387F00
383F00
000C00
000000
000000
000000
03F800
0FFE00
3FFF00
3C1F00
300780
000780
000780
000380
000780
01FF80
07FF80
1F0380
3C0380
780380
700380
F00380
F00780
F00F80
783F80
7FFB80
3FE380
0F8380
ENDCHAR
STARTCHAR 00E4
ENCODING 228
SWIDTH 495 0
DWIDTH 22 0
BBX 17 30 2 0
BITMAP
0E0F00
1F0F00
1E0F00
0E0600
000000
000000
000000
000000
03F800
0FFE00
3FFF00
3C1F00
300780
000780
000780
000380
000780
01FF80
07FF80
1F0380
3C0380
780380
700380
F00380
F00780
F00F80
783F80
7FFB80
3FE380
0F8380
ENDCHAR
STARTCHAR 00E5
ENCODING 229
SWIDTH 495 0
DWIDTH 22 0
BBX 17 33 2 0
BITMAP
01F000
03FC00
070C00
060E00
060E00
060C00
071C00
03F800
006000
000000
000000
03F800
0FFE00
3FFF00
3C1F00
300780
000780
000780
000380
000780
01FF80
07FF80
1F0380
3C0380
780380
700380
F00380
F00780
F00F80
783F80
7FFB80
3FE380
0F8380
ENDCHAR
STARTCHAR 00E6
ENCODING 230
SWIDTH 787 0
DWIDTH 35 0
BBX 30 22 3 0
BITMAP
03E01F80
1FF83FE0
7FFCFFF0
783CE0F8
600FC038
000F803C
000F801C
0007001C
001F001C
03FF001C
0FFFFFFC
3F07FFFC
78070000
F0070000
E0078000
E0078000
E007C000
F00FE000
F83DF038
7FF8FFF8
7FE07FF0
1F801FC0
ENDCHAR
STARTCHAR 00E7
ENCODING 231
SWIDTH 450 0
DWIDTH 20 0
BBX 17 32 2 -10
BITMAP
01FC00
07FF00
0FFF80
1F0700
3C0200
7C0000
780000
700000
F00000
F00000
F00000
F00000
F00000
F00000
F00000
780000
780000
3C0100
3F0780
1FFF80
07FF00
01F800
006000
00E000
00E000
01F800
003800
001C00
001800
007800
03F000
038000
ENDCHAR
STARTCHAR 00E8
ENCODING 232
SWIDTH 495 0
DWIDTH 22 0
BBX 18 34 2 1
BITMAP
060000
0F0000
0F8000
078000
03C000
01E000
00F000
007000
002000
000000
000000
000000
01F800
07FE00
0FFF00
1E0F80
3C0380
7803C0
7001C0
7001C0
F001C0
FFFFC0
FFFFC0
FFFFC0
F00000
F00000
F00000
780000
780000
3C0000
3F0380
1FFF80
07FF00
01FC00
ENDCHAR
STARTCHAR 00E9
ENCODING 233
SWIDTH 495 0
DWIDTH 22 0
BBX 18 35 2 0
BITMAP
000400
000600
000F00
001E00
003C00
007800
00F000
00E000
00C000
000000
000000
000000
000000
01F800
07FE00
0FFF00
1E0F80
3C0380
7803C0
7001C0
7001C0
F001C0
FFFFC0
FFFFC0
FFFFC0
F00000
F00000
F00000
780000
780000
3C0000
3F0380
1FFF80
07FF00
01FC00
ENDCHAR
STARTCHAR 00EA
ENCODING 234
SWIDTH 495 0
DWIDTH 22 0
BBX 18 33 2 0
BITMAP
00F000
01F000
03F800
07BC00
071E00
0E0F00
1C0380
080100
000000
000000
000000
01F800
07FE00
0FFF00
1E0F80
3C0380
7803C0
7001C0
7001C0
F001C0
FFFFC0
FFFFC0
FFFFC0
F00000
F00000
F00000
780000
780000
3C0000
3F0380
1FFF80
07FF00
01FC00
ENDCHAR
STARTCHAR 00EB
ENCODING 235
SWIDTH 495 0
DWIDTH 22 0
BBX 18 30 2 0
BITMAP
0E0F00
1F0F00
1F0F00
0E0600
000000
000000
000000
000000
01F800
07FE00
0FFF00
1E0F80
3C0380
7803C0
7001C0
7001C0
F001C0
FFFFC0
FFFFC0
FFFFC0
F00000
F00000
F00000
780000
780000
3C0000
3F0380
1FFF80
07FF00
01FC00
ENDCHAR
STARTCHAR 00EC
ENCODING 236
SWIDTH 247 0
DWIDTH 11 0
BBX 9 35 -1 0
BITMAP
2000
7000
F800
7C00
3E00
1E00
0F00
0780
0300
0000
0000
0000
0000
0700
0700
0700
0700
0700
0700
0700
0700
0700
0700
0700
0700
0700
0700
0700
0700
0700
0700
0700
0700
0700
0700
ENDCHAR
STARTCHAR 00ED
ENCODING 237
SWIDTH 247 0
DWIDTH 11 0
BBX 9 35 3 0
BITMAP
0200
0700
0F80
1F00
3E00
3C00
7800
F000
4000
0000
0000
0000
0000
7000
7000
7000
7000
7000
7000
7000
7000
7000
7000
7000
7000
7000
7000
7000
7000
7000
7000
7000
7000
7000
7000
ENDCHAR
STARTCHAR 00EE
ENCODING 238
SWIDTH 247 0
DWIDTH 11 0
BBX 13 33 -1 0
BITMAP
0F80
1FC0
1FC0
39E0
7070
E038
C018
0000
0000
0000
0000
0700
0700
0700
0700
0700
0700
0700
0700
0700
0700
0700
0700
0700
0700
0700
0700
0700
0700
0700
0700
0700
0700
ENDCHAR
STARTCHAR 00EF
ENCODING 239
SWIDTH 247 0
DWIDTH 11 0
BBX 13 31 -1 0
BITMAP
7070
F078
F078
F078
0000
0000
0000
0000
0000
0700
0700
0700
0700
0700
0700
0700
0700
0700
0700
0700
0700
0700
0700
0700
0700
0700
0700
0700
0700
0700
0700
ENDCHAR
STARTCHAR 00F0
ENCODING 240
SWIDTH 540 0
DWIDTH 24 0
BBX 20 33 2 0
BITMAP
040000
070040
0FC1E0
03E7C0
01FF00
007C00
00FC00
03DE00
0F0F00
0E0700
080780
0003C0
0003C0
01F1C0
0FFDE0
1FFFE0
3E07E0
3C03E0
7801E0
7000F0
7000F0
F000F0
F000F0
F000E0
F000E0
7000E0
7801E0
7801C0
3C03C0
1F0F80
0FFF00
07FE00
01F800
ENDCHAR
STARTCHAR 00F1
ENCODING 241
SWIDTH 540 0
DWIDTH 24 0
BBX 17 32 4 0
BITMAP
0F0380
1F8380
3FC300
31E700
70FF00
707E00
001800
000000
000000
000000
E0F800
E3FE00
EFFF00
FE1F00
FC0F80
F00780
E00780
E00780
E00780
E00780
E00780
E00780
E00780
E00780
E00780
E00780
E00780
E00780
E00780
E00780
E00780
E00780
ENDCHAR
STARTCHAR 00F2
ENCODING 242
SWIDTH 540 0
DWIDTH 24 0
BBX 20 34 2 1
BITMAP
060000
0F0000
0F8000
07C000
03E000
01E000
00F000
007000
002000
000000
000000
000000
01F800
07FE00
0FFF80
1F0FC0
3C03C0
7801E0
7801E0
7000F0
F000F0
F000F0
F000F0
F000F0
F000F0
F000F0
F000F0
7801E0
7801E0
3C03C0
1F0FC0
1FFF80
07FE00
01F800
ENDCHAR
STARTCHAR 00F3
ENCODING 243
SWIDTH 540 0
DWIDTH 24 0
BBX 20 34 2 1
BITMAP
000600
000F00
001F00
003E00
003C00
007800
00F000
00E000
004000
000000
000000
000000
01F800
07FE00
0FFF80
1F0FC0
3C03C0
7801E0
7801E0
7000F0
F000F0
F000F0
F000F0
F000F0
F000F0
F000F0
F000F0
7801E0
7801E0
3C03C0
1F0FC0
1FFF80
07FE00
01F800
ENDCHAR
STARTCHAR 00F4
ENCODING 244
SWIDTH 540 0
DWIDTH 24 0
BBX 20 33 2 0
BITMAP
00F000
01F800
03FC00
039C00
070E00
0E0700
1C0380
080100
000000
000000
000000
01F800
07FE00
0FFF80
1F0FC0
3C03C0
7801E0
7801E0
7000F0
F000F0
F000F0
F000F0
F000F0
F000F0
F000F0
F000F0
7801E0
7801E0
3C03C0
1F0FC0
1FFF80
07FE00
01F800
ENDCHAR
STARTCHAR 00F5
ENCODING 245
SWIDTH 540 0
DWIDTH 24 0
BBX 20 32 2 0
BITMAP
0781C0
0FC1C0
1FE180
1CF380
187F80
383F00
000C00
000000
000000
000000
01F800
07FE00
0FFF80
1F0FC0
3C03C0
7801E0
7801E0
7000F0
F000F0
F000F0
F000F0
F000F0
F000F0
F000F0
F000F0
7801E0
7801E0
3C03C0
1F0FC0
1FFF80
07FE00
01F800
ENDCHAR
STARTCHAR 00F6
ENCODING 246
SWIDTH 540 0
DWIDTH 24 0
BBX 20 30 2 0
BITMAP
0F0700
0F0F80
0F0F00
0E0700
000000
000000
000000
000000
01F800
07FE00
0FFF80
1F0FC0
3C03C0
7801E0
7801E0
7000F0
F000F0
F000F0
F000F0
F000F0
F000F0
F000F0
F000F0
7801E0
7801E0
3C03C0
1F0FC0
1FFF80
07FE00
01F800
ENDCHAR
STARTCHAR 00F7
ENCODING 247
SWIDTH 495 0
DWIDTH 22 0
BBX 19 21 2 4
BITMAP
00E000
01E000
01E000
01E000
00C000
000000
000000
000000
000000
FFFFE0
FFFFE0
FFFFE0
000000
000000
000000
000000
00E000
01E000
01E000
01E000
00C000
ENDCHAR
STARTCHAR 00F8
ENCODING 248
SWIDTH 540 0
DWIDTH 24 0
BBX 20 22 2 0
BITMAP
01F830
07FE60
0FFFE0
1F07C0
3C03C0
7807E0
7807E0
700CF0
F018F0
F038F0
F070F0
F0E0F0
F1C0F0
F180F0
F300F0
7F00E0
7E01E0
3C03C0
3F07C0
3FFF80
67FE00
E1F800
ENDCHAR
STARTCHAR 00F9
ENCODING 249
SWIDTH 540 0
DWIDTH 24 0
BBX 18 35 3 0
BITMAP
040000
0E0000
1F0000
0F0000
078000
03C000
01E000
00E000
004000
000000
000000
000000
000000
F003C0
F003C0
F003C0
F003C0
F003C0
F003C0
F003C0
F003C0
F003C0
F003C0
F003C0
F003C0
F003C0
F003C0
F003C0
F003C0
7807C0
780FC0
7C3FC0
3FFBC0
1FF3C0
0FC3C0
ENDCHAR
STARTCHAR 00FA
ENCODING 250
SWIDTH 540 0
DWIDTH 24 0
BBX 18 35 3 0
BITMAP
000C00
000E00
001E00
003C00
007800
00F000
01E000
01C000
008000
000000
000000
000000
000000
F003C0
F003C0
F003C0
F003C0
F003C0
F003C0
F003C0
F003C0
F003C0
F003C0
F003C0
F003C0
F003C0
F003C0
F003C0
F003C0
7807C0
780FC0
7C3FC0
3FFBC0
1FF3C0
0FC3C0
ENDCHAR
STARTCHAR 00FB
ENCODING 251
SWIDTH 540 0
DWIDTH 24 0
BBX 18 33 3 0
BITMAP
01E000
03F000
07F800
0F3C00
0E1E00
1C0E00
180700
000000
000000
000000
000000
F003C0
F003C0
F003C0
F003C0
F003C0
F003C0
F003C0
F003C0
F003C0
F003C0
F003C0
F003C0
F003C0
F003C0
F003C0
F003C0
7807C0
780FC0
7C3FC0
3FFBC0
1FF3C0
0FC3C0
ENDCHAR
STARTCHAR 00FC
ENCODING 252
SWIDTH 540 0
DWIDTH 24 0
BBX 18 31 3 0
BITMAP
1C0E00
1E1E00
1E1F00
1E0E00
000000
000000
000000
000000
000000
F003C0
F003C0
F003C0
F003C0
F003C0
F003C0
F003C0
F003C0
F003C0
F003C0
F003C0
F003C0
F003C0
F003C0
F003C0
F003C0
7807C0
780FC0
7C3FC0
3FFBC0
1FF3C0
0FC3C0
ENDCHAR
STARTCHAR 00FD
ENCODING 253
SWIDTH 472 0
DWIDTH 21 0
BBX 19 44 1 -9
BITMAP
000400
000E00
001F00
001E00
003C00
007800
00F000
01E000
00C000
000000
000000
000000
000000
E001E0
F001E0
7001C0
7801C0
7803C0
380380
3C0380
1C0780
1C0700
1E0700
0E0F00
0F0E00
0F0E00
071E00
079C00
039C00
03B800
03F800
01F800
01F000
00F000
00F000
00E000
00E000
01E000
01C000
03C000
078000
7F0000
7E0000
FC0000
ENDCHAR
STARTCHAR 00FE
ENCODING 254
SWIDTH 562 0
DWIDTH 25 0
BBX 19 41 4 -9
BITMAP
E00000
E00000
E00000
E00000
E00000
E00000
E00000
E00000
E00000
E00000
E1F800
E7FE00
EFFF00
FE1F80
F80780
F003C0
E003C0
E003C0
E001C0
E001E0
E001E0
E001E0
E001C0
E003C0
E003C0
E003C0
E00780
F00F80
FC1F00
FFFE00
EFFC00
E1F000
E00000
E00000
E00000
E00000
E00000
E00000
E00000
E00000
E00000
ENDCHAR
STARTCHAR 00FF
ENCODING 255
SWIDTH 472 0
DWIDTH 21 0
BBX 19 40 1 -9
BITMAP
0E0600
1F0F00
1F0F00
0E0F00
000000
000000
000000
000000
000000
E001E0
F001E0
7001C0
7801C0
7803C0
380380
3C0380
1C0780
1C0700
1E0700
0E0F00
0F0E00
0F0E00
071E00
079C00
039C00
03B800
03F800
01F800
01F000
00F000
00F000
00E000
00E000
01E000
01C000
03C000
078000
7F0000
7E0000
FC0000
ENDCHAR
STARTCHAR 0100
ENCODING 256
SWIDTH 540 0
DWIDTH 24 0
BBX 24 35 0 0
BITMAP
03FFC0
03FFC0
03FFC0
000000
000000
000000
003C00
007E00
007E00
007E00
00F700
00E700
00E700
01E780
01C380
01C380
03C3C0
0381C0
0381C0
0781E0
0700E0
0700E0
0F00F0
0FFFF0
0FFFF0
1FFFF8
1E0078
1C0038
3C003C
3C003C
38001E
78001E
78001E
70000F
F0000F
ENDCHAR
STARTCHAR 0101
ENCODING 257
SWIDTH 495 0
DWIDTH 22 0
BBX 17 29 2 0
BITMAP
0FFF00
0FFF00
0FFF00
000000
000000
000000
000000
03F800
0FFE00
3FFF00
3C1F00
300780
000780
000780
000380
000780
01FF80
07FF80
1F0380
3C0380
780380
700380
F00380
F00780
F00F80
783F80
7FFB80
3FE380
0F8380
ENDCHAR
STARTCHAR 0102
ENCODING 258
SWIDTH 540 0
DWIDTH 24 0
BBX 24 37 0 0
BITMAP
0300C0
0300C0
0381C0
01E780
00FF00
007E00
000000
000000
003C00
007E00
007E00
007E00
00F700
00E700
00E700
01E780
01C380
01C380
03C3C0
0381C0
0381C0
0781E0
0700E0
0700E0
0F00F0
0FFFF0
0FFFF0
1FFFF8
1E0078
1C0038
3C003C
3C003C
38001E
78001E
78001E
70000F
F0000F
ENDCHAR
STARTCHAR 0103
ENCODING 259
SWIDTH 495 0
DWIDTH 22 0
BBX 17 32 2 0
BITMAP
180380
1C0300
1C0700
0E0700
0FBE00
07FC00
01F000
000000
000000
000000
03F800
0FFE00
3FFF00
3C1F00
300780
000780
000780
000380
000780
01FF80
07FF80
1F0380
3C0380
780380
700380
F00380
F00780
F00F80
783F80
7FFB80
3FE380
0F8380
ENDCHAR
STARTCHAR 0104
ENCODING 260
SWIDTH 540 0
DWIDTH 24 0
BBX 25 38 0 -9
BITMAP
003C0000
007E0000
007E0000
007E0000
00F70000
00E70000
00E70000
01E78000
01C38000
01C38000
03C3C000
0381C000
0381C000
0781E000
0700E000
0700E000
0F00F000
0FFFF000
0FFFF000
1FFFF800
1E007800
1C003800
3C003C00
3C003C00
38001E00
78001E00
78001E00
70000F00
F0000F00
00000E00
00001C00
00001800
00003800
00003000
00003800
00003F80
00003F80
00000F00
ENDCHAR
STARTCHAR 0105
ENCODING 261
SWIDTH 495 0
DWIDTH 22 0
BBX 18 31 2 -9
BITMAP
03F800
0FFE00
3FFF00
3C1F00
300780
000780
000780
000380
000780
01FF80
07FF80
1F0380
3C0380
780380
700380
F00380
F00780
F00F80
783F80
7FFB80
3FE380
0F8380
000700
000E00
001C00
001C00
001800
001C00
001EC0
001FC0
000F80
ENDCHAR
STARTCHAR 0106
ENCODING 262
SWIDTH 562 0
DWIDTH 25 0
BBX 22 38 2 0
BITMAP
000080
0001C0
0003E0
000780
000F00
001E00
001C00
000000
000000
003F80
01FFE0
03FFF0
0FE1F8
0F8030
1E0010
3C0000
3C0000
780000
780000
780000
700000
F00000
F00000
F00000
F00000
F00000
700000
780000
780000
780000
3C0000
3C0000
1E0018
1F803C
0FE1F8
07FFF0
01FFE0
007F00
ENDCHAR
STARTCHAR 0107
ENCODING 263
SWIDTH 450 0
DWIDTH 20 0
BBX 17 34 2 1
BITMAP
000600
000F00
000F00
001E00
003C00
007800
00F000
006000
000000
000000
000000
000000
01FC00
07FF00
0FFF80
1F0700
3C0200
7C0000
780000
700000
F00000
F00000
F00000
F00000
F00000
F00000
F00000
780000
7C0000
3C0100
3F0780
1FFF80
07FE00
01F800
ENDCHAR
STARTCHAR 0108
ENCODING 264
SWIDTH 562 0
DWIDTH 25 0
BBX 22 37 2 0
BITMAP
003E00
007F00
007780
00E3C0
01C1E0
038060
000000
000000
003F80
01FFE0
03FFF0
0FE1F8
0F8030
1E0010
3C0000
3C0000
780000
780000
780000
700000
F00000
F00000
F00000
F00000
F00000
700000
780000
780000
780000
3C0000
3C0000
1E0018
1F803C
0FE1F8
07FFF0
01FFE0
007F00
ENDCHAR
STARTCHAR 0109
ENCODING 265
SWIDTH 450 0
DWIDTH 20 0
BBX 17 33 2 0
BITMAP
00F000
00F800
01FC00
03DE00
078F00
0F0700
0E0380
040100
000000
000000
000000
01FC00
07FF00
0FFF80
1F0700
3C0200
7C0000
780000
700000
F00000
F00000
F00000
F00000
F00000
F00000
F00000
780000
7C0000
3C0100
3F0780
1FFF80
07FE00
01F800
ENDCHAR
STARTCHAR 010A
ENCODING 266
SWIDTH 562 0
DWIDTH 25 0
BBX 22 36 2 0
BITMAP
000C00
003E00
003E00
003E00
001C00
000000
000000
003F80
01FFE0
03FFF0
0FE1F8
0F8030
1E0010
3C0000
3C0000
780000
780000
780000
700000
F00000
F00000
F00000
F00000
F00000
700000
780000
780000
780000
3C0000
3C0000
1E0018
1F803C
0FE1F8
07FFF0
01FFE0
007F00
ENDCHAR
STARTCHAR 010B
ENCODING 267
SWIDTH 450 0
DWIDTH 20 0
BBX 17 31 2 0
BITMAP
007000
00F800
00F800
00F800
007000
000000
000000
000000
000000
01FC00
07FF00
0FFF80
1F0700
3C0200
7C0000
780000
700000
F00000
F00000
F00000
F00000
F00000
F00000
F00000
780000
7C0000
3C0100
3F0780
1FFF80
07FE00
01F800
ENDCHAR
STARTCHAR 010C
ENCODING 268
SWIDTH 562 0
DWIDTH 25 0
BBX 22 37 2 0
BITMAP
010040
03C0E0
01E1C0
00F780
007F00
003E00
000000
000000
003F80
01FFE0
03FFF0
0FE1F8
0F8030
1E0010
3C0000
3C0000
780000
780000
780000
700000
F00000
F00000
F00000
F00000
F00000
700000
780000
780000
780000
3C0000
3C0000
1E0018
1F803C
0FE1F8
07FFF0
01FFE0
007F00
ENDCHAR
STARTCHAR 010D
ENCODING 269
SWIDTH 450 0
DWIDTH 20 0
BBX 17 33 2 0
BITMAP
0C0180
0E0380
070700
078E00
03DE00
01FC00
00F800
00F000
000000
000000
000000
01FC00
07FF00
0FFF80
1F0700
3C0200
7C0000
780000
700000
F00000
F00000
F00000
F00000
F00000
F00000
F00000
780000
7C0000
3C0100
3F0780
1FFF80
07FE00
01F800
ENDCHAR
STARTCHAR 010E
ENCODING 270
SWIDTH 607 0
DWIDTH 27 0
BBX 21 37 4 0
BITMAP
0C0300
0E0700
071E00
07BC00
03F800
01F000
000000
000000
FFF000
FFFE00
FFFF00
F01F80
F007C0
F003E0
F001F0
F000F0
F000F0
F00078
F00078
F00078
F00078
F00078
F00078
F00078
F00078
F00078
F00078
F00070
F000F0
F000F0
F001E0
F003E0
F007C0
F01F80
FFFF00
FFFC00
FFF000
ENDCHAR
STARTCHAR 010F
ENCODING 271
SWIDTH 562 0
DWIDTH 25 0
BBX 24 34 2 0
BITMAP
000007
000007
0001E7
0001E7
0001E7
0001E7
0001E7
0001E6
0001E2
0001E0
0001E0
0001E0
01F1E0
07FDE0
0FFFE0
1F0FE0
3C03E0
7801E0
7801E0
7001E0
F001E0
F001E0
F001E0
F001E0
F001E0
F001E0
F001E0
7801E0
7801E0
7C03E0
3F0FE0
1FFEE0
0FFCE0
03F0E0
ENDCHAR
STARTCHAR 0110
ENCODING 272
SWIDTH 630 0
DWIDTH 28 0
BBX 25 29 1 0
BITMAP
0FFF0000
0FFFE000
0FFFF000
0F01F800
0F007C00
0F003E00
0F001E00
0F000F00
0F000F00
0F000780
0F000780
0F000780
0F000780
FFFC0780
FFFC0780
0F000780
0F000780
0F000780
0F000780
0F000700
0F000F00
0F000F00
0F001E00
0F003E00
0F007C00
0F01F800
0FFFF000
0FFFC000
0FFF0000
ENDCHAR
STARTCHAR 0111
ENCODING 273
SWIDTH 562 0
DWIDTH 25 0
BBX 22 32 2 0
BITMAP
0001E0
0001E0
0001E0
0001E0
00FFFC
00FFFC
0001E0
0001E0
0001E0
0001E0
0001E0
01F1E0
07FDE0
1FFFE0
3F0FE0
3C03E0
7801E0
7801E0
F001E0
F001E0
F001E0
F001E0
F001E0
F001E0
F001E0
7801E0
7801E0
7C03E0
3F0FE0
1FFEE0
0FFCE0
03F0E0
ENDCHAR
STARTCHAR 0112
ENCODING 274
SWIDTH 517 0
DWIDTH 23 0
BBX 17 35 4 0
BITMAP
1FFE00
1FFE00
1FFE00
000000
000000
000000
FFFF80
FFFF80
FFFF80
F00000
F00000
F00000
F00000
F00000
F00000
F00000
F00000
F00000
FFFE00
FFFE00
FFFE00
F00000
F00000
F00000
F00000
F00000
F00000
F00000
F00000
F00000
F00000
F00000
FFFF80
FFFF80
FFFF80
ENDCHAR
STARTCHAR 0113
ENCODING 275
SWIDTH 495 0
DWIDTH 22 0
BBX 18 29 2 0
BITMAP
0FFF00
0FFF00
0FFF00
000000
000000
000000
000000
01F800
07FE00
0FFF00
1E0F80
3C0380
7803C0
7001C0
7001C0
F001C0
FFFFC0
FFFFC0
FFFFC0
F00000
F00000
F00000
780000
780000
3C0000
3F0380
1FFF80
07FF00
01FC00
ENDCHAR
STARTCHAR 0114
ENCODING 276
SWIDTH 517 0
DWIDTH 23 0
BBX 17 37 4 0
BITMAP
380600
380E00
1C0E00
1F3C00
0FF800
03E000
000000
000000
FFFF80
FFFF80
FFFF80
F00000
F00000
F00000
F00000
F00000
F00000
F00000
F00000
F00000
FFFE00
FFFE00
FFFE00
F00000
F00000
F00000
F00000
F00000
F00000
F00000
F00000
F00000
F00000
F00000
FFFF80
FFFF80
FFFF80
ENDCHAR
STARTCHAR 0115
ENCODING 277
SWIDTH 495 0
DWIDTH 22 0
BBX 18 32 2 0
BITMAP
180380
1C0300
1C0700
0E0700
0FBE00
07FC00
01F000
000000
000000
000000
01F800
07FE00
0FFF00
1E0F80
3C0380
7803C0
7001C0
7001C0
F001C0
FFFFC0
FFFFC0
FFFFC0
F00000
F00000
F00000
780000
780000
3C0000
3F0380
1FFF80
07FF00
01FC00
ENDCHAR
STARTCHAR 0116
ENCODING 278
SWIDTH 517 0
DWIDTH 23 0
BBX 17 36 4 0
BITMAP
01C000
03E000
03E000
03E000
01C000
000000
000000
FFFF80
FFFF80
FFFF80
F00000
F00000
F00000
F00000
F00000
F00000
F00000
F00000
F00000
FFFE00
FFFE00
FFFE00
F00000
F00000
F00000
F00000
F00000
F00000
F00000
F00000
F00000
F00000
F00000
FFFF80
FFFF80
FFFF80
ENDCHAR
STARTCHAR 0117
ENCODING 279
SWIDTH 495 0
DWIDTH 22 0
BBX 18 31 2 0
BITMAP
006000
00F000
01F000
01F000
00E000
000000
000000
000000
000000
01F800
07FE00
0FFF00
1E0F80
3C0380
7803C0
7001C0
7001C0
F001C0
FFFFC0
FFFFC0
FFFFC0
F00000
F00000
F00000
780000
780000
3C0000
3F0380
1FFF80
07FF00
01FC00
ENDCHAR
STARTCHAR 0118
ENCODING 280
SWIDTH 517 0
DWIDTH 23 0
BBX 18 38 4 -9
BITMAP
FFFF80
FFFF80
FFFF80
F00000
F00000
F00000
F00000
F00000
F00000
F00000
F00000
F00000
FFFE00
FFFE00
FFFE00
F00000
F00000
F00000
F00000
F00000
F00000
F00000
F00000
F00000
F00000
F00000
FFFF80
FFFF80
FFFF80
000700
000C00
001C00
003800
003800
003800
003F80
001FC0
000F80
ENDCHAR
STARTCHAR 0119
ENCODING 281
SWIDTH 495 0
DWIDTH 22 0
BBX 18 31 2 -9
BITMAP
01F800
07FE00
0FFF00
1E0F80
3C0380
7803C0
7001C0
7001C0
F001C0
FFFFC0
FFFFC0
FFFFC0
F00000
F00000
F00000
780000
780000
3C0000
3F0380
1FFF80
07FF80
01FE00
000C00
001C00
001800
003800
003800
003800
003D80
001F80
000F00
ENDCHAR
STARTCHAR 011A
ENCODING 282
SWIDTH 517 0
DWIDTH 23 0
BBX 17 37 4 0
BITMAP
100600
1C0E00
1E3C00
0F7800
07F000
03E000
000000
000000
FFFF80
FFFF80
FFFF80
F00000
F00000
F00000
F00000
F00000
F00000
F00000
F00000
F00000
FFFE00
FFFE00
FFFE00
F00000
F00000
F00000
F00000
F00000
F00000
F00000
F00000
F00000
F00000
F00000
FFFF80
FFFF80
FFFF80
ENDCHAR
STARTCHAR 011B
ENCODING 283
SWIDTH 495 0
DWIDTH 22 0
BBX 18 33 2 0
BITMAP
180300
1C0700
0E0E00
071E00
03BC00
03F800
01F000
00F000
000000
000000
000000
01F800
07FE00
0FFF00
1E0F80
3C0380
7803C0
7001C0
7001C0
F001C0
FFFFC0
FFFFC0
FFFFC0
F00000
F00000
F00000
780000
780000
3C0000
3F0380
1FFF80
07FF00
01FC00
ENDCHAR
STARTCHAR 011C
ENCODING 284
SWIDTH 607 0
DWIDTH 27 0
BBX 22 37 2 0
BITMAP
001F00
003F80
003BC0
0071E0
00E0F0
01C030
000000
000000
003F80
01FFF0
03FFF8
07E0FC
0F8038
1E0000
3E0000
3C0000
780000
780000
780000
700000
F00000
F00000
F007FC
F007FC
F007FC
70001C
78001C
78001C
78001C
3C001C
3E001C
1E001C
1F801C
0FE0FC
07FFF8
01FFF0
003F80
ENDCHAR
STARTCHAR 011D
ENCODING 285
SWIDTH 495 0
DWIDTH 22 0
BBX 20 43 2 -10
BITMAP
00F000
01F800
03FC00
079E00
0F0E00
0E0700
1C0300
000000
000000
000000
000000
03FFF0
0FFFF0
1FFFF0
3C0F00
780700
780780
700780
700780
700780
780780
780700
3C0F00
1FFE00
1FFC00
3BF000
380000
700000
700000
7C0000
3FFF00
1FFFC0
3FFFE0
7801F0
7000F0
E000F0
E000F0
E000E0
F001E0
7C07C0
3FFF80
1FFE00
00C000
ENDCHAR
STARTCHAR 011E
ENCODING 286
SWIDTH 607 0
DWIDTH 27 0
BBX 22 37 2 0
BITMAP
00C020
01C030
00C070
00F0E0
007FE0
003F80
000000
000000
003F80
01FFF0
03FFF8
07E0FC
0F8038
1E0000
3E0000
3C0000
780000
780000
780000
700000
F00000
F00000
F007FC
F007FC
F007FC
70001C
78001C
78001C
78001C
3C001C
3E001C
1E001C
1F801C
0FE0FC
07FFF8
01FFF0
003F80
ENDCHAR
STARTCHAR 011F
ENCODING 287
SWIDTH 495 0
DWIDTH 22 0
BBX 20 42 2 -10
BITMAP
180380
1C0380
0E0700
0F0F00
07FE00
03FC00
000000
000000
000000
000000
03FFF0
0FFFF0
1FFFF0
3C0F00
780700
780780
700780
700780
700780
780780
780700
3C0F00
1FFE00
1FFC00
3BF000
380000
700000
700000
7C0000
3FFF00
1FFFC0
3FFFE0
7801F0
7000F0
E000F0
E000F0
E000E0
F001E0
7C07C0
3FFF80
1FFE00
00C000
ENDCHAR
STARTCHAR 0120
ENCODING 288
SWIDTH 607 0
DWIDTH 27 0
BBX 22 36 2 0
BITMAP
000600
001F00
001F00
001F00
000E00
000000
000000
003F80
01FFF0
03FFF8
07E0FC
0F8038
1E0000
3E0000
3C0000
780000
780000
780000
700000
F00000
F00000
F007FC
F007FC
F007FC
70001C
78001C
78001C
78001C
3C001C
3E001C
1E001C
1F801C
0FE0FC
07FFF8
01FFF0
003F80
ENDCHAR
STARTCHAR 0121
ENCODING 289
SWIDTH 495 0
DWIDTH 22 0
BBX 20 41 2 -10
BITMAP
00E000
00F000
01F000
00F000
006000
000000
000000
000000
000000
03FFF0
0FFFF0
1FFFF0
3C0F00
780700
780780
700780
700780
700780
780780
780700
3C0F00
1FFE00
1FFC00
3BF000
380000
700000
700000
7C0000
3FFF00
1FFFC0
3FFFE0
7801F0
7000F0
E000F0
E000F0
E000E0
F001E0
7C07C0
3FFF80
1FFE00
00C000
ENDCHAR
STARTCHAR 0122
ENCODING 290
SWIDTH 607 0
DWIDTH 27 0
BBX 22 39 2 -10
BITMAP
003F80
01FFF0
03FFF8
07E0FC
0F8038
1E0000
3E0000
3C0000
780000
780000
780000
700000
F00000
F00000
F007FC
F007FC
F007FC
70001C
78001C
78001C
78001C
3C001C
3E001C
1E001C
1F801C
0FE0FC
07FFF8
01FFF0
003F80
000000
000000
001C00
001F00
000780
000380
000380
000F00
007E00
003000
ENDCHAR
STARTCHAR 0123
ENCODING 291
SWIDTH 495 0
DWIDTH 22 0
BBX 20 44 2 -10
BITMAP
001C00
00FC00
01E000
018000
038000
01C000
01F000
007000
000000
000000
000000
000000
03FFF0
0FFFF0
1FFFF0
3C0F00
780700
780780
700780
700780
700780
780780
780700
3C0F00
1FFE00
1FFC00
3BF000
380000
700000
700000
7C0000
3FFF00
1FFFC0
3FFFE0
7801F0
7000F0
E000F0
E000F0
E000E0
F001E0
7C07C0
3FFF80
1FFE00
00C000
ENDCHAR
STARTCHAR 0124
ENCODING 292
SWIDTH 652 0
DWIDTH 29 0
BBX 21 37 4 0
BITMAP
00F800
01FC00
03DE00
078F00
0E0780
040100
000000
000000
F00078
F00078
F00078
F00078
F00078
F00078
F00078
F00078
F00078
F00078
F00078
F00078
FFFFF8
FFFFF8
FFFFF8
F00078
F00078
F00078
F00078
F00078
F00078
F00078
F00078
F00078
F00078
F00078
F00078
F00078
F00078
ENDCHAR
STARTCHAR 0125
ENCODING 293
SWIDTH 540 0
DWIDTH 24 0
BBX 22 39 -1 0
BITMAP
0F8000
1FC000
3DE000
707000
E03800
401000
000000
070000
070000
070000
070000
070000
070000
070000
070000
070000
070000
0707C0
071FF0
077FF8
07F0F8
07E07C
07803C
07003C
07003C
07003C
07003C
07003C
07003C
07003C
07003C
07003C
07003C
07003C
07003C
07003C
07003C
07003C
07003C
ENDCHAR
STARTCHAR 0126
ENCODING 294
SWIDTH 697 0
DWIDTH 31 0
BBX 28 29 1 0
BITMAP
0F000780
0F000780
0F000780
0F000780
0F000780
FFFFFFF0
FFFFFFF0
0F000780
0F000780
0F000780
0F000780
0F000780
0FFFFF80
0FFFFF80
0FFFFF80
0F000780
0F000780
0F000780
0F000780
0F000780
0F000780
0F000780
0F000780
0F000780
0F000780
0F000780
0F000780
0F000780
0F000780
ENDCHAR
STARTCHAR 0127
ENCODING 295
SWIDTH 540 0
DWIDTH 24 0
BBX 21 32 0 0
BITMAP
0E0000
0E0000
0E0000
0E0000
FFFE00
FFFE00
0E0000
0E0000
0E0000
0E0000
0E0000
0E0F80
0E3FE0
0EFFF0
0FE1F0
0FC0F0
0F0078
0E0078
0E0078
0E0078
0E0078
0E0078
0E0078
0E0078
0E0078
0E0078
0E0078
0E0078
0E0078
0E0078
0E0078
0E0078
ENDCHAR
STARTCHAR 0128
ENCODING 296
SWIDTH 270 0
DWIDTH 12 0
BBX 16 37 -2 0
BITMAP
1E07
7F07
7FCE
E3FE
E0FC
0030
0000
0000
03C0
03C0
03C0
03C0
03C0
03C0
03C0
03C0
03C0
03C0
03C0
03C0
03C0
03C0
03C0
03C0
03C0
03C0
03C0
03C0
03C0
03C0
03C0
03C0
03C0
03C0
03C0
03C0
03C0
ENDCHAR
STARTCHAR 0129
ENCODING 297
SWIDTH 247 0
DWIDTH 11 0
BBX 15 32 -2 0
BITMAP
3E06
7F0E
7F8E
E3FC
C1FC
C078
0000
0000
0000
0000
0380
0380
0380
0380
0380
0380
0380
0380
0380
0380
0380
0380
0380
0380
0380
0380
0380
0380
0380
0380
0380
0380
ENDCHAR
STARTCHAR 012A
ENCODING 298
SWIDTH 270 0
DWIDTH 12 0
BBX 12 35 0 0
BITMAP
FFF0
FFF0
FFF0
0000
0000
0000
0F00
0F00
0F00
0F00
0F00
0F00
0F00
0F00
0F00
0F00
0F00
0F00
0F00
0F00
0F00
0F00
0F00
0F00
0F00
0F00
0F00
0F00
0F00
0F00
0F00
0F00
0F00
0F00
0F00
ENDCHAR
STARTCHAR 012B
ENCODING 299
SWIDTH 247 0
DWIDTH 11 0
BBX 11 29 0 0
BITMAP
FFE0
FFE0
FFE0
0000
0000
0000
0000
0E00
0E00
0E00
0E00
0E00
0E00
0E00
0E00
0E00
0E00
0E00
0E00
0E00
0E00
0E00
0E00
0E00
0E00
0E00
0E00
0E00
0E00
ENDCHAR
STARTCHAR 012C
ENCODING 300
SWIDTH 270 0
DWIDTH 12 0
BBX 13 37 -1 0
BITMAP
E018
6018
7038
7CF0
3FE0
0FC0
0000
0000
0780
0780
0780
0780
0780
0780
0780
0780
0780
0780
0780
0780
0780
0780
0780
0780
0780
0780
0780
0780
0780
0780
0780
0780
0780
0780
0780
0780
0780
ENDCHAR
STARTCHAR 012D
ENCODING 301
SWIDTH 247 0
DWIDTH 11 0
BBX 13 32 -1 0
BITMAP
C018
E018
E038
7070
7FF0
1FC0
0000
0000
0000
0000
0700
0700
0700
0700
0700
0700
0700
0700
0700
0700
0700
0700
0700
0700
0700
0700
0700
0700
0700
0700
0700
0700
ENDCHAR
STARTCHAR 012E
ENCODING 302
SWIDTH 270 0
DWIDTH 12 0
BBX 8 38 2 -9
BITMAP
3C
3C
3C
3C
3C
3C
3C
3C
3C
3C
3C
3C
3C
3C
3C
3C
3C
3C
3C
3C
3C
3C
3C
3C
3C
3C
3C
3C
3C
38
70
60
E0
E0
E0
FE
7F
3C
ENDCHAR
STARTCHAR 012F
ENCODING 303
SWIDTH 247 0
DWIDTH 11 0
BBX 7 40 2 -9
BITMAP
38
7C
7C
7C
30
00
00
00
00
38
38
38
38
38
38
38
38
38
38
38
38
38
38
38
38
38
38
38
38
38
38
38
70
60
E0
C0
E0
F6
FE
3C
ENDCHAR
STARTCHAR 0130
ENCODING 304
SWIDTH 270 0
DWIDTH 12 0
BBX 5 36 3 0
BITMAP
70
F8
F8
78
30
00
00
78
78
78
78
78
78
78
78
78
78
78
78
78
78
78
78
78
78
78
78
78
78
78
78
78
78
78
78
78
ENDCHAR
STARTCHAR 0131
ENCODING 305
SWIDTH 247 0
DWIDTH 11 0
BBX 3 22 4 0
BITMAP
E0
E0
E0
E0
E0
E0
E0
E0
E0
E0
E0
E0
E0
E0
E0
E0
E0
E0
E0
E0
E0
E0
ENDCHAR
STARTCHAR 0132
ENCODING 306
SWIDTH 517 0
DWIDTH 23 0
BBX 15 36 4 -7
BITMAP
F00E
F00E
F00E
F00E
F00E
F00E
F00E
F00E
F00E
F00E
F00E
F00E
F00E
F00E
F00E
F00E
F00E
F00E
F00E
F00E
F00E
F00E
F00E
F00E
F00E
F00E
F00E
F00E
F00E
000E
000E
001E
001E
01FC
03FC
03F0
ENDCHAR
STARTCHAR 0133
ENCODING 307
SWIDTH 495 0
DWIDTH 22 0
BBX 16 40 3 -9
BITMAP
300E
F81F
F81F
F81F
700E
0000
0000
0000
0000
700E
700E
700E
700E
700E
700E
700E
700E
700E
700E
700E
700E
700E
700E
700E
700E
700E
700E
700E
700E
700E
700E
000E
000E
000E
000E
001E
001E
01FC
03FC
03F0
ENDCHAR
STARTCHAR 0134
ENCODING 308
SWIDTH 472 0
DWIDTH 21 0
BBX 21 37 1 0
BITMAP
000F80
001FC0
003DE0
0078F0
00E038
004010
000000
000000
000700
000700
000700
000700
000700
000700
000700
000700
000700
000700
000700
000700
000700
000700
000700
000700
000700
000700
000700
000700
000700
000700
000F00
300F00
F81F00
7C3E00
3FFC00
1FF800
07E000
ENDCHAR
STARTCHAR 0135
ENCODING 309
SWIDTH 247 0
DWIDTH 11 0
BBX 14 42 -2 -9
BITMAP
07C0
0FE0
0FE0
1C70
3838
701C
600C
0000
0000
0000
0000
0380
0380
0380
0380
0380
0380
0380
0380
0380
0380
0380
0380
0380
0380
0380
0380
0380
0380
0380
0380
0380
0380
0380
0380
0380
0380
0780
0780
7F00
FF00
FC00
ENDCHAR
STARTCHAR 0136
ENCODING 310
SWIDTH 585 0
DWIDTH 26 0
BBX 21 39 4 -10
BITMAP
F000F0
F001E0
F003C0
F00780
F00F00
F01F00
F01E00
F03C00
F07800
F0F000
F1E000
F3E000
F3F000
F7F000
FF7800
FE3C00
FE3C00
FC1E00
F81E00
F00F00
F00F80
F00780
F003C0
F003C0
F001E0
F001F0
F000F0
F00078
F00078
000000
000000
004000
00F800
003C00
001C00
001C00
003C00
03F800
03C000
ENDCHAR
STARTCHAR 0137
ENCODING 311
SWIDTH 495 0
DWIDTH 22 0
BBX 17 42 4 -10
BITMAP
E00000
E00000
E00000
E00000
E00000
E00000
E00000
E00000
E00000
E00000
E00F00
E01E00
E01E00
E03C00
E07800
E0F000
E1E000
E1C000
E3C000
E7C000
EFC000
FFE000
FCF000
FC7000
F87800
F03C00
E03C00
E01E00
E01E00
E00F00
E00780
E00780
000000
000000
020000
03C000
00E000
007000
006000
00E000
0FC000
0F0000
ENDCHAR
STARTCHAR 0138
ENCODING 312
SWIDTH 495 0
DWIDTH 22 0
BBX 17 22 4 0
BITMAP
E00F00
E01E00
E01E00
E03C00
E07800
E0F000
E1E000
E1E000
E3C000
E7C000
EFC000
EFE000
FCF000
FCF000
F87800
F03C00
E03C00
E01E00
E01E00
E00F00
E00780
E00780
ENDCHAR
STARTCHAR 0139
ENCODING 313
SWIDTH 495 0
DWIDTH 22 0
BBX 16 38 4 0
BITMAP
0600
0E00
1E00
3C00
F800
E000
4000
0000
0000
F000
F000
F000
F000
F000
F000
F000
F000
F000
F000
F000
F000
F000
F000
F000
F000
F000
F000
F000
F000
F000
F000
F000
F000
F000
F000
FFFF
FFFF
FFFF
ENDCHAR
STARTCHAR 013A
ENCODING 314
SWIDTH 247 0
DWIDTH 11 0
BBX 8 41 3 0
BITMAP
06
0F
1F
3E
78
F0
60
00
00
70
70
70
70
70
70
70
70
70
70
70
70
70
70
70
70
70
70
70
70
70
70
70
70
70
70
70
70
78
7C
7C
3E
ENDCHAR
STARTCHAR 013B
ENCODING 315
SWIDTH 495 0
DWIDTH 22 0
BBX 16 39 4 -10
BITMAP
F000
F000
F000
F000
F000
F000
F000
F000
F000
F000
F000
F000
F000
F000
F000
F000
F000
F000
F000
F000
F000
F000
F000
F000
F000
F000
FFFF
FFFF
FFFF
0000
0000
0100
03E0
00F0
0070
0070
00F0
07E0
0780
ENDCHAR
STARTCHAR 013C
ENCODING 316
SWIDTH 247 0
DWIDTH 11 0
BBX 7 42 3 -10
BITMAP
70
70
70
70
70
70
70
70
70
70
70
70
70
70
70
70
70
70
70
70
70
70
70
70
70
70
70
70
78
7C
7C
3E
00
00
38
3E
0E
06
0E
1E
FC
E0
ENDCHAR
STARTCHAR 013D
ENCODING 317
SWIDTH 495 0
DWIDTH 22 0
BBX 16 32 4 0
BITMAP
0018
0018
0018
F018
F018
F018
F018
F018
F018
F000
F000
F000
F000
F000
F000
F000
F000
F000
F000
F000
F000
F000
F000
F000
F000
F000
F000
F000
F000
FFFF
FFFF
FFFF
ENDCHAR
STARTCHAR 013E
ENCODING 318
SWIDTH 270 0
DWIDTH 12 0
BBX 8 34 4 0
BITMAP
03
03
E3
E3
E3
E3
E3
E3
E3
E0
E0
E0
E0
E0
E0
E0
E0
E0
E0
E0
E0
E0
E0
E0
E0
E0
E0
E0
E0
E0
F0
F8
F8
7C
ENDCHAR
STARTCHAR 013F
ENCODING 319
SWIDTH 495 0
DWIDTH 22 0
BBX 16 29 4 0
BITMAP
F000
F000
F000
F000
F000
F000
F000
F000
F000
F000
F000
F000
F01C
F03E
F03E
F03E
F01E
F008
F000
F000
F000
F000
F000
F000
F000
F000
FFFF
FFFF
FFFF
ENDCHAR
STARTCHAR 0140
ENCODING 320
SWIDTH 360 0
DWIDTH 16 0
BBX 12 32 4 0
BITMAP
E000
E000
E000
E000
E000
E000
E000
E000
E000
E000
E000
E000
E000
E000
E040
E1F0
E1F0
E1F0
E1F0
E0E0
E000
E000
E000
E000
E000
E000
E000
E000
F000
F800
F800
7C00
ENDCHAR
STARTCHAR 0141
ENCODING 321
SWIDTH 495 0
DWIDTH 22 0
BBX 21 29 0 0
BITMAP
0F0000
0F0000
0F0000
0F0000
0F0000
0F0000
0F0000
0F0000
0F0000
0F0000
0F0300
0F0F80
0F3F00
0FFC00
0FF000
0FC000
3F0000
FF0000
FF0000
4F0000
0F0000
0F0000
0F0000
0F0000
0F0000
0F0000
0FFFF8
0FFFF8
0FFFF8
ENDCHAR
STARTCHAR 0142
ENCODING 322
SWIDTH 270 0
DWIDTH 12 0
BBX 11 32 0 0
BITMAP
0E00
0E00
0E00
0E00
0E00
0E00
0E00
0E00
0E00
0E00
0E00
0EE0
0FE0
0FC0
1F00
7E00
FE00
6E00
0E00
0E00
0E00
0E00
0E00
0E00
0E00
0E00
0E00
0E00
0F00
0F80
07C0
03C0
ENDCHAR
STARTCHAR 0143
ENCODING 323
SWIDTH 652 0
DWIDTH 29 0
BBX 21 38 4 0
BITMAP
000600
000F00
001F00
003E00
007800
00F000
006000
000000
000000
F00078
F80078
F80078
FC0078
FC0078
EE0078
EF0078
E70078
E78078
E38078
E3C078
E1C078
F1E078
F0F078
F0F078
F07878
F03878
F03C78
F01E78
F01E78
F00F78
F00738
F007B8
F003B8
F003F8
F001F8
F001F8
F000F8
F00078
ENDCHAR
STARTCHAR 0144
ENCODING 324
SWIDTH 540 0
DWIDTH 24 0
BBX 17 35 4 0
BITMAP
000800
001C00
001E00
003C00
007800
00F000
01E000
01C000
008000
000000
000000
000000
000000
E0F800
E3FE00
EFFF00
FE1F00
FC0F80
F00780
E00780
E00780
E00780
E00780
E00780
E00780
E00780
E00780
E00780
E00780
E00780
E00780
E00780
E00780
E00780
E00780
ENDCHAR
STARTCHAR 0145
ENCODING 325
SWIDTH 652 0
DWIDTH 29 0
BBX 21 39 4 -10
BITMAP
F00078
F80078
F80078
FC0078
FC0078
EE0078
EF0078
E70078
E78078
E38078
E3C078
E1C078
F1E078
F0F078
F0F078
F07878
F03878
F03C78
F01E78
F01E78
F00F78
F00738
F007B8
F003B8
F003F8
F001F8
F001F8
F000F8
F00078
000000
000000
004000
00F800
003C00
001C00
001C00
003C00
03F800
01C000
ENDCHAR
STARTCHAR 0146
ENCODING 326
SWIDTH 540 0
DWIDTH 24 0
BBX 17 32 4 -10
BITMAP
E0F800
E3FE00
EFFF00
FE1F00
FC0F80
F00780
E00780
E00780
E00780
E00780
E00780
E00780
E00780
E00780
E00780
E00780
E00780
E00780
E00780
E00780
E00780
E00780
000000
000000
010000
03E000
00F000
007000
007000
00E000
0FC000
0F0000
ENDCHAR
STARTCHAR 0147
ENCODING 327
SWIDTH 652 0
DWIDTH 29 0
BBX 21 37 4 0
BITMAP
040100
0F0380
078F00
03DE00
01FC00
00F800
000000
000000
F00078
F80078
F80078
FC0078
FC0078
EE0078
EF0078
E70078
E78078
E38078
E3C078
E1C078
F1E078
F0F078
F0F078
F07878
F03878
F03C78
F01E78
F01E78
F00F78
F00738
F007B8
F003B8
F003F8
F001F8
F001F8
F000F8
F00078
ENDCHAR
STARTCHAR 0148
ENCODING 328
SWIDTH 540 0
DWIDTH 24 0
BBX 17 33 4 0
BITMAP
180600
3C0E00
1C1E00
0E1C00
073800
07F000
03F000
01E000
000000
000000
000000
E0F800
E3FE00
EFFF00
FE1F00
FC0F80
F00780
E00780
E00780
E00780
E00780
E00780
E00780
E00780
E00780
E00780
E00780
E00780
E00780
E00780
E00780
E00780
E00780
ENDCHAR
STARTCHAR 0149
ENCODING 329
SWIDTH 765 0
DWIDTH 34 0
BBX 28 31 3 0
BITMAP
70000000
78000000
F8000000
7C000000
3C000000
18000000
18000000
38000000
30000000
E03C1F00
C03C7FC0
003DFFE0
003FC3E0
003F01E0
003E00F0
003C00F0
003C00F0
003C00F0
003C00F0
003C00F0
003C00F0
003C00F0
003C00F0
003C00F0
003C00F0
003C00F0
003C00F0
003C00F0
003C00F0
003C00F0
003C00F0
ENDCHAR
STARTCHAR 014A
ENCODING 330
SWIDTH 630 0
DWIDTH 28 0
BBX 22 29 4 0
BITMAP
007E00
F1FF80
F7FFC0
FF87E0
FE01F0
FC00F0
F00078
F00078
F00078
F0003C
F0003C
F0003C
F0003C
F0003C
F0003C
F0003C
F0003C
F0003C
F0003C
F0003C
F00038
F00078
F00078
F00078
F000F0
F01FF0
F01FE0
F01FC0
001F80
ENDCHAR
STARTCHAR 014B
ENCODING 331
SWIDTH 540 0
DWIDTH 24 0
BBX 17 30 4 -8
BITMAP
E0F800
E3FE00
EFFF00
FE1F00
FC0F80
F00780
E00780
E00780
E00780
E00780
E00780
E00780
E00780
E00780
E00780
E00780
E00780
E00780
E00780
E00780
E00780
E00780
000780
000780
000780
000780
000F00
00FF00
00FE00
00FC00
ENDCHAR
STARTCHAR 014C
ENCODING 332
SWIDTH 675 0
DWIDTH 30 0
BBX 25 35 2 0
BITMAP
01FFE000
01FFE000
01FFE000
00000000
00000000
00000000
007F0000
01FFE000
07FFF000
0FE1F800
1F007C00
1E003E00
3C001F00
3C000F00
78000F00
78000780
78000780
70000780
F0000780
F0000780
F0000780
F0000780
F0000780
70000780
78000780
78000780
78000F00
3C000F00
3C001E00
1E003E00
1F807C00
0FE1F800
07FFF000
01FFE000
007F0000
ENDCHAR
STARTCHAR 014D
ENCODING 333
SWIDTH 540 0
DWIDTH 24 0
BBX 20 29 2 0
BITMAP
0FFF00
0FFF00
0FFF00
000000
000000
000000
000000
01F800
07FE00
0FFF80
1F0FC0
3C03C0
7801E0
7801E0
7000F0
F000F0
F000F0
F000F0
F000F0
F000F0
F000F0
F000F0
7801E0
7801E0
3C03C0
1F0FC0
1FFF80
07FE00
01F800
ENDCHAR
STARTCHAR 014E
ENCODING 334
SWIDTH 675 0
DWIDTH 30 0
BBX 25 37 2 0
BITMAP
01804000
03806000
0180E000
01E1C000
00FFC000
007F0000
00000000
00000000
007F0000
01FFE000
07FFF000
0FE1F800
1F007C00
1E003E00
3C001F00
3C000F00
78000F00
78000780
78000780
70000780
F0000780
F0000780
F0000780
F0000780
F0000780
70000780
78000780
78000780
78000F00
3C000F00
3C001E00
1E003E00
1F807C00
0FE1F800
07FFF000
01FFE000
007F0000
ENDCHAR
STARTCHAR 014F
ENCODING 335
SWIDTH 540 0
DWIDTH 24 0
BBX 20 32 2 0
BITMAP
1C0180
1C0380
0C0380
0E0700
07FE00
03FE00
01F800
000000
000000
000000
01F800
07FE00
0FFF80
1F0FC0
3C03C0
7801E0
7801E0
7000F0
F000F0
F000F0
F000F0
F000F0
F000F0
F000F0
F000F0
7801E0
7801E0
3C03C0
1F0FC0
1FFF80
07FE00
01F800
ENDCHAR
STARTCHAR 0150
ENCODING 336
SWIDTH 675 0
DWIDTH 30 0
BBX 25 38 2 0
BITMAP
000C1800
001E3C00
001C3800
00387000
00706000
0070E000
00E1C000
00000000
00000000
007F0000
01FFE000
07FFF000
0FE1F800
1F007C00
1E003E00
3C001F00
3C000F00
78000F00
78000780
78000780
70000780
F0000780
F0000780
F0000780
F0000780
F0000780
70000780
78000780
78000780
78000F00
3C000F00
3C001E00
1E003E00
1F807C00
0FE1F800
07FFF000
01FFE000
007F0000
ENDCHAR
STARTCHAR 0151
ENCODING 337
SWIDTH 540 0
DWIDTH 24 0
BBX 20 34 2 0
BITMAP
004080
0070E0
00F1C0
00E1C0
01C380
01C380
038700
038600
010200
000000
000000
000000
01F800
07FE00
0FFF80
1F0FC0
3C03C0
7801E0
7801E0
7000F0
F000F0
F000F0
F000F0
F000F0
F000F0
F000F0
F000F0
7801E0
7801E0
3C03C0
1F0FC0
1FFF80
07FE00
01F800
ENDCHAR
STARTCHAR 0152
ENCODING 338
SWIDTH 855 0
DWIDTH 38 0
BBX 33 29 2 0
BITMAP
003FFFFF80
01FFFFFF80
03FFFFFF80
0FE0780000
1F80780000
1E00780000
3C00780000
3C00780000
7800780000
7800780000
7800780000
7000780000
F0007FFE00
F0007FFE00
F0007FFE00
F000780000
F000780000
7000780000
7800780000
7800780000
7800780000
3C00780000
3E00780000
1F00780000
1F80780000
0FE0780000
03FFFFFF80
01FFFFFF80
003FFFFF80
ENDCHAR
STARTCHAR 0153
ENCODING 339
SWIDTH 832 0
DWIDTH 37 0
BBX 34 22 2 0
BITMAP
01F801F000
07FE07FC00
1FFF0FFE00
1F0F9E0F00
3C07B80780
7803F80380
7801F00380
7001F00380
F000E003C0
F000E003C0
F000FFFFC0
F000FFFFC0
F000E00000
F000E00000
F001F00000
7801F00000
7803F80000
3C03BC0000
3F0F9E0700
1FFF0FFF80
07FE07FE00
01F801F800
ENDCHAR
STARTCHAR 0154
ENCODING 340
SWIDTH 562 0
DWIDTH 25 0
BBX 20 38 4 0
BITMAP
000800
001C00
003C00
00F800
01F000
01C000
018000
000000
000000
FFFC00
FFFF00
FFFF80
F00FC0
F003E0
F001E0
F001E0
F000E0
F000E0
F000E0
F001E0
F001E0
F003C0
F00FC0
FFFF80
FFFF00
FFF800
F07800
F03C00
F03C00
F01E00
F00F00
F00F00
F00780
F00780
F003C0
F001E0
F001E0
F000F0
ENDCHAR
STARTCHAR 0155
ENCODING 341
SWIDTH 337 0
DWIDTH 15 0
BBX 12 35 4 0
BITMAP
0040
00E0
01F0
03E0
03C0
0780
0F00
1E00
0C00
0000
0000
0000
0000
E1E0
E3E0
EFE0
EF20
FC00
F800
F000
F000
E000
E000
E000
E000
E000
E000
E000
E000
E000
E000
E000
E000
E000
E000
ENDCHAR
STARTCHAR 0156
ENCODING 342
SWIDTH 562 0
DWIDTH 25 0
BBX 20 39 4 -10
BITMAP
FFFC00
FFFF00
FFFF80
F00FC0
F003E0
F001E0
F001E0
F000E0
F000E0
F000E0
F001E0
F001E0
F003C0
F00FC0
FFFF80
FFFF00
FFF800
F07800
F03C00
F03C00
F01E00
F00F00
F00F00
F00780
F00780
F003C0
F001E0
F001E0
F000F0
000000
000000
008000
01F000
007800
003800
003800
007800
07F000
038000
ENDCHAR
STARTCHAR 0157
ENCODING 343
SWIDTH 337 0
DWIDTH 15 0
BBX 14 32 1 -10
BITMAP
1C3C
1C7C
1DFC
1DE4
1F80
1F00
1E00
1E00
1C00
1C00
1C00
1C00
1C00
1C00
1C00
1C00
1C00
1C00
1C00
1C00
1C00
1C00
0000
0000
1000
3E00
0F00
0700
0700
0E00
FE00
F000
ENDCHAR
STARTCHAR 0158
ENCODING 344
SWIDTH 562 0
DWIDTH 25 0
BBX 20 37 4 0
BITMAP
180600
1C0E00
0E1C00
077800
07F000
03E000
000000
000000
FFFC00
FFFF00
FFFF80
F00FC0
F003E0
F001E0
F001E0
F000E0
F000E0
F000E0
F001E0
F001E0
F003C0
F00FC0
FFFF80
FFFF00
FFF800
F07800
F03C00
F03C00
F01E00
F00F00
F00F00
F00780
F00780
F003C0
F001E0
F001E0
F000F0
ENDCHAR
STARTCHAR 0159
ENCODING 345
SWIDTH 337 0
DWIDTH 15 0
BBX 13 33 3 0
BITMAP
C018
E038
7070
38F0
3DE0
1FC0
0F80
0780
0000
0000
0000
70F0
71F0
77F0
7790
7E00
7C00
7800
7800
7000
7000
7000
7000
7000
7000
7000
7000
7000
7000
7000
7000
7000
7000
ENDCHAR
STARTCHAR 015A
ENCODING 346
SWIDTH 540 0
DWIDTH 24 0
BBX 20 38 2 0
BITMAP
000200
000600
000F00
001E00
007C00
00F800
006000
004000
000000
01FC00
07FF00
0FFFC0
1F07E0
3C01C0
380000
780000
780000
780000
3C0000
3E0000
1F8000
0FE000
07FC00
01FF00
007F80
000FC0
0003E0
0001F0
0000F0
0000F0
0000F0
0000F0
7000F0
F801E0
7F0FC0
3FFF80
0FFF00
03FC00
ENDCHAR
STARTCHAR 015B
ENCODING 347
SWIDTH 427 0
DWIDTH 19 0
BBX 15 35 2 0
BITMAP
0010
0018
003C
0078
00F0
01E0
03C0
0380
0300
0000
0000
0000
0000
07E0
1FF8
3FFC
781C
7008
F000
F000
7800
7C00
3F80
1FE0
07F8
00FC
003E
001E
000E
000E
C01E
F03C
FFFC
7FF8
0FE0
ENDCHAR
STARTCHAR 015C
ENCODING 348
SWIDTH 540 0
DWIDTH 24 0
BBX 20 37 2 0
BITMAP
00F800
01FC00
03DE00
078E00
0F0700
0E0380
000000
000000
01FC00
07FF00
0FFFC0
1F07E0
3C01C0
380000
780000
780000
780000
3C0000
3E0000
1F8000
0FE000
07FC00
01FF00
007F80
000FC0
0003E0
0001F0
0000F0
0000F0
0000F0
0000F0
7000F0
F801E0
7F0FC0
3FFF80
0FFF00
03FC00
ENDCHAR
STARTCHAR 015D
ENCODING 349
SWIDTH 427 0
DWIDTH 19 0
BBX 15 33 2 0
BITMAP
03C0
07E0
0FE0
1EF0
1C78
383C
700E
2004
0000
0000
0000
07E0
1FF8
3FFC
781C
7008
F000
F000
7800
7C00
3F80
1FE0
07F8
00FC
003E
001E
000E
000E
C01E
F03C
FFFC
7FF8
0FE0
ENDCHAR
STARTCHAR 015E
ENCODING 350
SWIDTH 540 0
DWIDTH 24 0
BBX 20 39 2 -10
BITMAP
01FC00
07FF00
0FFFC0
1F07E0
3C01C0
380000
780000
780000
780000
3C0000
3E0000
1F8000
0FE000
07FC00
01FF00
007F80
000FC0
0003E0
0001F0
0000F0
0000F0
0000F0
0000F0
7000F0
F801E0
7F07C0
3FFFC0
0FFF00
03FC00
006000
00E000
00E000
01F800
003800
001C00
001C00
007800
03F000
038000
ENDCHAR
STARTCHAR 015F
ENCODING 351
SWIDTH 427 0
DWIDTH 19 0
BBX 15 32 2 -10
BITMAP
07E0
1FF8
3FFC
781C
7008
F000
F000
7800
7C00
3F80
1FE0
07F8
00FC
003E
001E
000E
000E
C01E
F03C
FFFC
7FF8
0FE0
0380
0300
0300
07C0
00E0
00E0
00E0
01E0
0FC0
0C00
ENDCHAR
STARTCHAR 0160
ENCODING 352
SWIDTH 540 0
DWIDTH 24 0
BBX 20 37 2 0
BITMAP
040100
0E0780
078F00
03DE00
01FC00
00F800
000000
000000
01FC00
07FF00
0FFFC0
1F07E0
3C01C0
380000
780000
780000
780000
3C0000
3E0000
1F8000
0FE000
07FC00
01FF00
007F80
000FC0
0003E0
0001F0
0000F0
0000F0
0000F0
0000F0
7000F0
F801E0
7F0FC0
3FFF80
0FFF00
03FC00
ENDCHAR
STARTCHAR 0161
ENCODING 353
SWIDTH 427 0
DWIDTH 19 0
BBX 15 33 2 0
BITMAP
600C
701C
383C
1C78
0EF0
0FE0
07C0
03C0
0000
0000
0000
07E0
1FF8
3FFC
781C
7008
F000
F000
7800
7C00
3F80
1FE0
07F8
00FC
003E
001E
000E
000E
C01E
F03C
FFFC
7FF8
0FE0
ENDCHAR
STARTCHAR 0162
ENCODING 354
SWIDTH 540 0
DWIDTH 24 0
BBX 22 39 1 -10
BITMAP
FFFFFC
FFFFFC
FFFFFC
007800
007800
007800
007800
007800
007800
007800
007800
007800
007800
007800
007800
007800
007800
007800
007800
007800
007800
007800
007800
007800
007800
007800
007800
007800
007800
003000
007000
006000
00F800
003C00
001C00
001C00
003C00
01F800
01E000
ENDCHAR
STARTCHAR 0163
ENCODING 355
SWIDTH 337 0
DWIDTH 15 0
BBX 13 38 1 -10
BITMAP
0E00
0E00
0E00
0E00
0E00
1E00
FFF8
FFF8
FFF8
1E00
1E00
1E00
1E00
1E00
1E00
1E00
1E00
1E00
1E00
1E00
1E00
1E00
1E00
1E00
0F00
0FF8
07F8
03F0
01C0
0180
0380
03E0
0070
0070
0070
00F0
0FC0
0600
ENDCHAR
STARTCHAR 0164
ENCODING 356
SWIDTH 540 0
DWIDTH 24 0
BBX 22 37 1 0
BITMAP
060180
070380
038700
01DE00
00FC00
00F800
000000
000000
FFFFFC
FFFFFC
FFFFFC
007800
007800
007800
007800
007800
007800
007800
007800
007800
007800
007800
007800
007800
007800
007800
007800
007800
007800
007800
007800
007800
007800
007800
007800
007800
007800
ENDCHAR
STARTCHAR 0165
ENCODING 357
SWIDTH 337 0
DWIDTH 15 0
BBX 13 34 1 0
BITMAP
0038
0038
0038
0038
0038
0030
0E30
0E30
0E30
0E00
0E00
1E00
FFF8
FFF8
FFF8
1E00
1E00
1E00
1E00
1E00
1E00
1E00
1E00
1E00
1E00
1E00
1E00
1E00
1E00
0E00
0F00
0FF8
07F8
01F0
ENDCHAR
STARTCHAR 0166
ENCODING 358
SWIDTH 540 0
DWIDTH 24 0
BBX 22 29 1 0
BITMAP
FFFFFC
FFFFFC
FFFFFC
007800
007800
007800
007800
007800
007800
007800
007800
007800
007800
0FFFC0
0FFFC0
007800
007800
007800
007800
007800
007800
007800
007800
007800
007800
007800
007800
007800
007800
ENDCHAR
STARTCHAR 0167
ENCODING 359
SWIDTH 337 0
DWIDTH 15 0
BBX 13 28 1 0
BITMAP
0E00
0E00
0E00
0E00
0E00
1E00
FFF8
FFF8
FFF8
1E00
1E00
1E00
1E00
1E00
1E00
FFF8
FFF8
1E00
1E00
1E00
1E00
1E00
1E00
0F00
0F00
0FF8
07F8
01F0
ENDCHAR
STARTCHAR 0168
ENCODING 360
SWIDTH 652 0
DWIDTH 29 0
BBX 21 37 4 0
BITMAP
0780C0
0FE1C0
1FF1C0
1C7F80
183F80
000600
000000
000000
F00078
F00078
F00078
F00078
F00078
F00078
F00078
F00078
F00078
F00078
F00078
F00078
F00078
F00078
F00078
F00078
F00078
F00078
F00078
F00078
F00070
F00070
7800F0
7800F0
3C01E0
3F8FC0
1FFFC0
0FFF00
01FC00
ENDCHAR
STARTCHAR 0169
ENCODING 361
SWIDTH 540 0
DWIDTH 24 0
BBX 18 32 3 0
BITMAP
0F0380
1F8380
3FE300
30FF00
307E00
703C00
000000
000000
000000
000000
F003C0
F003C0
F003C0
F003C0
F003C0
F003C0
F003C0
F003C0
F003C0
F003C0
F003C0
F003C0
F003C0
F003C0
F003C0
F003C0
7807C0
780FC0
7C3FC0
3FFBC0
1FF3C0
0FC3C0
ENDCHAR
STARTCHAR 016A
ENCODING 362
SWIDTH 652 0
DWIDTH 29 0
BBX 21 35 4 0
BITMAP
0FFF00
0FFF00
0FFF00
000000
000000
000000
F00078
F00078
F00078
F00078
F00078
F00078
F00078
F00078
F00078
F00078
F00078
F00078
F00078
F00078
F00078
F00078
F00078
F00078
F00078
F00078
F00070
F00070
7800F0
7800F0
3C01E0
3F8FC0
1FFFC0
0FFF00
01FC00
ENDCHAR
STARTCHAR 016B
ENCODING 363
SWIDTH 540 0
DWIDTH 24 0
BBX 18 29 3 0
BITMAP
1FFE00
1FFE00
1FFE00
000000
000000
000000
000000
F003C0
F003C0
F003C0
F003C0
F003C0
F003C0
F003C0
F003C0
F003C0
F003C0
F003C0
F003C0
F003C0
F003C0
F003C0
F003C0
7807C0
780FC0
7C3FC0
3FFBC0
1FF3C0
0FC3C0
ENDCHAR
STARTCHAR 016C
ENCODING 364
SWIDTH 652 0
DWIDTH 29 0
BBX 21 37 4 0
BITMAP
0C0380
0E0380
0E0700
07DF00
03FE00
01F800
000000
000000
F00078
F00078
F00078
F00078
F00078
F00078
F00078
F00078
F00078
F00078
F00078
F00078
F00078
F00078
F00078
F00078
F00078
F00078
F00078
F00078
F00070
F00070
7800F0
7800F0
3C01E0
3F8FC0
1FFFC0
0FFF00
01FC00
ENDCHAR
STARTCHAR 016D
ENCODING 365
SWIDTH 540 0
DWIDTH 24 0
BBX 18 32 3 0
BITMAP
380300
380700
1C0600
1E1E00
0FFC00
07F800
000000
000000
000000
000000
F003C0
F003C0
F003C0
F003C0
F003C0
F003C0
F003C0
F003C0
F003C0
F003C0
F003C0
F003C0
F003C0
F003C0
F003C0
F003C0
7807C0
780FC0
7C3FC0
3FFBC0
1FF3C0
0FC3C0
ENDCHAR
STARTCHAR 016E
ENCODING 366
SWIDTH 652 0
DWIDTH 29 0
BBX 21 39 4 0
BITMAP
00F800
01FC00
038C00
030600
030600
038C00
01FC00
00F000
000000
000000
F00078
F00078
F00078
F00078
F00078
F00078
F00078
F00078
F00078
F00078
F00078
F00078
F00078
F00078
F00078
F00078
F00078
F00078
F00078
F00078
F00070
F00070
7800F0
7800F0
3C01E0
3F8FC0
1FFFC0
0FFF00
01FC00
ENDCHAR
STARTCHAR 016F
ENCODING 367
SWIDTH 540 0
DWIDTH 24 0
BBX 18 34 3 0
BITMAP
00C000
03F800
071800
0E1C00
0E0C00
0E0C00
061C00
07F800
01E000
000000
000000
000000
F003C0
F003C0
F003C0
F003C0
F003C0
F003C0
F003C0
F003C0
F003C0
F003C0
F003C0
F003C0
F003C0
F003C0
F003C0
F003C0
7807C0
780FC0
7C3FC0
3FFBC0
1FF3C0
0FC3C0
ENDCHAR
STARTCHAR 0170
ENCODING 368
SWIDTH 652 0
DWIDTH 29 0
BBX 21 39 4 0
BITMAP
000040
0070E0
0070E0
00E1C0
01C380
01C380
038700
010200
000000
000000
F00078
F00078
F00078
F00078
F00078
F00078
F00078
F00078
F00078
F00078
F00078
F00078
F00078
F00078
F00078
F00078
F00078
F00078
F00078
F00078
F00070
F00070
7800F0
7800F0
3C01E0
3F8FC0
1FFFC0
0FFF00
01FC00
ENDCHAR
STARTCHAR 0171
ENCODING 369
SWIDTH 540 0
DWIDTH 24 0
BBX 18 34 3 0
BITMAP
00C180
00E3C0
01C380
01C700
038700
038E00
070E00
060C00
000000
000000
000000
000000
F003C0
F003C0
F003C0
F003C0
F003C0
F003C0
F003C0
F003C0
F003C0
F003C0
F003C0
F003C0
F003C0
F003C0
F003C0
F003C0
7807C0
780FC0
7C3FC0
3FFBC0
1FF3C0
0FC3C0
ENDCHAR
STARTCHAR 0172
ENCODING 370
SWIDTH 652 0
DWIDTH 29 0
BBX 21 38 4 -9
BITMAP
F00078
F00078
F00078
F00078
F00078
F00078
F00078
F00078
F00078
F00078
F00078
F00078
F00078
F00078
F00078
F00078
F00078
F00078
F00078
F00078
F00078
F00070
7800F0
7800F0
3C01E0
3F8FC0
1FFF80
0FFF00
01FC00
003800
006000
00E000
00C000
01C000
01E000
00FC00
00FE00
007C00
ENDCHAR
STARTCHAR 0173
ENCODING 371
SWIDTH 540 0
DWIDTH 24 0
BBX 18 31 3 -9
BITMAP
F003C0
F003C0
F003C0
F003C0
F003C0
F003C0
F003C0
F003C0
F003C0
F003C0
F003C0
F003C0
F003C0
F003C0
F003C0
F003C0
7807C0
780FC0
7C3FC0
3FFBC0
1FF3C0
0FC3C0
000780
000E00
000C00
001C00
001C00
001C00
001EC0
000FC0
000780
ENDCHAR
STARTCHAR 0174
ENCODING 372
SWIDTH 787 0
DWIDTH 35 0
BBX 33 37 1 0
BITMAP
0003E00000
0007F00000
000F780000
001E3C0000
00380E0000
0010040000
0000000000
0000000000
F001C00780
F003E00780
7003E00700
7803E00700
7803E00F00
7807700F00
7807700E00
3807700E00
3807700E00
3C0E781E00
3C0E381E00
3C0E381C00
1C0E381C00
1C1C3C1C00
1E1C1C3C00
1E1C1C3C00
0E1C1C3800
0E381E3800
0E380E3800
0F380E3800
0F380E7800
07300F7000
0770077000
0770077000
07F0077000
07E007F000
03E003E000
03E003E000
03E003E000
ENDCHAR
STARTCHAR 0175
ENCODING 373
SWIDTH 720 0
DWIDTH 32 0
BBX 30 33 1 0
BITMAP
00078000
000FC000
001FE000
003CF000
00787800
00703800
00601800
00000000
00000000
00000000
00000000
F007803C
F0078038
70078038
780FC078
780FC078
380DC070
380CE070
3C1CE0F0
3C1CE0F0
1C1CE0E0
1C1870E0
1E3870E0
1E3871E0
0E3871C0
0E3039C0
0F7039C0
07703B80
07603B80
07601F80
07E01F80
03E01F00
03C01F00
ENDCHAR
STARTCHAR 0176
ENCODING 374
SWIDTH 472 0
DWIDTH 21 0
BBX 21 37 0 0
BITMAP
00F800
01FC00
03DE00
078F00
0F0380
040100
000000
000000
F00078
780070
7800F0
3C00E0
3C01E0
1C01C0
1E03C0
0E0380
0F0780
070780
078700
038F00
03CE00
01DE00
01DC00
00FC00
00F800
007800
007000
007000
007000
007000
007000
007000
007000
007000
007000
007000
007000
ENDCHAR
STARTCHAR 0177
ENCODING 375
SWIDTH 472 0
DWIDTH 21 0
BBX 19 42 1 -9
BITMAP
00F000
01F800
03FC00
079E00
0F0E00
1E0700
1C0300
000000
000000
000000
000000
E001E0
F001E0
7001C0
7801C0
7803C0
380380
3C0380
1C0780
1C0700
1E0700
0E0F00
0F0E00
0F0E00
071E00
079C00
039C00
03B800
03F800
01F800
01F000
00F000
00F000
00E000
00E000
01E000
01C000
03C000
078000
7F0000
7E0000
FC0000
ENDCHAR
STARTCHAR 0178
ENCODING 376
SWIDTH 472 0
DWIDTH 21 0
BBX 21 36 0 0
BITMAP
060380
0F0780
0F0780
0F0780
000000
000000
000000
F00078
780070
7800F0
3C00E0
3C01E0
1C01C0
1E03C0
0E0380
0F0780
070780
078700
038F00
03CE00
01DE00
01DC00
00FC00
00F800
007800
007000
007000
007000
007000
007000
007000
007000
007000
007000
007000
007000
ENDCHAR
STARTCHAR 0179
ENCODING 377
SWIDTH 540 0
DWIDTH 24 0
BBX 20 38 2 0
BITMAP
000600
000F00
001F00
003E00
007800
00F000
006000
000000
000000
7FFFF0
7FFFF0
7FFFF0
0001E0
0003C0
0003C0
000780
000F00
000F00
001E00
001E00
003C00
007800
007800
00F000
01E000
01E000
03C000
078000
078000
0F0000
1E0000
1E0000
3C0000
780000
780000
FFFFF0
FFFFF0
FFFFF0
ENDCHAR
STARTCHAR 017A
ENCODING 378
SWIDTH 427 0
DWIDTH 19 0
BBX 17 35 1 0
BITMAP
000C00
000E00
001E00
003C00
007800
00F000
01E000
01C000
008000
000000
000000
000000
000000
3FFF00
3FFF00
3FFF00
001E00
001E00
003C00
007800
007800
00F000
01E000
01E000
03C000
078000
078000
0F0000
1E0000
1E0000
3C0000
780000
7FFF80
FFFF80
FFFF80
ENDCHAR
STARTCHAR 017B
ENCODING 379
SWIDTH 540 0
DWIDTH 24 0
BBX 20 36 2 0
BITMAP
007000
00F800
00F800
00F800
007000
000000
000000
7FFFF0
7FFFF0
7FFFF0
0001E0
0003C0
0003C0
000780
000F00
000F00
001E00
001E00
003C00
007800
007800
00F000
01E000
01E000
03C000
078000
078000
0F0000
1E0000
1E0000
3C0000
780000
780000
FFFFF0
FFFFF0
FFFFF0
ENDCHAR
STARTCHAR 017C
ENCODING 380
SWIDTH 427 0
DWIDTH 19 0
BBX 17 31 1 0
BITMAP
00E000
01E000
01F000
01E000
00C000
000000
000000
000000
000000
3FFF00
3FFF00
3FFF00
001E00
001E00
003C00
007800
007800
00F000
01E000
01E000
03C000
078000
078000
0F0000
1E0000
1E0000
3C0000
780000
7FFF80
FFFF80
FFFF80
ENDCHAR
STARTCHAR 017D
ENCODING 381
SWIDTH 540 0
DWIDTH 24 0
BBX 20 37 2 0
BITMAP
040100
0F0780
078F00
03DE00
01FC00
00F800
000000
000000
7FFFF0
7FFFF0
7FFFF0
0001E0
0003C0
0003C0
000780
000F00
000F00
001E00
001E00
003C00
007800
007800
00F000
01E000
01E000
03C000
078000
078000
0F0000
1E0000
1E0000
3C0000
780000
780000
FFFFF0
FFFFF0
FFFFF0
ENDCHAR
STARTCHAR 017E
ENCODING 382
SWIDTH 427 0
DWIDTH 19 0
BBX 17 33 1 0
BITMAP
180700
1C0F00
0E1E00
0F3C00
07F800
03F000
01E000
000000
000000
000000
000000
3FFF00
3FFF00
3FFF00
001E00
001E00
003C00
007800
007800
00F000
01E000
01E000
03C000
078000
078000
0F0000
1E0000
1E0000
3C0000
780000
7FFF80
FFFF80
FFFF80
ENDCHAR
STARTCHAR 0180
ENCODING 384
SWIDTH 540 0
DWIDTH 24 0
BBX 23 32 0 0
BITMAP
0E0000
0E0000
0E0000
0E0000
FFFE00
FFFE00
0E0000
0E0000
0E0000
0E0000
0E0000
0E1F80
0E7FE0
0EFFF0
0FE1F8
0F8078
0F003C
0E003C
0E003C
0E001C
0E001E
0E001E
0E001C
0E001C
0E003C
0E003C
0E0078
0F00F8
0FC1F0
0FFFE0
0E7FC0
0E1F00
ENDCHAR
STARTCHAR 018F
ENCODING 399
SWIDTH 652 0
DWIDTH 29 0
BBX 24 29 3 0
BITMAP
00FF00
07FFC0
0FFFF0
1F03F8
1C00F8
08003C
00003E
00001E
00001E
00000F
00000F
00000F
00000F
FFFFFF
FFFFFF
FFFFFF
E0000F
F0000F
F0000F
F0000E
F0001E
78001E
78003C
3C007C
3E00F8
1F83F0
0FFFE0
03FFC0
00FE00
ENDCHAR
STARTCHAR 0192
ENCODING 402
SWIDTH 495 0
DWIDTH 22 0
BBX 19 33 1 -4
BITMAP
0007E0
000FE0
001FE0
003C20
003800
007800
007800
007000
007000
007000
00F000
0FFF80
0FFF80
0FFF80
00E000
00E000
00E000
00E000
01E000
01E000
01E000
01E000
01E000
01C000
01C000
01C000
03C000
03C000
038000
078000
FF0000
FE0000
FC0000
ENDCHAR
STARTCHAR 0193
ENCODING 403
SWIDTH 607 0
DWIDTH 27 0
BBX 25 35 2 0
BITMAP
00000F80
00001F80
00003F80
00003800
00007800
00007800
003FB800
01FFF800
03FFFC00
07E0F800
0F801800
1E000000
3E000000
3C000000
78000000
78000000
78000000
70000000
F0000000
F0000000
F007FC00
F007FC00
F007FC00
70001C00
78001C00
78001C00
78001C00
3C001C00
3E001C00
1E001C00
1F801C00
0FE0FC00
07FFF800
01FFF000
003F8000
ENDCHAR
STARTCHAR 01A0
ENCODING 416
SWIDTH 675 0
DWIDTH 30 0
BBX 26 35 2 0
BITMAP
00000180
00000380
000003C0
000003C0
00000380
00000380
007F0780
01FFFF00
07FFFC00
0FE1FC00
1F007C00
1E003E00
3C001F00
3C000F00
78000F80
78000780
78000780
70000780
70000780
F0000780
F0000780
F0000780
70000780
78000780
78000780
78000780
78000F00
3C000F00
3E001F00
1E003E00
1F807C00
0FE1F800
07FFF000
01FFE000
007F0000
ENDCHAR
STARTCHAR 01A1
ENCODING 417
SWIDTH 540 0
DWIDTH 24 0
BBX 21 29 2 0
BITMAP
000018
000038
000038
000038
000038
000038
000078
01F8F0
07FFC0
0FFF80
1F0FC0
3C03C0
7801E0
7801E0
7000F0
F000F0
F000F0
F000F0
F000F0
F000F0
F000F0
F000F0
7801E0
7801E0
3C03C0
1F0FC0
1FFF80
07FE00
01F800
ENDCHAR
STARTCHAR 01AF
ENCODING 431
SWIDTH 652 0
DWIDTH 29 0
BBX 26 36 4 1
BITMAP
00000180
000003C0
000001C0
000001C0
000001C0
00000380
00000780
F0007F00
F0007800
F0007800
F0007800
F0007800
F0007800
F0007800
F0007800
F0007800
F0007800
F0007800
F0007800
F0007800
F0007800
F0007800
F0007800
F0007800
F0007800
F0007800
F0007800
F0007000
F0007000
7800F000
7800F000
3C01E000
3F8FC000
1FFFC000
0FFF0000
01FC0000
ENDCHAR
STARTCHAR 01B0
ENCODING 432
SWIDTH 540 0
DWIDTH 24 0
BBX 22 30 3 0
BITMAP
000008
000038
00003C
00001C
00001C
00003C
000038
000070
F003E0
F003C0
F003C0
F003C0
F003C0
F003C0
F003C0
F003C0
F003C0
F003C0
F003C0
F003C0
F003C0
F003C0
F003C0
F003C0
7807C0
780FC0
7C3FC0
3FFBC0
1FF3C0
0FC3C0
ENDCHAR
STARTCHAR 01C2
ENCODING 450
SWIDTH 292 0
DWIDTH 13 0
BBX 12 45 0 -11
BITMAP
0700
0700
0700
0700
0700
0700
0700
0700
0700
0700
0700
0700
0700
0700
0700
0700
0700
FFF0
FFF0
0700
0700
0700
0700
0700
0700
FFF0
FFF0
0700
0700
0700
0700
0700
0700
0700
0700
0700
0700
0700
0700
0700
0700
0700
0700
0700
0700
ENDCHAR
STARTCHAR 01CD
ENCODING 461
SWIDTH 540 0
DWIDTH 24 0
BBX 24 37 0 0
BITMAP
0300C0
0381C0
01C380
00E700
007E00
003C00
000000
000000
003C00
007E00
007E00
007E00
00F700
00E700
00E700
01E780
01C380
01C380
03C3C0
0381C0
0381C0
0781E0
0700E0
0700E0
0F00F0
0FFFF0
0FFFF0
1FFFF8
1E0078
1C0038
3C003C
3C003C
38001E
78001E
78001E
70000F
F0000F
ENDCHAR
STARTCHAR 01CE
ENCODING 462
SWIDTH 495 0
DWIDTH 22 0
BBX 17 33 2 0
BITMAP
180300
1C0700
0E0E00
071E00
07BC00
03F800
01F000
00F000
000000
000000
000000
03F800
0FFE00
3FFF00
3C1F00
300780
000780
000780
000380
000780
01FF80
07FF80
1F0380
3C0380
780380
700380
F00380
F00780
F00F80
783F80
7FFB80
3FE380
0F8380
ENDCHAR
STARTCHAR 01CF
ENCODING 463
SWIDTH 270 0
DWIDTH 12 0
BBX 12 37 0 0
BITMAP
C030
E070
70E0
3BC0
3F80
1F00
0000
0000
0F00
0F00
0F00
0F00
0F00
0F00
0F00
0F00
0F00
0F00
0F00
0F00
0F00
0F00
0F00
0F00
0F00
0F00
0F00
0F00
0F00
0F00
0F00
0F00
0F00
0F00
0F00
0F00
0F00
ENDCHAR
STARTCHAR 01D0
ENCODING 464
SWIDTH 247 0
DWIDTH 11 0
BBX 13 33 -1 0
BITMAP
C018
E038
7070
38E0
1FC0
1FC0
0F80
0000
0000
0000
0000
0700
0700
0700
0700
0700
0700
0700
0700
0700
0700
0700
0700
0700
0700
0700
0700
0700
0700
0700
0700
0700
0700
ENDCHAR
STARTCHAR 01D1
ENCODING 465
SWIDTH 675 0
DWIDTH 30 0
BBX 25 37 2 0
BITMAP
01006000
01C0E000
01E1C000
00F78000
007F0000
003E0000
00000000
00000000
007F0000
01FFE000
07FFF000
0FE1F800
1F007C00
1E003E00
3C001F00
3C000F00
78000F00
78000780
78000780
70000780
F0000780
F0000780
F0000780
F0000780
F0000780
70000780
78000780
78000780
78000F00
3C000F00
3C001E00
1E003E00
1F807C00
0FE1F800
07FFF000
01FFE000
007F0000
ENDCHAR
STARTCHAR 01D2
ENCODING 466
SWIDTH 540 0
DWIDTH 24 0
BBX 20 33 2 0
BITMAP
0C0300
0E0380
0F0700
078E00
039C00
01F800
01F800
00F000
000000
000000
000000
01F800
07FE00
0FFF80
1F0FC0
3C03C0
7801E0
7801E0
7000F0
F000F0
F000F0
F000F0
F000F0
F000F0
F000F0
F000F0
7801E0
7801E0
3C03C0
1F0FC0
1FFF80
07FE00
01F800
ENDCHAR
STARTCHAR 01D3
ENCODING 467
SWIDTH 652 0
DWIDTH 29 0
BBX 21 37 4 0
BITMAP
0C0100
0E0700
078F00
03DE00
01FC00
00F800
000000
000000
F00078
F00078
F00078
F00078
F00078
F00078
F00078
F00078
F00078
F00078
F00078
F00078
F00078
F00078
F00078
F00078
F00078
F00078
F00078
F00078
F00070
F00070
7800F0
7800F0
3C01E0
3F8FC0
1FFFC0
0FFF00
01FC00
ENDCHAR
STARTCHAR 01D4
ENCODING 468
SWIDTH 540 0
DWIDTH 24 0
BBX 18 33 3 0
BITMAP
180600
1C0F00
1E1E00
0F3C00
07F800
03F000
01E000
000000
000000
000000
000000
F003C0
F003C0
F003C0
F003C0
F003C0
F003C0
F003C0
F003C0
F003C0
F003C0
F003C0
F003C0
F003C0
F003C0
F003C0
F003C0
7807C0
780FC0
7C3FC0
3FFBC0
1FF3C0
0FC3C0
ENDCHAR
STARTCHAR 01D5
ENCODING 469
SWIDTH 652 0
DWIDTH 29 0
BBX 21 40 4 0
BITMAP
0FFF00
0FFF00
000000
000000
0E0300
0F0780
0F0780
0E0700
000000
000000
000000
F00078
F00078
F00078
F00078
F00078
F00078
F00078
F00078
F00078
F00078
F00078
F00078
F00078
F00078
F00078
F00078
F00078
F00078
F00078
F00078
F00070
F00070
7800F0
7800F0
3C01E0
3F8FC0
1FFFC0
0FFF00
01FC00
ENDCHAR
STARTCHAR 01D6
ENCODING 470
SWIDTH 540 0
DWIDTH 24 0
BBX 18 36 3 0
BITMAP
1FFE00
1FFE00
000000
000000
000000
0C0E00
1E1E00
1E1E00
1C0E00
000000
000000
000000
000000
000000
F003C0
F003C0
F003C0
F003C0
F003C0
F003C0
F003C0
F003C0
F003C0
F003C0
F003C0
F003C0
F003C0
F003C0
F003C0
F003C0
7807C0
780FC0
7C3FC0
3FFBC0
1FF3C0
0FC3C0
ENDCHAR
STARTCHAR 01D7
ENCODING 471
SWIDTH 652 0
DWIDTH 29 0
BBX 21 43 4 0
BITMAP
000C00
000E00
001C00
003800
007000
006000
000000
0E0300
0F0780
0F0780
0E0700
000000
000000
000000
F00078
F00078
F00078
F00078
F00078
F00078
F00078
F00078
F00078
F00078
F00078
F00078
F00078
F00078
F00078
F00078
F00078
F00078
F00078
F00078
F00070
F00070
7800F0
7800F0
3C01E0
3F8FC0
1FFFC0
0FFF00
01FC00
ENDCHAR
STARTCHAR 01D8
ENCODING 472
SWIDTH 540 0
DWIDTH 24 0
BBX 18 38 3 0
BITMAP
003000
003800
007000
00E000
01C000
008000
000000
0C0E00
1E1E00
1E1E00
1C0E00
000000
000000
000000
000000
000000
F003C0
F003C0
F003C0
F003C0
F003C0
F003C0
F003C0
F003C0
F003C0
F003C0
F003C0
F003C0
F003C0
F003C0
F003C0
F003C0
7807C0
780FC0
7C3FC0
3FFBC0
1FF3C0
0FC3C0
ENDCHAR
STARTCHAR 01D9
ENCODING 473
SWIDTH 652 0
DWIDTH 29 0
BBX 21 42 4 0
BITMAP
060300
070F00
03DE00
01F800
00F000
000000
0E0300
0F0780
0F0780
0E0700
000000
000000
000000
F00078
F00078
F00078
F00078
F00078
F00078
F00078
F00078
F00078
F00078
F00078
F00078
F00078
F00078
F00078
F00078
F00078
F00078
F00078
F00078
F00070
F00070
7800F0
7800F0
3C01E0
3F8FC0
1FFFC0
0FFF00
01FC00
ENDCHAR
STARTCHAR 01DA
ENCODING 474
SWIDTH 540 0
DWIDTH 24 0
BBX 18 37 3 0
BITMAP
0C0C00
0E1C00
073800
03F000
01E000
000000
0C0E00
1E1E00
1E1E00
1C0E00
000000
000000
000000
000000
000000
F003C0
F003C0
F003C0
F003C0
F003C0
F003C0
F003C0
F003C0
F003C0
F003C0
F003C0
F003C0
F003C0
F003C0
F003C0
F003C0
7807C0
780FC0
7C3FC0
3FFBC0
1FF3C0
0FC3C0
ENDCHAR
STARTCHAR 01DB
ENCODING 475
SWIDTH 652 0
DWIDTH 29 0
BBX 21 43 4 0
BITMAP
010000
038000
01C000
00E000
007000
002000
000000
0E0300
0F0780
0F0780
0E0700
000000
000000
000000
F00078
F00078
F00078
F00078
F00078
F00078
F00078
F00078
F00078
F00078
F00078
F00078
F00078
F00078
F00078
F00078
F00078
F00078
F00078
F00078
F00070
F00070
7800F0
7800F0
3C01E0
3F8FC0
1FFFC0
0FFF00
01FC00
ENDCHAR
STARTCHAR 01DC
ENCODING 476
SWIDTH 540 0
DWIDTH 24 0
BBX 18 38 3 0
BITMAP
030000
078000
038000
01C000
00E000
004000
000000
0C0E00
1E1E00
1E1E00
1C0E00
000000
000000
000000
000000
000000
F003C0
F003C0
F003C0
F003C0
F003C0
F003C0
F003C0
F003C0
F003C0
F003C0
F003C0
F003C0
F003C0
F003C0
F003C0
F003C0
7807C0
780FC0
7C3FC0
3FFBC0
1FF3C0
0FC3C0
ENDCHAR
STARTCHAR 01E2
ENCODING 482
SWIDTH 832 0
DWIDTH 37 0
BBX 33 36 1 0
BITMAP
00003FFC00
00003FFC00
00003FFC00
0000000000
0000000000
0000000000
0000000000
0003FFFF80
0003FFFF80
0007FFFF80
0007780000
000F780000
000E780000
001E780000
001C780000
003C780000
0038780000
0078780000
0070780000
00F07FFE00
00E07FFE00
01E07FFE00
03C0780000
03C0780000
0780780000
07FFF80000
0FFFF80000
0FFFF80000
1E00780000
1E00780000
3C00780000
3C00780000
7800780000
78007FFF80
F0007FFF80
F0007FFF80
ENDCHAR
STARTCHAR 01E3
ENCODING 483
SWIDTH 787 0
DWIDTH 35 0
BBX 30 29 3 0
BITMAP
007FF800
007FF800
007FF800
00000000
00000000
00000000
00000000
03E01F80
1FF83FE0
7FFCFFF0
783CE0F8
600FC038
000F803C
000F801C
0007001C
001F001C
03FF001C
0FFFFFFC
3F07FFFC
78070000
F0070000
E0078000
E0078000
E007C000
F00FE000
F83DF038
7FF8FFF8
7FE07FF0
1F801FC0
ENDCHAR
STARTCHAR 01E6
ENCODING 486
SWIDTH 607 0
DWIDTH 27 0
BBX 22 37 2 0
BITMAP
008030
00E070
00F0E0
007BC0
003F80
001F00
000000
000000
003F80
01FFF0
03FFF8
07E0FC
0F8038
1E0000
3E0000
3C0000
780000
780000
780000
700000
F00000
F00000
F007FC
F007FC
F007FC
70001C
78001C
78001C
78001C
3C001C
3E001C
1E001C
1F801C
0FE0FC
07FFF8
01FFF0
003F80
ENDCHAR
STARTCHAR 01E7
ENCODING 487
SWIDTH 495 0
DWIDTH 22 0
BBX 20 43 2 -10
BITMAP
0C0300
1E0700
0F0F00
079E00
03FC00
01F800
00F000
000000
000000
000000
000000
03FFF0
0FFFF0
1FFFF0
3C0F00
780700
780780
700780
700780
700780
780780
780700
3C0F00
1FFE00
1FFC00
3BF000
380000
700000
700000
7C0000
3FFF00
1FFFC0
3FFFE0
7801F0
7000F0
E000F0
E000F0
E000E0
F001E0
7C07C0
3FFF80
1FFE00
00C000
ENDCHAR
STARTCHAR 01EA
ENCODING 490
SWIDTH 675 0
DWIDTH 30 0
BBX 25 38 2 -9
BITMAP
007F0000
01FFE000
07FFF000
0FE1F800
1F007C00
1E003E00
3C001F00
3C000F00
78000F00
78000780
78000780
70000780
F0000780
F0000780
F0000780
F0000780
F0000780
70000780
78000780
78000780
78000F00
3C000F00
3C001E00
1E003E00
1F007C00
0FE1F800
07FFF000
01FFE000
007F8000
000E0000
001C0000
00180000
00380000
00380000
00380000
003F8000
001F8000
000F0000
ENDCHAR
STARTCHAR 01EB
ENCODING 491
SWIDTH 540 0
DWIDTH 24 0
BBX 20 31 2 -9
BITMAP
01F800
07FE00
0FFF80
1F0FC0
3C03C0
7801E0
7801E0
7000F0
F000F0
F000F0
F000F0
F000F0
F000F0
F000F0
F000F0
7801E0
7801E0
3C03C0
3F07C0
1FFF80
07FE00
01F800
007000
00E000
00C000
01C000
01C000
01C000
01FC00
00FC00
007800
ENDCHAR
STARTCHAR 01F4
ENCODING 500
SWIDTH 607 0
DWIDTH 27 0
BBX 22 38 2 0
BITMAP
000040
0000E0
0001F0
0003C0
000780
000F00
000E00
000000
000000
003F80
01FFF0
03FFF8
07E0FC
0F8038
1E0000
3E0000
3C0000
780000
780000
780000
700000
F00000
F00000
F007FC
F007FC
F007FC
70001C
78001C
78001C
78001C
3C001C
3E001C
1E001C
1F801C
0FE0FC
07FFF8
01FFF0
003F80
ENDCHAR
STARTCHAR 01F5
ENCODING 501
SWIDTH 495 0
DWIDTH 22 0
BBX 20 45 2 -10
BITMAP
000400
000E00
001F00
001E00
003C00
007800
00F000
00E000
004000
000000
000000
000000
000000
03FFF0
0FFFF0
1FFFF0
3C0F00
780700
780780
700780
700780
700780
780780
780700
3C0F00
1FFE00
1FFC00
3BF000
380000
700000
700000
7C0000
3FFF00
1FFFC0
3FFFE0
7801F0
7000F0
E000F0
E000F0
E000E0
F001E0
7C07C0
3FFF80
1FFE00
00C000
ENDCHAR
STARTCHAR 01F8
ENCODING 504
SWIDTH 652 0
DWIDTH 29 0
BBX 21 38 4 0
BITMAP
030000
078000
07C000
03E000
00F000
007800
003000
000000
000000
F00078
F80078
F80078
FC0078
FC0078
EE0078
EF0078
E70078
E78078
E38078
E3C078
E1C078
F1E078
F0F078
F0F078
F07878
F03878
F03C78
F01E78
F01E78
F00F78
F00738
F007B8
F003B8
F003F8
F001F8
F001F8
F000F8
F00078
ENDCHAR
STARTCHAR 01F9
ENCODING 505
SWIDTH 540 0
DWIDTH 24 0
BBX 17 35 4 0
BITMAP
040000
1E0000
1E0000
0F0000
078000
03C000
01E000
00E000
004000
000000
000000
000000
000000
E0F800
E3FE00
EFFF00
FE1F00
FC0F80
F00780
E00780
E00780
E00780
E00780
E00780
E00780
E00780
E00780
E00780
E00780
E00780
E00780
E00780
E00780
E00780
E00780
ENDCHAR
STARTCHAR 01FC
ENCODING 508
SWIDTH 832 0
DWIDTH 37 0
BBX 33 38 1 1
BITMAP
0000001800
0000007C00
000000F800
000001F000
000003C000
0000038000
0000010000
0000000000
0000000000
0003FFFF80
0003FFFF80
0007FFFF80
0007780000
000F780000
000E780000
001E780000
001C780000
003C780000
0038780000
0078780000
0070780000
00F07FFE00
00E07FFE00
01E07FFE00
03C0780000
03C0780000
0780780000
07FFF80000
0FFFF80000
0FFFF80000
1E00780000
1E00780000
3C00780000
3C00780000
7800780000
78007FFF80
F0007FFF80
F0007FFF80
ENDCHAR
STARTCHAR 01FD
ENCODING 509
SWIDTH 787 0
DWIDTH 35 0
BBX 30 34 3 1
BITMAP
00003000
00007800
00007800
0000F000
0001E000
0003C000
00078000
00030000
00000000
00000000
00000000
00000000
03E01F80
1FF83FE0
7FFCFFF0
783CE0F8
600FC038
000F803C
000F801C
0007001C
001F001C
03FF001C
0FFFFFFC
3F07FFFC
78070000
F0070000
E0078000
E0078000
E007C000
F00FE000
F83DF038
7FF8FFF8
7FE07FF0
1F801FC0
ENDCHAR
STARTCHAR 0218
ENCODING 536
SWIDTH 540 0
DWIDTH 24 0
BBX 20 39 2 -10
BITMAP
01FC00
07FF00
0FFFC0
1F07E0
3C01C0
380000
780000
780000
780000
3C0000
3E0000
1F8000
0FE000
07FC00
01FF00
007F80
000FC0
0003E0
0001F0
0000F0
0000F0
0000F0
0000F0
7000F0
F801E0
7F0FC0
3FFF80
0FFF00
03FC00
000000
000000
00E000
00F800
003800
001C00
001800
007800
03F000
038000
ENDCHAR
STARTCHAR 0219
ENCODING 537
SWIDTH 427 0
DWIDTH 19 0
BBX 15 32 2 -10
BITMAP
07E0
1FF8
3FFC
781C
7008
F000
F000
7800
7C00
3F80
1FE0
07F8
00FC
003E
001E
000E
000E
C01E
F03C
FFFC
7FF8
0FE0
0000
0000
0380
07E0
00E0
00E0
00E0
01E0
0FC0
0C00
ENDCHAR
STARTCHAR 021A
ENCODING 538
SWIDTH 540 0
DWIDTH 24 0
BBX 22 39 1 -10
BITMAP
FFFFFC
FFFFFC
FFFFFC
007800
007800
007800
007800
007800
007800
007800
007800
007800
007800
007800
007800
007800
007800
007800
007800
007800
007800
007800
007800
007800
007800
007800
007800
007800
007800
000000
000000
004000
007800
003C00
001C00
001C00
001C00
01F800
01E000
ENDCHAR
STARTCHAR 021B
ENCODING 539
SWIDTH 337 0
DWIDTH 15 0
BBX 13 38 1 -10
BITMAP
0E00
0E00
0E00
0E00
0E00
1E00
FFF8
FFF8
FFF8
1E00
1E00
1E00
1E00
1E00
1E00
1E00
1E00
1E00
1E00
1E00
1E00
1E00
1E00
0E00
0F00
0FF8
07F8
01F0
0000
0000
0380
03E0
00F0
0070
0070
01E0
0FC0
0600
ENDCHAR
STARTCHAR 0237
ENCODING 567
SWIDTH 247 0
DWIDTH 11 0
BBX 9 31 -2 -9
BITMAP
0380
0380
0380
0380
0380
0380
0380
0380
0380
0380
0380
0380
0380
0380
0380
0380
0380
0380
0380
0380
0380
0380
0380
0380
0380
0380
0780
0780
7F00
FF00
FC00
ENDCHAR
STARTCHAR 0243
ENCODING 579
SWIDTH 607 0
DWIDTH 27 0
BBX 24 29 1 0
BITMAP
0FFF80
0FFFE0
0FFFF8
0E00FC
0E003C
0E001C
0E001C
0E001C
0E001C
0E003C
0E0038
0E00F0
0FFFC0
0FFFE0
0E07F8
0E003C
0E001E
0E000F
0E000F
FFFC0F
FFFC0F
0E000F
0E000F
0E000F
0E001E
0E007C
0FFFF8
0FFFF0
0FFF80
ENDCHAR
STARTCHAR 0250
ENCODING 592
SWIDTH 517 0
DWIDTH 23 0
BBX 17 22 3 0
BITMAP
007C00
E3FF00
F7FF80
FF0F80
FC0780
F80380
F00380
F00780
F00780
F01F00
F07E00
FFF800
FFE000
FC0000
F00000
700000
780000
780300
3E0F80
3FFF80
1FFE00
03F000
ENDCHAR
STARTCHAR 0251
ENCODING 593
SWIDTH 562 0
DWIDTH 25 0
BBX 19 22 2 0
BITMAP
01F000
07FCE0
1FFFE0
1F0FE0
3C03E0
7801E0
7801E0
7001E0
F001E0
F001E0
F001E0
F001E0
F001E0
F001E0
F001E0
7801E0
7801E0
7C03E0
3F0FE0
1FFEE0
0FFCE0
03F000
ENDCHAR
STARTCHAR 0252
ENCODING 594
SWIDTH 562 0
DWIDTH 25 0
BBX 19 22 4 0
BITMAP
01F800
E7FE00
EFFF00
FE1F80
F80780
F003C0
E003C0
E003C0
E001C0
E001E0
E001E0
E001E0
E001C0
E003C0
E003C0
E003C0
E00780
F00F80
FC1F00
FFFE00
E7FC00
01F000
ENDCHAR
STARTCHAR 0253
ENCODING 595
SWIDTH 562 0
DWIDTH 25 0
BBX 19 32 4 0
BITMAP
0FC000
3FE000
7FC000
780000
F00000
F00000
E00000
E00000
E00000
E00000
E1F800
E7FE00
EFFF00
FE1F80
F80780
F003C0
E003C0
E003C0
E001C0
E001E0
E001E0
E001E0
E001C0
E003C0
E003C0
E003C0
E00780
F00F80
FC1F00
FFFE00
E7FC00
E1F000
ENDCHAR
STARTCHAR 0254
ENCODING 596
SWIDTH 450 0
DWIDTH 20 0
BBX 17 22 1 0
BITMAP
0FE000
3FF800
7FFC00
787E00
201F00
000F00
000F80
000780
000780
000780
000780
000780
000780
000780
000780
000F00
000F00
601F00
707E00
FFFC00
3FF000
0FC000
ENDCHAR
STARTCHAR 0255
ENCODING 597
SWIDTH 450 0
DWIDTH 20 0
BBX 17 24 2 -3
BITMAP
01FC00
07FF00
0FFF80
1F0700
3C0000
780000
780000
700000
F00000
F00000
F00000
F00000
F01800
F0FF00
F1FF80
7BC380
7F0380
3E0380
1F0780
3FFF00
3FFE00
79FC00
700000
700000
ENDCHAR
STARTCHAR 0256
ENCODING 598
SWIDTH 562 0
DWIDTH 25 0
BBX 23 40 2 -8
BITMAP
0001E0
0001E0
0001E0
0001E0
0001E0
0001E0
0001E0
0001E0
0001E0
0001E0
01F1E0
07FDE0
1FFFE0
1F0FE0
3C03E0
7801E0
7801E0
7001E0
F001E0
F001E0
F001E0
F001E0
F001E0
F001E0
F001E0
7801E0
7801E0
7C03E0
3F0FE0
1FFFE0
0FFDE0
03F1E0
0001E0
0001E0
0001E0
0000E0
0000F0
0000FE
00007E
00003E
ENDCHAR
STARTCHAR 0257
ENCODING 599
SWIDTH 562 0
DWIDTH 25 0
BBX 24 32 2 0
BITMAP
00003F
00007E
0000FE
0000F0
0000E0
0000E0
0001E0
0001E0
0001E0
0001E0
01F1E0
07FDE0
1FFFE0
1F0FE0
3C03E0
7801E0
7801E0
7001E0
F001E0
F001E0
F001E0
F001E0
F001E0
F001E0
F001E0
7801E0
7801E0
7C03E0
3F0FE0
1FFEE0
0FFCE0
03F0E0
ENDCHAR
STARTCHAR 0258
ENCODING 600
SWIDTH 495 0
DWIDTH 22 0
BBX 18 22 2 0
BITMAP
03F000
0FFC00
3FFE00
3C1F00
780F00
F00780
E00380
E003C0
E003C0
FFFFC0
FFFFC0
FFFFC0
0003C0
0003C0
0003C0
000380
000780
000F00
703F00
7FFE00
3FF800
0FE000
ENDCHAR
STARTCHAR 0259
ENCODING 601
SWIDTH 495 0
DWIDTH 22 0
BBX 18 22 2 0
BITMAP
07F000
3FFC00
7FFE00
381F00
200F00
000780
000380
0003C0
0003C0
0003C0
FFFFC0
FFFFC0
FFFFC0
E003C0
E003C0
E00380
F00780
700F00
7C1F00
3FFE00
1FFC00
07F000
ENDCHAR
STARTCHAR 025A
ENCODING 602
SWIDTH 652 0
DWIDTH 29 0
BBX 27 22 2 0
BITMAP
07F00000
3FFC0000
7FFE0000
381F0000
200F0000
0007BE00
0003FE00
0007F600
001FC700
00FFC7E0
07F1C3E0
1FC1C000
FE01C000
F803C000
E003C000
E0038000
70078000
78070000
3C1F0000
1FFE0000
0FFC0000
03F00000
ENDCHAR
STARTCHAR 025B
ENCODING 603
SWIDTH 450 0
DWIDTH 20 0
BBX 17 22 2 0
BITMAP
03F800
0FFE00
1FFF00
3E0E00
3C0000
780000
780000
380000
3C0000
1FF000
07F000
1FF000
3C0000
780000
F00000
F00000
F00000
780000
7C0700
3FFF80
1FFE00
07F800
ENDCHAR
STARTCHAR 025C
ENCODING 604
SWIDTH 450 0
DWIDTH 20 0
BBX 16 22 2 0
BITMAP
0FE0
3FF8
7FFC
703C
001E
001E
001E
001E
003C
0FF8
0FE0
0FFC
003E
000F
000F
000F
000F
400F
F03E
FFFC
7FF8
0FE0
ENDCHAR
STARTCHAR 025E
ENCODING 606
SWIDTH 540 0
DWIDTH 24 0
BBX 20 22 2 0
BITMAP
03F800
0FFE00
1FFF80
3E0FC0
3C03E0
7801E0
7800F0
3800F0
3C00F0
1FE0F0
07E0F0
1FE0F0
3C00F0
7800F0
F000F0
F000F0
F001E0
7803E0
7C07C0
3FFF80
1FFE00
03F800
ENDCHAR
STARTCHAR 025F
ENCODING 607
SWIDTH 270 0
DWIDTH 12 0
BBX 13 31 -1 -9
BITMAP
0780
0780
0780
0780
0780
0780
0780
0780
0780
7FF8
7FF8
0780
0780
0780
0780
0780
0780
0780
0780
0780
0780
0780
0780
0780
0780
0780
0780
0F00
FF00
FE00
FC00
ENDCHAR
STARTCHAR 0260
ENCODING 608
SWIDTH 562 0
DWIDTH 25 0
BBX 24 37 2 -9
BITMAP
00001F
00007F
00007E
0000F0
0000F0
0000E0
01F0E0
07FCE0
0FFFE0
1F07E0
3C03E0
7801E0
7801E0
7001E0
F001E0
F001E0
F001E0
F001E0
F001E0
F001E0
7801E0
7801E0
3C03E0
3F0FE0
1FFFE0
0FFDE0
03F1E0
0001E0
0001E0
0001E0
0001E0
0001E0
1003C0
3C0FC0
3FFF80
1FFF00
03F800
ENDCHAR
STARTCHAR 0261
ENCODING 609
SWIDTH 562 0
DWIDTH 25 0
BBX 19 31 2 -9
BITMAP
01F0E0
07FCE0
0FFFE0
1F07E0
3C03E0
7801E0
7801E0
7001E0
F001E0
F001E0
F001E0
F001E0
F001E0
F001E0
7801E0
7801E0
3C03E0
3F0FE0
1FFFE0
0FFDE0
03F1E0
0001E0
0001E0
0001E0
0001E0
0001E0
1003C0
3C0FC0
3FFF80
1FFF00
03F800
ENDCHAR
STARTCHAR 0262
ENCODING 610
SWIDTH 495 0
DWIDTH 22 0
BBX 18 22 2 0
BITMAP
01FC00
07FF00
0FFF80
1F0380
3C0100
780000
780000
700000
F00000
F00000
F03FC0
F03FC0
F03FC0
F001C0
7001C0
7801C0
7801C0
3C01C0
3F03C0
1FFFC0
07FF00
01FC00
ENDCHAR
STARTCHAR 0263
ENCODING 611
SWIDTH 472 0
DWIDTH 21 0
BBX 19 32 1 -10
BITMAP
E000E0
F001E0
F001C0
7001C0
7803C0
780380
380780
3C0780
1C0700
1E0F00
1E0E00
0E0E00
0F1E00
071C00
071C00
07B800
03B800
03F800
01F000
01F000
01F000
03F800
03B800
07BC00
071C00
071C00
071C00
071C00
071C00
07FC00
03F800
01F000
ENDCHAR
STARTCHAR 0264
ENCODING 612
SWIDTH 517 0
DWIDTH 23 0
BBX 21 22 1 0
BITMAP
7C01F0
FF07F8
FF8FF0
07DF00
03FC00
01F800
01FC00
03FE00
079E00
070F00
0F0780
1E0380
1E03C0
1C03C0
1C01C0
1C01C0
1E03C0
1E03C0
1F0780
0FFF80
07FF00
01FC00
ENDCHAR
STARTCHAR 0265
ENCODING 613
SWIDTH 540 0
DWIDTH 24 0
BBX 18 31 3 -9
BITMAP
F003C0
F003C0
F003C0
F003C0
F003C0
F003C0
F003C0
F003C0
F003C0
F003C0
F003C0
F003C0
F003C0
F003C0
F003C0
F003C0
7807C0
780FC0
7C3FC0
3FFBC0
1FF3C0
0FC3C0
0003C0
0003C0
0003C0
0003C0
0003C0
0003C0
0003C0
0003C0
0003C0
ENDCHAR
STARTCHAR 0266
ENCODING 614
SWIDTH 540 0
DWIDTH 24 0
BBX 17 32 4 0
BITMAP
0FC000
3FE000
7FC000
780000
F00000
F00000
E00000
E00000
E00000
E00000
E0F800
E3FE00
EFFF00
FE1F00
FC0F00
F00780
E00780
E00780
E00780
E00780
E00780
E00780
E00780
E00780
E00780
E00780
E00780
E00780
E00780
E00780
E00780
E00780
ENDCHAR
STARTCHAR 0267
ENCODING 615
SWIDTH 540 0
DWIDTH 24 0
BBX 17 40 4 -8
BITMAP
0FC000
3FE000
7FC000
780000
F00000
F00000
E00000
E00000
E00000
E00000
E0F800
E3FE00
EFFF00
FE1F00
FC0F00
F00780
E00780
E00780
E00780
E00780
E00780
E00780
E00780
E00780
E00780
E00780
E00780
E00780
E00780
E00780
E00780
E00780
000780
000780
000780
000780
000F00
00FF00
00FE00
00FC00
ENDCHAR
STARTCHAR 0268
ENCODING 616
SWIDTH 270 0
DWIDTH 12 0
BBX 12 31 0 0
BITMAP
0700
0F00
0F80
0F00
0600
0000
0000
0000
0000
0F00
0F00
0F00
0F00
0F00
0F00
0F00
0F00
0F00
FFF0
FFF0
0F00
0F00
0F00
0F00
0F00
0F00
0F00
0F00
0F00
0F00
0F00
ENDCHAR
STARTCHAR 026A
ENCODING 618
SWIDTH 337 0
DWIDTH 15 0
BBX 11 22 2 0
BITMAP
FFE0
FFE0
FFE0
0E00
0E00
0E00
0E00
0E00
0E00
0E00
0E00
0E00
0E00
0E00
0E00
0E00
0E00
0E00
0E00
FFE0
FFE0
FFE0
ENDCHAR
STARTCHAR 026C
ENCODING 620
SWIDTH 292 0
DWIDTH 13 0
BBX 13 32 0 0
BITMAP
0380
0380
0380
0380
0380
0380
0380
0380
0380
0380
7B80
FF80
C780
C380
E380
7FF8
3FF8
0380
0380
0380
0380
0380
0380
0380
0380
0380
0380
0380
03C0
03E0
01F0
00F0
ENDCHAR
STARTCHAR 026D
ENCODING 621
SWIDTH 247 0
DWIDTH 11 0
BBX 8 40 4 -8
BITMAP
E0
E0
E0
E0
E0
E0
E0
E0
E0
E0
E0
E0
E0
E0
E0
E0
E0
E0
E0
E0
E0
E0
E0
E0
E0
E0
E0
E0
E0
E0
E0
E0
E0
E0
E0
F0
F0
FE
7F
3F
ENDCHAR
STARTCHAR 026E
ENCODING 622
SWIDTH 585 0
DWIDTH 26 0
BBX 21 41 4 -9
BITMAP
E00000
E00000
E00000
E00000
E00000
E00000
E00000
E00000
E00000
E00000
FFFFF0
FFFFF0
FFFFE0
E001E0
E003C0
E00380
E00700
E00F00
E01E00
E01C00
E03800
E07800
E0F000
E0FF00
E1FFC0
E0FFE0
E001F0
E000F0
E000F0
E00078
E00078
000078
000078
000078
000070
0800F0
0C01F0
1F03E0
0FFFC0
07FF80
00FE00
ENDCHAR
STARTCHAR 026F
ENCODING 623
SWIDTH 832 0
DWIDTH 37 0
BBX 30 22 3 0
BITMAP
F007801C
F007801C
F007801C
F007801C
F007801C
F007801C
F007801C
F007801C
F007801C
F007801C
F007801C
F007801C
F007801C
F007801C
F007801C
7007801C
7807C03C
781FC07C
7C3FE1FC
3FF1FFDC
1FE0FF1C
0F807C00
ENDCHAR
STARTCHAR 0270
ENCODING 624
SWIDTH 832 0
DWIDTH 37 0
BBX 30 31 3 -9
BITMAP
F007801C
F007801C
F007801C
F007801C
F007801C
F007801C
F007801C
F007801C
F007801C
F007801C
F007801C
F007801C
F007801C
F007801C
F007801C
7007801C
7807C03C
781FC07C
7C3FE1FC
3FF1FFDC
1FE0FF1C
0F807C1C
0000001C
0000001C
0000001C
0000001C
0000001C
0000001C
0000001C
0000001C
0000001C
ENDCHAR
STARTCHAR 0271
ENCODING 625
SWIDTH 832 0
DWIDTH 37 0
BBX 29 30 4 -8
BITMAP
E1F807C0
E3FC1FE0
EFFE7FF0
FE1FF0F8
F80FC078
F00F8078
E0070038
E0070038
E0070038
E0070038
E0070038
E0070038
E0070038
E0070038
E0070038
E0070038
E0070038
E0070038
E0070038
E0070038
E0070038
E0070038
00000038
00000038
00000038
00000038
00000078
000007F8
000007F0
000007C0
ENDCHAR
STARTCHAR 0272
ENCODING 626
SWIDTH 540 0
DWIDTH 24 0
BBX 22 30 -1 -8
BITMAP
0007C0
071FF0
077FF8
07F0F8
07C07C
07803C
07003C
07003C
07003C
07003C
07003C
07003C
07003C
07003C
07003C
07003C
07003C
07003C
07003C
07003C
07003C
07003C
070000
070000
070000
0F0000
0F0000
7E0000
FE0000
F80000
ENDCHAR
STARTCHAR 0273
ENCODING 627
SWIDTH 540 0
DWIDTH 24 0
BBX 21 30 4 -8
BITMAP
00F800
E3FE00
EFFF00
FE1F00
F80F80
F00780
E00780
E00780
E00780
E00780
E00780
E00780
E00780
E00780
E00780
E00780
E00780
E00780
E00780
E00780
E00780
E00780
000780
000780
000780
000780
0003C0
0003F8
0001F8
0000F8
ENDCHAR
STARTCHAR 0274
ENCODING 628
SWIDTH 540 0
DWIDTH 24 0
BBX 16 22 4 0
BITMAP
E007
F007
F807
F807
FC07
FC07
EE07
EF07
E707
E787
E387
E1C7
E1E7
E0E7
E0F7
E077
E03F
E03F
E01F
E00F
E00F
E007
ENDCHAR
STARTCHAR 0275
ENCODING 629
SWIDTH 540 0
DWIDTH 24 0
BBX 20 22 2 0
BITMAP
01F800
07FE00
1FFF80
3E07C0
3C03C0
7801E0
7000E0
7000F0
F000F0
FFFFF0
FFFFF0
FFFFF0
F00070
F000F0
F000F0
7000E0
7801E0
3C03C0
3E07C0
1FFF80
07FE00
01F800
ENDCHAR
STARTCHAR 0276
ENCODING 630
SWIDTH 697 0
DWIDTH 31 0
BBX 28 22 2 -1
BITMAP
01FFFFF0
07FFFFF0
0FFFFFF0
1F03C000
3C03C000
7803C000
7803C000
F003C000
F003C000
F003FFC0
F003FFC0
F003FFC0
F003C000
F003C000
7003C000
7803C000
7C03C000
3E03C000
1F03C000
0FFFFFF0
07FFFFF0
01FFFFF0
ENDCHAR
STARTCHAR 0278
ENCODING 632
SWIDTH 675 0
DWIDTH 30 0
BBX 26 41 2 -9
BITMAP
001E0000
001E0000
001E0000
001E0000
001E0000
001E0000
001E0000
001E0000
001E0000
001E0000
00FFC000
03FFF800
0FFFFC00
1F1E3E00
3E1E0F00
7C1E0780
781E0780
701E03C0
F01E03C0
F01E03C0
F01E03C0
F01E03C0
F01E03C0
F01E03C0
781E03C0
781E0780
7C1E0780
3E1E0F00
1F1E3E00
0FFFFC00
03FFF000
00FFC000
001E0000
001E0000
001E0000
001E0000
001E0000
001E0000
001E0000
001E0000
001E0000
ENDCHAR
STARTCHAR 0279
ENCODING 633
SWIDTH 337 0
DWIDTH 15 0
BBX 12 22 0 0
BITMAP
00F0
00F0
00F0
00F0
00F0
00F0
00F0
00F0
00F0
00F0
00F0
00F0
00F0
00F0
00F0
01F0
01F0
03F0
0F70
FE70
FC70
F000
ENDCHAR
STARTCHAR 027A
ENCODING 634
SWIDTH 337 0
DWIDTH 15 0
BBX 12 32 0 0
BITMAP
00F0
00F0
00F0
00F0
00F0
00F0
00F0
00F0
00F0
00F0
00F0
00F0
00F0
00F0
00F0
00F0
00F0
00F0
00F0
00F0
00F0
00F0
00F0
00F0
00F0
01F0
01F0
03F0
0F70
FE70
FC70
F000
ENDCHAR
STARTCHAR 027B
ENCODING 635
SWIDTH 337 0
DWIDTH 15 0
BBX 16 30 0 -8
BITMAP
00F0
00F0
00F0
00F0
00F0
00F0
00F0
00F0
00F0
00F0
00F0
00F0
00F0
00F0
00F0
01F0
01F0
03F0
0FF0
FEF0
FCF0
F0F0
00F0
00F0
0070
0070
0078
007F
003F
001F
ENDCHAR
STARTCHAR 027D
ENCODING 637
SWIDTH 337 0
DWIDTH 15 0
BBX 11 30 4 -8
BITMAP
E1E0
E3E0
EFE0
EF20
FC00
F800
F000
F000
E000
E000
E000
E000
E000
E000
E000
E000
E000
E000
E000
E000
E000
E000
E000
E000
E000
F000
F000
FE00
7F00
3F00
ENDCHAR
STARTCHAR 027E
ENCODING 638
SWIDTH 337 0
DWIDTH 15 0
BBX 11 22 4 0
BITMAP
0FE0
3FE0
7FE0
7C00
F800
F000
F000
E000
E000
E000
E000
E000
E000
E000
E000
E000
E000
E000
E000
E000
E000
E000
ENDCHAR
STARTCHAR 0280
ENCODING 640
SWIDTH 495 0
DWIDTH 22 0
BBX 17 22 4 0
BITMAP
FFE000
FFF800
FFFC00
E03E00
E01E00
E00E00
E00E00
E00E00
E01E00
E03E00
FFFC00
FFF800
FFE000
E0E000
E0F000
E07800
E07800
E03C00
E01E00
E01E00
E00F00
E00F80
ENDCHAR
STARTCHAR 0281
ENCODING 641
SWIDTH 495 0
DWIDTH 22 0
BBX 16 21 2 0
BITMAP
F007
7807
7807
3C07
1E07
1E07
0F07
0707
07FF
1FFF
3FFF
7C07
7807
7007
7007
7007
7807
7C07
3FFF
1FFF
07FF
ENDCHAR
STARTCHAR 0282
ENCODING 642
SWIDTH 427 0
DWIDTH 19 0
BBX 16 30 1 -8
BITMAP
03F0
0FFC
1FFE
3C0E
3804
7800
7800
3C00
3E00
1FC0
0FF0
03FC
007E
001F
000F
0007
0007
200F
781E
FFFE
FFFC
F7F0
F000
F000
F000
7000
7800
7F80
3F80
1F80
ENDCHAR
STARTCHAR 0283
ENCODING 643
SWIDTH 247 0
DWIDTH 11 0
BBX 15 41 -2 -9
BITMAP
007E
00FE
01FC
03E0
03C0
0380
0380
0380
0380
0380
0380
0380
0380
0380
0380
0380
0380
0380
0380
0380
0380
0380
0380
0380
0380
0380
0380
0380
0380
0380
0380
0380
0380
0380
0380
0380
0780
0780
7F00
FF00
FC00
ENDCHAR
STARTCHAR 0284
ENCODING 644
SWIDTH 270 0
DWIDTH 12 0
BBX 14 41 -1 -9
BITMAP
007C
01FC
03FC
03C0
0780
0780
0780
0780
0780
0780
0780
0780
0780
0780
0780
0780
0780
0780
0780
0780
7FF8
7FF8
0780
0780
0780
0780
0780
0780
0780
0780
0780
0780
0780
0780
0780
0780
0780
0F00
FF00
FE00
FC00
ENDCHAR
STARTCHAR 0288
ENCODING 648
SWIDTH 337 0
DWIDTH 15 0
BBX 13 36 1 -8
BITMAP
0E00
0E00
0E00
0E00
0E00
1E00
FFF8
FFF8
FFF8
1E00
1E00
1E00
1E00
1E00
1E00
1E00
1E00
1E00
1E00
1E00
1E00
1E00
1E00
1E00
1E00
1E00
1E00
1E00
1E00
1E00
1E00
0F00
0F00
0FF8
07F8
01F0
ENDCHAR
STARTCHAR 0289
ENCODING 649
SWIDTH 585 0
DWIDTH 26 0
BBX 25 22 0 0
BITMAP
0F003800
0F003800
0F003800
0F003800
0F003800
0F003800
0F003800
0F003800
FFFFFF80
FFFFFF80
0F003800
0F003800
0F003800
0F003800
0F003800
0F003800
0F007800
0780F800
07C3F800
03FFB800
03FE3800
00F83800
ENDCHAR
STARTCHAR 028A
ENCODING 650
SWIDTH 540 0
DWIDTH 24 0
BBX 20 22 2 0
BITMAP
FF0FF0
FF0FF0
FF0FF0
0E0780
1C0380
3801C0
3801E0
7000E0
7000E0
F000F0
F000F0
F000F0
F000F0
F000F0
F000F0
7801E0
7801E0
3C03C0
3F0FC0
1FFF80
07FE00
01F800
ENDCHAR
STARTCHAR 028B
ENCODING 651
SWIDTH 540 0
DWIDTH 24 0
BBX 18 22 3 0
BITMAP
F07C00
F07F00
F03F80
F00780
F003C0
F003C0
F003C0
F003C0
F001C0
F001C0
F001C0
F003C0
F003C0
F003C0
F003C0
700780
780780
780F00
3E1F00
3FFE00
0FFC00
07F000
ENDCHAR
STARTCHAR 028C
ENCODING 652
SWIDTH 472 0
DWIDTH 21 0
BBX 19 22 1 0
BITMAP
01F000
01F000
03F000
03B800
03B800
073800
073C00
071C00
0E1E00
0E1E00
1E0E00
1C0F00
1C0F00
3C0700
380780
380780
780380
7003C0
7003C0
F001C0
E001E0
E001E0
ENDCHAR
STARTCHAR 028D
ENCODING 653
SWIDTH 720 0
DWIDTH 32 0
BBX 30 22 1 0
BITMAP
03C01F00
07E01F00
07E01F80
07E01B80
07703B80
0F703B80
0E703BC0
0E7031C0
0E7871C0
1E3871C0
1C3871E0
1C3861E0
1C1CE0E0
3C1CE0F0
381CE0F0
381CC0F0
380FC070
780FC078
700FC078
700F8078
F0078038
F007803C
ENDCHAR
STARTCHAR 028E
ENCODING 654
SWIDTH 472 0
DWIDTH 21 0
BBX 19 32 1 0
BITMAP
0003E0
000FC0
001FC0
003E00
007800
007800
007000
00F000
00E000
01E000
01E000
01E000
03E000
03F000
03F000
077800
073800
073800
0E3C00
0E1C00
0E1E00
1E1E00
1C0E00
1C0F00
3C0700
380780
380780
780380
7003C0
F003C0
F001E0
E001E0
ENDCHAR
STARTCHAR 028F
ENCODING 655
SWIDTH 405 0
DWIDTH 18 0
BBX 18 22 0 0
BITMAP
F001C0
7003C0
780380
380780
3C0700
1C0F00
1E0E00
0E1E00
0F1C00
073C00
07B800
03F800
03F000
01F000
01E000
01E000
01E000
01E000
01E000
01E000
01E000
01E000
ENDCHAR
STARTCHAR 0290
ENCODING 656
SWIDTH 427 0
DWIDTH 19 0
BBX 21 30 1 -8
BITMAP
3FFF00
3FFF00
3FFF00
001E00
001E00
003C00
007800
007800
00F000
01E000
01E000
03C000
078000
078000
0F0000
1E0000
1E0000
3C0000
780000
7FFF00
FFFF00
FFFF00
000700
000700
000700
000780
000780
0007F0
0003F8
0000F8
ENDCHAR
STARTCHAR 0291
ENCODING 657
SWIDTH 450 0
DWIDTH 20 0
BBX 20 26 1 -4
BITMAP
3FFF00
3FFF00
3FFF00
001E00
001C00
003C00
007800
007000
00F000
01E000
01C000
03C000
078000
0707C0
0F0FE0
1E1C60
1C3870
3C3070
7870E0
7FFFE0
FFFFC0
FFFF00
00C000
00C000
00C000
004000
ENDCHAR
STARTCHAR 0292
ENCODING 658
SWIDTH 427 0
DWIDTH 19 0
BBX 18 31 0 -9
BITMAP
3FFF80
3FFF80
3FFF80
000F00
000E00
001C00
003C00
007800
007000
00E000
01E000
03C000
038000
07F800
0FFE00
07FF00
000F80
000780
0003C0
0003C0
0003C0
0003C0
0003C0
0003C0
0003C0
000780
700F80
FC1F00
7FFE00
1FFC00
07F000
ENDCHAR
STARTCHAR 0294
ENCODING 660
SWIDTH 427 0
DWIDTH 19 0
BBX 18 32 0 0
BITMAP
07F000
1FFC00
7FFE00
FC1F00
F00F80
600780
000380
0003C0
0003C0
0003C0
000380
000780
000780
000F00
001F00
003E00
007C00
01F800
03E000
03C000
03C000
03C000
03C000
03C000
03C000
03C000
03C000
03C000
03C000
03C000
03C000
03C000
ENDCHAR
STARTCHAR 0295
ENCODING 661
SWIDTH 450 0
DWIDTH 20 0
BBX 18 32 1 0
BITMAP
03F800
0FFE00
1FFF80
3E07C0
7C03C0
780180
700000
F00000
F00000
F00000
700000
780000
780000
3C0000
3E0000
1F0000
0FC000
07E000
01F000
00F000
00F000
00F000
00F000
00F000
00F000
00F000
00F000
00F000
00F000
00F000
00F000
00F000
ENDCHAR
STARTCHAR 0298
ENCODING 664
SWIDTH 517 0
DWIDTH 23 0
BBX 18 32 3 0
BITMAP
03E000
0FF800
1FFC00
3E3E00
3C0F00
780F00
780700
700780
F00780
F00380
E00380
E00380
E003C0
E003C0
E1C3C0
E1E3C0
E1E3C0
E1C3C0
E003C0
E003C0
E00380
E00380
F00380
F00380
700780
780700
780F00
3C0F00
3E1E00
1FFC00
0FF800
03E000
ENDCHAR
STARTCHAR 0299
ENCODING 665
SWIDTH 517 0
DWIDTH 23 0
BBX 17 22 4 0
BITMAP
FFF000
FFFC00
FFFE00
E01F00
E00F00
E00F00
E00F00
E00F00
E01E00
FFFC00
FFF000
FFFE00
E01F00
E00F00
E00780
E00780
E00780
E00780
E00F00
FFFF00
FFFC00
FFF000
ENDCHAR
STARTCHAR 029C
ENCODING 668
SWIDTH 562 0
DWIDTH 25 0
BBX 17 22 4 0
BITMAP
E00380
E00380
E00380
E00380
E00380
E00380
E00380
E00380
E00380
FFFF80
FFFF80
FFFF80
E00380
E00380
E00380
E00380
E00380
E00380
E00380
E00380
E00380
E00380
ENDCHAR
STARTCHAR 029D
ENCODING 669
SWIDTH 292 0
DWIDTH 13 0
BBX 17 42 -4 -12
BITMAP
003000
007800
007C00
007C00
003800
000000
000000
000000
000000
007800
007800
007800
007800
007800
007800
007800
007800
007800
007800
007800
007800
007800
007800
007800
007800
007800
007800
007800
007800
007800
007800
1F7800
7FF800
7FF800
E0F800
E07C00
F0FE00
7FEE00
3FCF00
1F8780
000380
000380
ENDCHAR
STARTCHAR 029F
ENCODING 671
SWIDTH 405 0
DWIDTH 18 0
BBX 13 22 4 0
BITMAP
E000
E000
E000
E000
E000
E000
E000
E000
E000
E000
E000
E000
E000
E000
E000
E000
E000
E000
E000
FFF8
FFF8
FFF8
ENDCHAR
STARTCHAR 02A1
ENCODING 673
SWIDTH 450 0
DWIDTH 20 0
BBX 19 32 0 0
BITMAP
03F800
0FFE00
3FFF00
7C0F80
700780
2003C0
0003C0
0003C0
0001C0
0001C0
0003C0
0003C0
000380
000780
000F00
001E00
003C00
00F800
FFFFE0
FFFFE0
FFFFE0
01E000
01E000
01E000
01E000
01E000
01E000
01E000
01E000
01E000
01E000
01E000
ENDCHAR
STARTCHAR 02A2
ENCODING 674
SWIDTH 450 0
DWIDTH 20 0
BBX 18 32 1 0
BITMAP
03F800
0FFE00
1FFF80
3E0FC0
7C03C0
780180
700000
F00000
F00000
F00000
700000
780000
780000
3C0000
3E0000
1F0000
0F8000
03C000
FFFFC0
FFFFC0
FFFFC0
00F000
00F000
00F000
00F000
00F000
00F000
00F000
00F000
00F000
00F000
00F000
ENDCHAR
STARTCHAR 02B0
ENCODING 688
SWIDTH 360 0
DWIDTH 16 0
BBX 12 21 2 17
BITMAP
E000
E000
E000
E000
E000
E000
E3C0
EFE0
FCF0
F070
E070
E070
E070
E070
E070
E070
E070
E070
E070
E070
E070
ENDCHAR
STARTCHAR 02B2
ENCODING 690
SWIDTH 180 0
DWIDTH 8 0
BBX 7 27 -1 11
BITMAP
0C
1E
1E
00
00
00
1C
1C
1C
1C
1C
1C
1C
1C
1C
1C
1C
1C
1C
1C
1C
1C
1C
1C
9C
F8
F0
ENDCHAR
STARTCHAR 02B3
ENCODING 691
SWIDTH 247 0
DWIDTH 11 0
BBX 9 15 2 17
BITMAP
E780
EF00
FF00
F800
F000
E000
E000
E000
E000
E000
E000
E000
E000
E000
E000
ENDCHAR
STARTCHAR 02B7
ENCODING 695
SWIDTH 495 0
DWIDTH 22 0
BBX 20 14 1 18
BITMAP
E0E070
E0F070
E0F060
60F0E0
71B0E0
71B8C0
7198C0
3199C0
3B19C0
3B1D80
1B0D80
1B0D80
1E0F80
1E0F00
ENDCHAR
STARTCHAR 02B8
ENCODING 696
SWIDTH 315 0
DWIDTH 14 0
BBX 13 20 1 12
BITMAP
C038
E030
E070
6070
7060
30E0
38E0
38C0
19C0
1D80
0D80
0D80
0F00
0700
0700
0600
0E00
1C00
FC00
F800
ENDCHAR
STARTCHAR 02B9
ENCODING 697
SWIDTH 247 0
DWIDTH 11 0
BBX 4 11 4 20
BITMAP
70
70
F0
F0
F0
E0
E0
E0
E0
C0
C0
ENDCHAR
STARTCHAR 02BB
ENCODING 699
SWIDTH 247 0
DWIDTH 11 0
BBX 5 11 3 20
BITMAP
38
70
60
E0
C0
C0
E0
F0
F8
F8
70
ENDCHAR
STARTCHAR 02BC
ENCODING 700
SWIDTH 247 0
DWIDTH 11 0
BBX 6 11 3 19
BITMAP
70
78
F8
7C
3C
18
18
18
30
70
E0
ENDCHAR
STARTCHAR 02BE
ENCODING 702
SWIDTH 157 0
DWIDTH 7 0
BBX 6 9 1 24
BITMAP
E0
F8
18
1C
0C
1C
18
F0
C0
ENDCHAR
STARTCHAR 02BF
ENCODING 703
SWIDTH 157 0
DWIDTH 7 0
BBX 5 9 1 24
BITMAP
38
78
C0
C0
C0
C0
E0
78
08
ENDCHAR
STARTCHAR 02C1
ENCODING 705
SWIDTH 292 0
DWIDTH 13 0
BBX 12 21 1 18
BITMAP
0F80
3FE0
78F0
F020
E000
E000
E000
E000
7000
7800
3C00
1E00
0F00
0700
0700
0700
0700
0700
0700
0700
0700
ENDCHAR
STARTCHAR 02C6
ENCODING 710
SWIDTH 540 0
DWIDTH 24 0
BBX 14 8 5 25
BITMAP
0780
0FC0
1FE0
3CF0
3878
7038
E01C
0008
ENDCHAR
STARTCHAR 02C7
ENCODING 711
SWIDTH 540 0
DWIDTH 24 0
BBX 14 8 5 25
BITMAP
4008
E01C
7038
3870
1CE0
1FE0
0FC0
0780
ENDCHAR
STARTCHAR 02C8
ENCODING 712
SWIDTH 112 0
DWIDTH 5 0
BBX 3 9 1 24
BITMAP
E0
E0
E0
E0
E0
E0
E0
E0
E0
ENDCHAR
STARTCHAR 02C9
ENCODING 713
SWIDTH 270 0
DWIDTH 12 0
BBX 12 3 0 26
BITMAP
FFF0
FFF0
FFF0
ENDCHAR
STARTCHAR 02CA
ENCODING 714
SWIDTH 225 0
DWIDTH 10 0
BBX 8 9 3 26
BITMAP
04
0E
0F
1E
3C
78
F0
E0
40
ENDCHAR
STARTCHAR 02CB
ENCODING 715
SWIDTH 225 0
DWIDTH 10 0
BBX 8 9 -1 26
BITMAP
20
60
F0
78
3C
1E
0F
07
02
ENDCHAR
STARTCHAR 02CC
ENCODING 716
SWIDTH 112 0
DWIDTH 5 0
BBX 3 9 1 -12
BITMAP
E0
E0
E0
E0
E0
E0
E0
E0
E0
ENDCHAR
STARTCHAR 02D0
ENCODING 720
SWIDTH 247 0
DWIDTH 11 0
BBX 7 21 2 0
BITMAP
FE
7C
7C
38
38
10
00
00
00
00
00
00
00
00
00
10
38
38
7C
7C
FE
ENDCHAR
STARTCHAR 02D1
ENCODING 721
SWIDTH 247 0
DWIDTH 11 0
BBX 7 6 2 12
BITMAP
FE
7C
7C
38
38
10
ENDCHAR
STARTCHAR 02D8
ENCODING 728
SWIDTH 540 0
DWIDTH 24 0
BBX 14 6 5 27
BITMAP
E01C
E01C
7038
7878
3FF0
1FE0
ENDCHAR
STARTCHAR 02D9
ENCODING 729
SWIDTH 540 0
DWIDTH 24 0
BBX 4 5 10 26
BITMAP
60
F0
F0
F0
E0
ENDCHAR
STARTCHAR 02DA
ENCODING 730
SWIDTH 540 0
DWIDTH 24 0
BBX 10 10 7 24
BITMAP
0C00
3F00
7380
E1C0
E0C0
E0C0
E1C0
7180
3F00
0C00
ENDCHAR
STARTCHAR 02DB
ENCODING 731
SWIDTH 540 0
DWIDTH 24 0
BBX 7 9 9 -9
BITMAP
38
30
60
E0
E0
E0
FE
7E
3C
ENDCHAR
STARTCHAR 02DC
ENCODING 732
SWIDTH 540 0
DWIDTH 24 0
BBX 16 7 4 25
BITMAP
1E07
3F07
7F87
61CE
61FE
E0FC
0030
ENDCHAR
STARTCHAR 02DD
ENCODING 733
SWIDTH 540 0
DWIDTH 24 0
BBX 13 9 8 25
BITMAP
1820
1C38
3870
3870
70E0
70C0
E1C0
C180
0080
ENDCHAR
STARTCHAR 02DE
ENCODING 734
SWIDTH 157 0
DWIDTH 7 0
BBX 11 8 -4 10
BITMAP
0400
1C00
7E00
FE00
E600
0720
03E0
01E0
ENDCHAR
STARTCHAR 02E0
ENCODING 736
SWIDTH 315 0
DWIDTH 14 0
BBX 14 21 0 11
BITMAP
E01C
7018
7038
3030
3830
3870
1860
1C60
0CE0
0CC0
0FC0
0780
0780
0780
07C0
0CC0
0CE0
0CE0
0CE0
0FC0
0780
ENDCHAR
STARTCHAR 02E1
ENCODING 737
SWIDTH 180 0
DWIDTH 8 0
BBX 5 21 2 17
BITMAP
E0
E0
E0
E0
E0
E0
E0
E0
E0
E0
E0
E0
E0
E0
E0
E0
E0
E0
E0
78
78
ENDCHAR
STARTCHAR 02E2
ENCODING 738
SWIDTH 292 0
DWIDTH 13 0
BBX 11 15 1 17
BITMAP
1F00
3FC0
71C0
6000
6000
7000
3E00
1F80
07C0
01E0
00E0
40E0
F1C0
FFC0
1F00
ENDCHAR
STARTCHAR 02E3
ENCODING 739
SWIDTH 315 0
DWIDTH 14 0
BBX 12 14 1 18
BITMAP
E070
70E0
70C0
39C0
1D80
1F80
0F00
0F00
1F00
3B80
39C0
71C0
E0E0
E070
ENDCHAR
STARTCHAR 0300
ENCODING 768
SWIDTH 0 0
DWIDTH 0 0
BBX 8 9 -6 26
BITMAP
20
60
F0
78
3C
1E
0F
07
02
ENDCHAR
STARTCHAR 0301
ENCODING 769
SWIDTH 0 0
DWIDTH 0 0
BBX 8 9 -2 26
BITMAP
04
0E
0F
1E
3C
78
F0
E0
40
ENDCHAR
STARTCHAR 0302
ENCODING 770
SWIDTH 0 0
DWIDTH 0 0
BBX 14 8 -7 25
BITMAP
0780
0FC0
1FE0
3CF0
3870
7038
E01C
4008
ENDCHAR
STARTCHAR 0303
ENCODING 771
SWIDTH 0 0
DWIDTH 0 0
BBX 16 7 -8 25
BITMAP
1E07
3F07
7F86
63CE
61FE
E0FC
0030
ENDCHAR
STARTCHAR 0304
ENCODING 772
SWIDTH 0 0
DWIDTH 0 0
BBX 12 3 -6 26
BITMAP
FFF0
FFF0
FFF0
ENDCHAR
STARTCHAR 0305
ENCODING 773
SWIDTH 0 0
DWIDTH 0 0
BBX 12 3 -6 26
BITMAP
FFF0
FFF0
FFF0
ENDCHAR
STARTCHAR 0306
ENCODING 774
SWIDTH 0 0
DWIDTH 0 0
BBX 14 6 -7 27
BITMAP
E01C
E01C
7038
7878
3FF0
1FE0
ENDCHAR
STARTCHAR 0307
ENCODING 775
SWIDTH 0 0
DWIDTH 0 0
BBX 4 5 -2 26
BITMAP
60
F0
F0
F0
E0
ENDCHAR
STARTCHAR 0308
ENCODING 776
SWIDTH 0 0
DWIDTH 0 0
BBX 12 4 -6 26
BITMAP
F0F0
F0F0
F0F0
E070
ENDCHAR
STARTCHAR 0309
ENCODING 777
SWIDTH 0 0
DWIDTH 0 0
BBX 7 8 -3 26
BITMAP
F0
F8
7C
1E
0E
1C
7C
70
ENDCHAR
STARTCHAR 030A
ENCODING 778
SWIDTH 0 0
DWIDTH 0 0
BBX 10 10 -5 24
BITMAP
0C00
3F00
7380
E1C0
C1C0
E0C0
E1C0
7180
3F00
0C00
ENDCHAR
STARTCHAR 030B
ENCODING 779
SWIDTH 0 0
DWIDTH 0 0
BBX 13 8 -4 25
BITMAP
1820
1C78
3870
38E0
70E0
71C0
E1C0
C380
ENDCHAR
STARTCHAR 030C
ENCODING 780
SWIDTH 0 0
DWIDTH 0 0
BBX 14 8 -7 25
BITMAP
4008
E01C
7038
3870
1CE0
1FE0
0FC0
0780
ENDCHAR
STARTCHAR 030F
ENCODING 783
SWIDTH 0 0
DWIDTH 0 0
BBX 13 9 -9 25
BITMAP
20C0
F1C0
70E0
78E0
3870
1C70
1C38
0E18
0800
ENDCHAR
STARTCHAR 0311
ENCODING 785
SWIDTH 0 0
DWIDTH 0 0
BBX 14 6 -7 25
BITMAP
1FE0
3FF0
7878
7038
E01C
E01C
ENDCHAR
STARTCHAR 0312
ENCODING 786
SWIDTH 0 0
DWIDTH 0 0
BBX 4 8 -2 26
BITMAP
30
60
C0
C0
E0
F0
F0
60
ENDCHAR
STARTCHAR 0313
ENCODING 787
SWIDTH 0 0
DWIDTH 0 0
BBX 4 8 -2 25
BITMAP
60
F0
F0
70
30
30
60
C0
ENDCHAR
STARTCHAR 0318
ENCODING 792
SWIDTH 0 0
DWIDTH 0 0
BBX 7 8 -3 -11
BITMAP
06
06
06
FE
FE
06
06
06
ENDCHAR
STARTCHAR 0319
ENCODING 793
SWIDTH 0 0
DWIDTH 0 0
BBX 7 8 -4 -11
BITMAP
C0
C0
C0
FE
FE
C0
C0
C0
ENDCHAR
STARTCHAR 031A
ENCODING 794
SWIDTH 0 0
DWIDTH 0 0
BBX 7 6 -3 26
BITMAP
FE
FE
06
06
06
06
ENDCHAR
STARTCHAR 031B
ENCODING 795
SWIDTH 0 0
DWIDTH 0 0
BBX 7 9 0 20
BITMAP
0C
1C
1E
1E
1E
1C
3C
F8
E0
ENDCHAR
STARTCHAR 031C
ENCODING 796
SWIDTH 0 0
DWIDTH 0 0
BBX 5 9 -3 -12
BITMAP
38
78
E0
C0
C0
C0
60
78
08
ENDCHAR
STARTCHAR 031D
ENCODING 797
SWIDTH 0 0
DWIDTH 0 0
BBX 8 7 -4 -9
BITMAP
18
18
18
18
18
FF
FF
ENDCHAR
STARTCHAR 031E
ENCODING 798
SWIDTH 0 0
DWIDTH 0 0
BBX 8 7 -4 -11
BITMAP
FF
FF
18
18
18
18
18
ENDCHAR
STARTCHAR 031F
ENCODING 799
SWIDTH 0 0
DWIDTH 0 0
BBX 8 8 -4 -11
BITMAP
18
18
18
FF
FF
18
18
18
ENDCHAR
STARTCHAR 0320
ENCODING 800
SWIDTH 0 0
DWIDTH 0 0
BBX 8 2 -4 -8
BITMAP
FF
FF
ENDCHAR
STARTCHAR 0323
ENCODING 803
SWIDTH 0 0
DWIDTH 0 0
BBX 4 5 -2 -9
BITMAP
60
F0
F0
F0
E0
ENDCHAR
STARTCHAR 0324
ENCODING 804
SWIDTH 0 0
DWIDTH 0 0
BBX 12 4 -6 -9
BITMAP
F0F0
F0F0
F0F0
E070
ENDCHAR
STARTCHAR 0325
ENCODING 805
SWIDTH 0 0
DWIDTH 0 0
BBX 10 9 -5 -11
BITMAP
0C00
3F00
6180
E1C0
C0C0
E1C0
6180
7F80
1E00
ENDCHAR
STARTCHAR 0326
ENCODING 806
SWIDTH 0 0
DWIDTH 0 0
BBX 7 8 -4 -10
BITMAP
20
3C
1E
06
06
0E
FC
F0
ENDCHAR
STARTCHAR 0327
ENCODING 807
SWIDTH 0 0
DWIDTH 0 0
BBX 7 10 -4 -10
BITMAP
18
38
30
7C
1E
06
06
0E
FC
F0
ENDCHAR
STARTCHAR 0328
ENCODING 808
SWIDTH 0 0
DWIDTH 0 0
BBX 7 9 -3 -9
BITMAP
38
70
60
E0
E0
E0
F6
7E
3C
ENDCHAR
STARTCHAR 0329
ENCODING 809
SWIDTH 0 0
DWIDTH 0 0
BBX 4 9 -2 -12
BITMAP
60
60
60
60
60
60
70
F0
F0
ENDCHAR
STARTCHAR 032A
ENCODING 810
SWIDTH 0 0
DWIDTH 0 0
BBX 10 6 -5 -10
BITMAP
FFC0
FFC0
C0C0
C0C0
C0C0
C0C0
ENDCHAR
STARTCHAR 032C
ENCODING 812
SWIDTH 0 0
DWIDTH 0 0
BBX 14 8 -7 -10
BITMAP
4000
E01C
7038
7870
3CF0
1FE0
0FC0
0780
ENDCHAR
STARTCHAR 032E
ENCODING 814
SWIDTH 0 0
DWIDTH 0 0
BBX 14 6 -7 -9
BITMAP
E01C
E01C
7038
7878
3FF0
1FE0
ENDCHAR
STARTCHAR 032F
ENCODING 815
SWIDTH 0 0
DWIDTH 0 0
BBX 14 6 -7 -11
BITMAP
1FE0
3FF0
7878
7038
E01C
E01C
ENDCHAR
STARTCHAR 0330
ENCODING 816
SWIDTH 0 0
DWIDTH 0 0
BBX 16 7 -8 -10
BITMAP
0C00
3F07
7F87
73C6
61FE
E0FC
2078
ENDCHAR
STARTCHAR 0331
ENCODING 817
SWIDTH 0 0
DWIDTH 0 0
BBX 12 3 -6 -8
BITMAP
FFF0
FFF0
FFF0
ENDCHAR
STARTCHAR 0334
ENCODING 820
SWIDTH 0 0
DWIDTH 0 0
BBX 16 7 -8 8
BITMAP
0C00
3F07
7F87
73CE
61FE
E0FC
2030
ENDCHAR
STARTCHAR 0339
ENCODING 825
SWIDTH 0 0
DWIDTH 0 0
BBX 5 9 -2 -12
BITMAP
E0
F0
38
18
18
18
30
F0
80
ENDCHAR
STARTCHAR 033A
ENCODING 826
SWIDTH 0 0
DWIDTH 0 0
BBX 10 6 -5 -10
BITMAP
C0C0
C0C0
C0C0
C0C0
FFC0
FFC0
ENDCHAR
STARTCHAR 033B
ENCODING 827
SWIDTH 0 0
DWIDTH 0 0
BBX 10 8 -5 -11
BITMAP
FFC0
FFC0
C0C0
C0C0
C0C0
C0C0
FFC0
FFC0
ENDCHAR
STARTCHAR 033C
ENCODING 828
SWIDTH 0 0
DWIDTH 0 0
BBX 14 6 -7 -10
BITMAP
7CF8
FFFC
E79C
C30C
C30C
C30C
ENDCHAR
STARTCHAR 033D
ENCODING 829
SWIDTH 0 0
DWIDTH 0 0
BBX 8 7 -4 24
BITMAP
42
E7
7E
3C
3C
7E
66
ENDCHAR
STARTCHAR 0342
ENCODING 834
SWIDTH 0 0
DWIDTH 0 0
BBX 16 7 -8 25
BITMAP
1E07
3F07
7F86
63CE
61FE
E0FC
0030
ENDCHAR
STARTCHAR 0345
ENCODING 837
SWIDTH 0 0
DWIDTH 0 0
BBX 5 6 -1 -9
BITMAP
C0
C0
C0
E8
F8
78
ENDCHAR
STARTCHAR 0361
ENCODING 865
SWIDTH 0 0
DWIDTH 0 0
BBX 40 7 -20 24
BITMAP
0003FFC000
007FFFFE00
03FFFFFFC0
0FE00007F0
3F000000FC
F80000001F
E000000007
ENDCHAR
STARTCHAR 0374
ENCODING 884
SWIDTH 247 0
DWIDTH 11 0
BBX 4 11 4 20
BITMAP
70
70
F0
F0
F0
E0
E0
E0
E0
C0
C0
ENDCHAR
STARTCHAR 0375
ENCODING 885
SWIDTH 247 0
DWIDTH 11 0
BBX 4 11 3 0
BITMAP
30
30
70
70
70
70
70
F0
F0
F0
E0
ENDCHAR
STARTCHAR 037A
ENCODING 890
SWIDTH 540 0
DWIDTH 24 0
BBX 5 6 11 -9
BITMAP
E0
E0
E0
F8
F8
78
ENDCHAR
STARTCHAR 037E
ENCODING 894
SWIDTH 247 0
DWIDTH 11 0
BBX 7 28 2 -8
BITMAP
38
7C
7C
7C
7C
10
00
00
00
00
00
00
00
00
00
00
3C
7C
7E
7E
3E
0E
0E
1C
1C
38
F0
60
ENDCHAR
STARTCHAR 0384
ENCODING 900
SWIDTH 540 0
DWIDTH 24 0
BBX 5 9 11 25
BITMAP
78
78
70
70
F0
E0
E0
E0
C0
ENDCHAR
STARTCHAR 0385
ENCODING 901
SWIDTH 540 0
DWIDTH 24 0
BBX 14 9 5 25
BITMAP
01C0
01C0
01C0
0180
739C
F39C
F31C
6318
0300
ENDCHAR
STARTCHAR 0386
ENCODING 902
SWIDTH 562 0
DWIDTH 25 0
BBX 25 29 0 0
BITMAP
781E0000
783F0000
703F0000
703F0000
707F8000
60738000
E0738000
E0F3C000
00E1C000
00E1C000
01E1E000
01C0E000
01C0E000
03C0F000
03807000
03807000
07807800
07FFF800
07FFF800
0FFFFC00
0F003C00
0E001C00
1E001E00
1E001E00
1C000E00
3C000F00
3C000F00
38000780
78000780
ENDCHAR
STARTCHAR 0387
ENCODING 903
SWIDTH 247 0
DWIDTH 11 0
BBX 5 6 3 15
BITMAP
70
F8
F8
F8
F8
20
ENDCHAR
STARTCHAR 0388
ENCODING 904
SWIDTH 585 0
DWIDTH 26 0
BBX 25 29 -1 0
BITMAP
78FFFF80
70FFFF80
70FFFF80
70F00000
70F00000
60F00000
E0F00000
E0F00000
00F00000
00F00000
00F00000
00F00000
00FFFE00
00FFFE00
00FFFE00
00F00000
00F00000
00F00000
00F00000
00F00000
00F00000
00F00000
00F00000
00F00000
00F00000
00F00000
00FFFF80
00FFFF80
00FFFF80
ENDCHAR
STARTCHAR 0389
ENCODING 905
SWIDTH 720 0
DWIDTH 32 0
BBX 29 29 -1 0
BITMAP
78F00078
70F00078
70F00078
70F00078
70F00078
60F00078
E0F00078
E0F00078
00F00078
00F00078
00F00078
00F00078
00FFFFF8
00FFFFF8
00FFFFF8
00F00078
00F00078
00F00078
00F00078
00F00078
00F00078
00F00078
00F00078
00F00078
00F00078
00F00078
00F00078
00F00078
00F00078
ENDCHAR
STARTCHAR 038A
ENCODING 906
SWIDTH 337 0
DWIDTH 15 0
BBX 12 29 -1 0
BITMAP
78F0
70F0
70F0
70F0
70F0
60F0
E0F0
E0F0
00F0
00F0
00F0
00F0
00F0
00F0
00F0
00F0
00F0
00F0
00F0
00F0
00F0
00F0
00F0
00F0
00F0
00F0
00F0
00F0
00F0
ENDCHAR
STARTCHAR 038C
ENCODING 908
SWIDTH 720 0
DWIDTH 32 0
BBX 30 29 -1 0
BITMAP
7803FC00
700FFF00
703FFF80
707F0FE0
70F803E0
60F001F0
E1E000F8
E1E00078
63C00078
03C0003C
03C0003C
0380003C
0380003C
0780003C
0780003C
0780003C
0380003C
03C0003C
03C0003C
03C0003C
03C00078
01E00078
01F000F8
00F001F0
00FC03E0
007F0FC0
003FFF80
000FFF00
0003F800
ENDCHAR
STARTCHAR 038E
ENCODING 910
SWIDTH 607 0
DWIDTH 27 0
BBX 27 29 -1 0
BITMAP
79E000E0
71E001E0
70F001C0
70F003C0
70780380
60780780
E0380780
E03C0F00
001C0F00
001E0E00
000E1E00
000F1C00
00073C00
0007B800
0003F800
0003F000
0001F000
0001E000
0001E000
0001E000
0001E000
0001E000
0001E000
0001E000
0001E000
0001E000
0001E000
0001E000
0001E000
ENDCHAR
STARTCHAR 038F
ENCODING 911
SWIDTH 720 0
DWIDTH 32 0
BBX 31 29 -1 0
BITMAP
7801FC00
700FFF00
701FFFC0
703F0FE0
607C01F0
E0F800F0
E1F00078
E1E00078
01E0003C
03C0003C
03C0003C
03C0001E
03C0001E
03C0001E
03C0001E
03C0001E
03C0001C
03C0001C
03C0003C
01C0003C
01E00038
00E00078
00F00070
007800E0
003C01E0
001E03C0
07FE07FE
07FE07FE
07FE07FE
ENDCHAR
STARTCHAR 0390
ENCODING 912
SWIDTH 270 0
DWIDTH 12 0
BBX 13 35 -1 0
BITMAP
0180
0380
0380
0380
4310
E338
E738
E638
0600
0000
0000
0000
0000
0700
0700
0700
0700
0700
0700
0700
0700
0700
0700
0700
0700
0700
0700
0700
0700
0700
0700
0700
07E0
07E0
01E0
ENDCHAR
STARTCHAR 0391
ENCODING 913
SWIDTH 540 0
DWIDTH 24 0
BBX 24 29 0 0
BITMAP
003C00
007E00
007E00
007E00
00F700
00E700
00E700
01E780
01C380
01C380
03C3C0
0381C0
0381C0
0781E0
0700E0
0700E0
0F00F0
0FFFF0
0FFFF0
1FFFF8
1E0078
1C0038
3C003C
3C003C
38001E
78001E
78001E
70000F
F0000F
ENDCHAR
STARTCHAR 0392
ENCODING 914
SWIDTH 585 0
DWIDTH 26 0
BBX 20 29 4 0
BITMAP
FFF800
FFFF00
FFFF80
F00FC0
F003C0
F001E0
F001E0
F001E0
F001E0
F001C0
F003C0
F00F80
FFFF00
FFFE00
FFFF80
F007E0
F001E0
F000F0
F000F0
F00070
F00070
F00070
F000F0
F000F0
F001E0
F007E0
FFFFC0
FFFF00
FFFC00
ENDCHAR
STARTCHAR 0393
ENCODING 915
SWIDTH 495 0
DWIDTH 22 0
BBX 17 29 4 0
BITMAP
FFFF80
FFFF80
FFFF80
F00000
F00000
F00000
F00000
F00000
F00000
F00000
F00000
F00000
F00000
F00000
F00000
F00000
F00000
F00000
F00000
F00000
F00000
F00000
F00000
F00000
F00000
F00000
F00000
F00000
F00000
ENDCHAR
STARTCHAR 0394
ENCODING 916
SWIDTH 585 0
DWIDTH 26 0
BBX 24 29 1 0
BITMAP
003C00
007E00
007E00
007E00
00FF00
00E700
00E780
01E780
01C380
01C3C0
03C3C0
0381C0
0781E0
0781E0
0700E0
0F00F0
0F00F0
0E0070
1E0078
1E0038
1C003C
3C003C
38001C
38001E
78001E
70000E
FFFFFF
FFFFFF
FFFFFF
ENDCHAR
STARTCHAR 0395
ENCODING 917
SWIDTH 517 0
DWIDTH 23 0
BBX 17 29 4 0
BITMAP
FFFF80
FFFF80
FFFF80
F00000
F00000
F00000
F00000
F00000
F00000
F00000
F00000
F00000
FFFE00
FFFE00
FFFE00
F00000
F00000
F00000
F00000
F00000
F00000
F00000
F00000
F00000
F00000
F00000
FFFF80
FFFF80
FFFF80
ENDCHAR
STARTCHAR 0396
ENCODING 918
SWIDTH 540 0
DWIDTH 24 0
BBX 20 29 2 0
BITMAP
7FFFF0
7FFFF0
7FFFF0
0001E0
0003C0
0003C0
000780
000F00
000F00
001E00
001E00
003C00
007800
007800
00F000
01E000
01E000
03C000
078000
078000
0F0000
1E0000
1E0000
3C0000
780000
780000
FFFFF0
FFFFF0
FFFFF0
ENDCHAR
STARTCHAR 0397
ENCODING 919
SWIDTH 652 0
DWIDTH 29 0
BBX 21 29 4 0
BITMAP
F00078
F00078
F00078
F00078
F00078
F00078
F00078
F00078
F00078
F00078
F00078
F00078
FFFFF8
FFFFF8
FFFFF8
F00078
F00078
F00078
F00078
F00078
F00078
F00078
F00078
F00078
F00078
F00078
F00078
F00078
F00078
ENDCHAR
STARTCHAR 0398
ENCODING 920
SWIDTH 675 0
DWIDTH 30 0
BBX 25 29 2 0
BITMAP
007F0000
01FFE000
07FFF000
0FE1F800
1F007C00
1E003E00
3C001F00
3C000F00
78000F00
78000780
78000780
70000780
F0FFC780
F0FFC780
F0FFC780
F0000780
F0000780
70000780
78000780
78000780
78000F00
3C000F00
3C001E00
1E003E00
1F807C00
0FE1F800
07FFF000
01FFE000
007F0000
ENDCHAR
STARTCHAR 0399
ENCODING 921
SWIDTH 270 0
DWIDTH 12 0
BBX 4 29 4 0
BITMAP
F0
F0
F0
F0
F0
F0
F0
F0
F0
F0
F0
F0
F0
F0
F0
F0
F0
F0
F0
F0
F0
F0
F0
F0
F0
F0
F0
F0
F0
ENDCHAR
STARTCHAR 039A
ENCODING 922
SWIDTH 585 0
DWIDTH 26 0
BBX 21 29 4 0
BITMAP
F000F0
F001E0
F003C0
F00780
F00F00
F01F00
F01E00
F03C00
F07800
F0F000
F1E000
F3E000
F3F000
F7F000
FF7800
FE3C00
FE3C00
FC1E00
F81E00
F00F00
F00F80
F00780
F003C0
F003C0
F001E0
F001F0
F000F0
F00078
F00078
ENDCHAR
STARTCHAR 039B
ENCODING 923
SWIDTH 517 0
DWIDTH 23 0
BBX 23 29 0 0
BITMAP
007C00
007C00
00FC00
00FE00
00EE00
00EE00
01CF00
01C700
01C700
03C780
038780
038380
0783C0
0703C0
0701C0
0F01E0
0E01E0
0E01E0
1E00F0
1E00F0
1C00F0
3C0070
3C0078
380078
780038
78003C
78003C
F0003C
F0001E
ENDCHAR
STARTCHAR 039C
ENCODING 924
SWIDTH 720 0
DWIDTH 32 0
BBX 24 29 4 0
BITMAP
F8000F
F8001F
F8001F
FC001F
FC003F
FC003F
EE0077
EE0077
EF0077
E700E7
E700E7
E380E7
E381C7
E381C7
E1C1C7
E1C387
E1C387
E0E307
E0E707
E0F707
E07607
E07E07
E03E07
E03C07
E03C07
E01C07
E00007
E00007
E00007
ENDCHAR
STARTCHAR 039D
ENCODING 925
SWIDTH 652 0
DWIDTH 29 0
BBX 21 29 4 0
BITMAP
F00078
F80078
F80078
FC0078
FC0078
EE0078
EF0078
E70078
E78078
E38078
E3C078
E1C078
F1E078
F0F078
F0F078
F07878
F03878
F03C78
F01E78
F01E78
F00F78
F00738
F007B8
F003B8
F003F8
F001F8
F001F8
F000F8
F00078
ENDCHAR
STARTCHAR 039E
ENCODING 926
SWIDTH 540 0
DWIDTH 24 0
BBX 20 29 2 0
BITMAP
7FFFE0
7FFFE0
7FFFE0
000000
000000
000000
000000
000000
000000
000000
000000
000000
1FFF00
1FFF00
1FFF00
000000
000000
000000
000000
000000
000000
000000
000000
000000
000000
000000
FFFFF0
FFFFF0
FFFFF0
ENDCHAR
STARTCHAR 039F
ENCODING 927
SWIDTH 675 0
DWIDTH 30 0
BBX 25 29 2 0
BITMAP
007F0000
01FFE000
07FFF000
0FE1F800
1F007C00
1E003E00
3C001F00
3C000F00
78000F00
78000780
78000780
70000780
F0000780
F0000780
F0000780
F0000780
F0000780
70000780
78000780
78000780
78000F00
3C000F00
3C001E00
1E003E00
1F807C00
0FE1F800
07FFF000
01FFE000
007F0000
ENDCHAR
STARTCHAR 03A0
ENCODING 928
SWIDTH 652 0
DWIDTH 29 0
BBX 21 29 4 0
BITMAP
FFFFF8
FFFFF8
FFFFF8
F00078
F00078
F00078
F00078
F00078
F00078
F00078
F00078
F00078
F00078
F00078
F00078
F00078
F00078
F00078
F00078
F00078
F00078
F00078
F00078
F00078
F00078
F00078
F00078
F00078
F00078
ENDCHAR
STARTCHAR 03A1
ENCODING 929
SWIDTH 562 0
DWIDTH 25 0
BBX 19 29 4 0
BITMAP
FFF800
FFFF00
FFFF80
F00FC0
F003C0
F001E0
F001E0
F001E0
F000E0
F000E0
F001E0
F001E0
F001E0
F003C0
F00FC0
FFFF80
FFFE00
FFF800
F00000
F00000
F00000
F00000
F00000
F00000
F00000
F00000
F00000
F00000
F00000
ENDCHAR
STARTCHAR 03A3
ENCODING 931
SWIDTH 540 0
DWIDTH 24 0
BBX 20 29 2 0
BITMAP
FFFFE0
FFFFE0
FFFFE0
780000
3C0000
1E0000
0F0000
0F0000
078000
03C000
01E000
00F000
007000
007800
003C00
007800
00F000
01E000
01C000
03C000
078000
0F0000
1E0000
1C0000
3C0000
780000
FFFFF0
FFFFF0
FFFFF0
ENDCHAR
STARTCHAR 03A4
ENCODING 932
SWIDTH 540 0
DWIDTH 24 0
BBX 22 29 1 0
BITMAP
FFFFFC
FFFFFC
FFFFFC
007800
007800
007800
007800
007800
007800
007800
007800
007800
007800
007800
007800
007800
007800
007800
007800
007800
007800
007800
007800
007800
007800
007800
007800
007800
007800
ENDCHAR
STARTCHAR 03A5
ENCODING 933
SWIDTH 472 0
DWIDTH 21 0
BBX 21 29 0 0
BITMAP
F00078
780070
7800F0
3C00E0
3C01E0
1C01C0
1E03C0
0E0380
0F0780
070780
078700
038F00
03CE00
01DE00
01DC00
00FC00
00F800
007800
007000
007000
007000
007000
007000
007000
007000
007000
007000
007000
007000
ENDCHAR
STARTCHAR 03A6
ENCODING 934
SWIDTH 720 0
DWIDTH 32 0
BBX 28 31 2 -1
BITMAP
000F0000
000F0000
000F0000
000F0000
007FE000
03FFFC00
0FFFFF00
1F8F1F80
3E0F07C0
3C0F03C0
780F01E0
780F01E0
F00F00F0
F00F00F0
F00F00F0
F00F00F0
F00F00F0
F00F00F0
700F00E0
780F01E0
780F01E0
3C0F03C0
3E0F0780
1FCF1F80
07FFFE00
03FFFC00
007FE000
000F0000
000F0000
000F0000
000F0000
ENDCHAR
STARTCHAR 03A7
ENCODING 935
SWIDTH 517 0
DWIDTH 23 0
BBX 21 29 1 0
BITMAP
7800F0
7800F0
3C01E0
3C01E0
1E03C0
1E03C0
0F0780
0F0700
078F00
038E00
03DE00
01FC00
01FC00
00F800
00F800
01F800
01FC00
03DE00
039E00
078F00
0F0F00
0F0780
1E0780
1E03C0
3C01E0
3801E0
7800F0
F000F0
F00078
ENDCHAR
STARTCHAR 03A8
ENCODING 936
SWIDTH 697 0
DWIDTH 31 0
BBX 25 29 3 0
BITMAP
E01C0380
E01C0380
E01C0380
E01C0380
E01C0380
E01C0380
E01C0380
E01C0380
F01C0380
F01C0780
F01C0780
F01C0780
781C0F00
7C1C1F00
3E1C3E00
1FFFFC00
0FFFF800
01FFC000
001C0000
001C0000
001C0000
001C0000
001C0000
001C0000
001C0000
001C0000
001C0000
001C0000
001C0000
ENDCHAR
STARTCHAR 03A9
ENCODING 937
SWIDTH 675 0
DWIDTH 30 0
BBX 26 29 2 0
BITMAP
003F8000
01FFE000
03FFF800
0FE1FC00
0F807E00
1E001E00
3E000F00
3C000F00
78000780
78000780
78000780
78000380
780003C0
700003C0
700003C0
78000380
78000380
78000780
78000780
38000780
3C000F00
1C000F00
1E001E00
0F001C00
07003C00
07807800
FFC0FFC0
FFC0FFC0
FFC0FFC0
ENDCHAR
STARTCHAR 03AA
ENCODING 938
SWIDTH 270 0
DWIDTH 12 0
BBX 14 36 -1 0
BITMAP
7038
F07C
F07C
F038
0000
0000
0000
0780
0780
0780
0780
0780
0780
0780
0780
0780
0780
0780
0780
0780
0780
0780
0780
0780
0780
0780
0780
0780
0780
0780
0780
0780
0780
0780
0780
0780
ENDCHAR
STARTCHAR 03AB
ENCODING 939
SWIDTH 472 0
DWIDTH 21 0
BBX 21 36 0 0
BITMAP
060380
0F0780
0F0780
0F0780
000000
000000
000000
F00078
780070
7800F0
3C00E0
3C01E0
1C01C0
1E03C0
0E0380
0F0780
070780
078700
038F00
03CE00
01DE00
01DC00
00FC00
00F800
007800
007000
007000
007000
007000
007000
007000
007000
007000
007000
007000
007000
ENDCHAR
STARTCHAR 03AC
ENCODING 940
SWIDTH 562 0
DWIDTH 25 0
BBX 22 34 2 0
BITMAP
001C00
001E00
001C00
003C00
003800
003800
003800
007000
007000
000000
000000
000000
01F078
07FC78
1FFE70
1F0E70
3C07F0
7803F0
7801F0
7001E0
F001E0
F001E0
F001E0
F001E0
F001C0
F001C0
F001C0
7803C0
7807C0
7C07C0
3E1FE0
1FFDFC
0FF8FC
07E07C
ENDCHAR
STARTCHAR 03AD
ENCODING 941
SWIDTH 450 0
DWIDTH 20 0
BBX 17 34 2 0
BITMAP
007800
007800
007000
007000
00F000
00E000
00E000
00E000
00C000
000000
000000
000000
03F800
1FFE00
3FFF00
3E0700
780200
780000
780000
780000
3C0000
1FF000
07F000
3FF000
7C0000
700000
F00000
F00000
F00000
F80100
7C0700
3FFF80
1FFE00
07F800
ENDCHAR
STARTCHAR 03AE
ENCODING 942
SWIDTH 540 0
DWIDTH 24 0
BBX 18 42 3 -8
BITMAP
003C00
003C00
003800
003800
007800
007000
007000
007000
006000
000000
000000
000000
F07C00
F1FF00
73FF80
778F80
760780
7C03C0
7803C0
7003C0
7003C0
7003C0
7003C0
7003C0
7003C0
7003C0
7003C0
7003C0
7003C0
7003C0
7003C0
7003C0
7003C0
7003C0
0003C0
0003C0
0003C0
0003C0
0003C0
0003C0
0003C0
0003C0
ENDCHAR
STARTCHAR 03AF
ENCODING 943
SWIDTH 270 0
DWIDTH 12 0
BBX 6 35 4 0
BITMAP
20
3C
78
78
70
70
70
E0
E0
60
00
00
00
E0
E0
E0
E0
E0
E0
E0
E0
E0
E0
E0
E0
E0
E0
E0
E0
E0
E0
E0
FC
FC
3C
ENDCHAR
STARTCHAR 03B0
ENCODING 944
SWIDTH 517 0
DWIDTH 23 0
BBX 17 34 3 0
BITMAP
00E000
00E000
01C000
01C000
31CC00
799E00
799E00
338C00
030000
000000
000000
000000
E00700
E00F00
F00F00
F00700
F00780
F00780
F00780
F00780
E00780
E00780
E00380
E00380
E00780
E00780
E00780
F00780
F00F00
780F00
7C3E00
3FFC00
1FF800
07E000
ENDCHAR
STARTCHAR 03B1
ENCODING 945
SWIDTH 562 0
DWIDTH 25 0
BBX 22 22 2 0
BITMAP
01F078
07FC78
1FFE70
1F0E70
3C07F0
7803F0
7801F0
7001E0
F001E0
F001E0
F001E0
F001E0
F001C0
F001C0
F001C0
7803C0
7807C0
7C07C0
3E1FE0
1FFDFC
0FF8FC
07E07C
ENDCHAR
STARTCHAR 03B2
ENCODING 946
SWIDTH 562 0
DWIDTH 25 0
BBX 19 39 4 -7
BITMAP
07F000
1FFC00
3FFE00
7C1F00
780F00
F00700
F00780
E00780
E00700
E00700
E00F00
E00F00
E01E00
E03C00
E1F800
E1FE00
E1FF00
E00F80
E003C0
E001E0
E001E0
E001E0
E001E0
E001E0
E001E0
E001E0
F001E0
F803C0
FE0FC0
EFFF80
E7FE00
E1F800
E00000
E00000
E00000
E00000
E00000
E00000
E00000
ENDCHAR
STARTCHAR 03B3
ENCODING 947
SWIDTH 495 0
DWIDTH 22 0
BBX 20 30 1 -8
BITMAP
6000F0
F000E0
F800E0
7801E0
3C01E0
3C01C0
1E01C0
1E03C0
0E03C0
0F0380
070780
078700
078700
038F00
038E00
03DE00
01DC00
01FC00
01F800
01F000
00F000
00E000
00E000
00E000
00E000
00E000
00E000
00E000
00E000
00E000
ENDCHAR
STARTCHAR 03B4
ENCODING 948
SWIDTH 540 0
DWIDTH 24 0
BBX 20 32 2 0
BITMAP
03FC00
0FFFC0
1FFFE0
1E03C0
1C0000
1C0000
1E0000
1E0000
0F8000
07C000
03E000
01F800
007C00
03FE00
07DF00
1F0780
3C03C0
3C03E0
7801E0
7001E0
F000E0
F000F0
F000F0
F000E0
F000E0
7801E0
7801E0
3C03C0
3F07C0
1FFF80
07FE00
01F800
ENDCHAR
STARTCHAR 03B5
ENCODING 949
SWIDTH 450 0
DWIDTH 20 0
BBX 17 22 2 0
BITMAP
03F800
1FFE00
3FFF00
3E0700
780200
780000
780000
780000
3C0000
1FF000
07F000
3FF000
7C0000
700000
F00000
F00000
F00000
F80100
7C0700
3FFF80
1FFE00
07F800
ENDCHAR
STARTCHAR 03B6
ENCODING 950
SWIDTH 427 0
DWIDTH 19 0
BBX 16 40 2 -8
BITMAP
7FFF
7FFF
7FFF
001E
003C
0078
00F0
01E0
03C0
0780
0780
0F00
1E00
1E00
3C00
3C00
7800
7800
7000
F000
F000
F000
F000
F000
F000
7800
7800
7C00
3F00
1FF0
0FFE
03FF
003F
0007
0007
0007
0007
000E
001E
0004
ENDCHAR
STARTCHAR 03B7
ENCODING 951
SWIDTH 540 0
DWIDTH 24 0
BBX 18 30 3 -8
BITMAP
F07C00
F1FF00
73FF80
778F80
760780
7C03C0
7803C0
7003C0
7003C0
7003C0
7003C0
7003C0
7003C0
7003C0
7003C0
7003C0
7003C0
7003C0
7003C0
7003C0
7003C0
7003C0
0003C0
0003C0
0003C0
0003C0
0003C0
0003C0
0003C0
0003C0
ENDCHAR
STARTCHAR 03B8
ENCODING 952
SWIDTH 517 0
DWIDTH 23 0
BBX 18 32 3 0
BITMAP
03E000
0FF800
1FFC00
3E3E00
3C0E00
780F00
780700
700780
F00780
F00380
F00380
E00380
E00380
E003C0
FFFFC0
FFFFC0
FFFFC0
E003C0
E003C0
E00380
E00380
F00380
F00380
F00780
700780
780700
780F00
3C0E00
3E3E00
1FFC00
0FF800
03E000
ENDCHAR
STARTCHAR 03B9
ENCODING 953
SWIDTH 270 0
DWIDTH 12 0
BBX 6 22 4 0
BITMAP
E0
E0
E0
E0
E0
E0
E0
E0
E0
E0
E0
E0
E0
E0
E0
E0
E0
E0
E0
FC
FC
3C
ENDCHAR
STARTCHAR 03BA
ENCODING 954
SWIDTH 495 0
DWIDTH 22 0
BBX 19 22 3 0
BITMAP
F00080
F00380
7007C0
701F80
703E00
707C00
70F800
70E000
71C000
73C000
73E000
77F000
7E7000
7C7800
783800
783C00
781E00
700F00
700F00
700780
7003C0
7001E0
ENDCHAR
STARTCHAR 03BB
ENCODING 955
SWIDTH 495 0
DWIDTH 22 0
BBX 20 32 1 0
BITMAP
7E0000
FF0000
FF8000
47C000
01E000
01E000
00F000
00F000
007000
007800
007800
00F800
00FC00
00FC00
01DC00
01DE00
03CE00
038E00
078F00
078700
070700
0F0780
0E0380
1E03C0
1E03C0
3C01C0
3C01E0
3801E0
7800E0
7800F0
F000F0
F00070
ENDCHAR
STARTCHAR 03BC
ENCODING 956
SWIDTH 562 0
DWIDTH 25 0
BBX 20 30 4 -8
BITMAP
E00780
E00780
E00780
E00780
E00780
E00780
E00780
E00780
E00780
E00780
E00780
E00700
E00700
E00700
E00700
F00700
F00F00
F01F00
F83F80
FFF3E0
FFE3F0
E7C1F0
E00000
E00000
E00000
E00000
E00000
E00000
E00000
E00000
ENDCHAR
STARTCHAR 03BD
ENCODING 957
SWIDTH 472 0
DWIDTH 21 0
BBX 19 22 1 0
BITMAP
6001E0
F001E0
F001E0
7801E0
7801C0
3C01C0
3C03C0
1E03C0
1E0380
0E0380
0F0780
070700
070700
078E00
038E00
039E00
03DC00
03FC00
01F800
01F800
01F000
01E000
ENDCHAR
STARTCHAR 03BE
ENCODING 958
SWIDTH 427 0
DWIDTH 19 0
BBX 18 40 1 -8
BITMAP
FFFF80
FFFF80
FFFF80
07C000
078000
0F0000
0E0000
1E0000
1E0000
1E0000
0E0000
0F0000
078000
03C000
01FE00
01FE00
07FE00
0F0000
1E0000
3C0000
3C0000
780000
780000
780000
780000
780000
3C0000
3E0000
1F8000
1FF800
07FF00
01FF80
001FC0
0003C0
0003C0
0003C0
000380
000380
000700
000300
ENDCHAR
STARTCHAR 03BF
ENCODING 959
SWIDTH 540 0
DWIDTH 24 0
BBX 20 22 2 0
BITMAP
01F800
07FE00
1FFF00
3F0F80
3C03C0
7803E0
7801E0
F001E0
F000F0
F000F0
F000F0
F000F0
F000F0
F000F0
F001E0
7801E0
7801E0
3C03C0
3F0F80
1FFF00
07FE00
01F800
ENDCHAR
STARTCHAR 03C0
ENCODING 960
SWIDTH 585 0
DWIDTH 26 0
BBX 24 22 1 0
BITMAP
FFFFFF
FFFFFF
FFFFFF
0700F0
0700F0
0700F0
0700F0
0700E0
0700E0
0700E0
0700E0
0700E0
0700E0
0700E0
0F00E0
0F00E0
0F00E0
0F00E0
0F00F0
0E00FE
0E007E
0E003F
ENDCHAR
STARTCHAR 03C1
ENCODING 961
SWIDTH 540 0
DWIDTH 24 0
BBX 19 29 3 -7
BITMAP
01F800
07FE00
1FFF80
1F0F80
3C03C0
7803C0
7801E0
7001E0
7001E0
7001E0
F000E0
F000E0
F001E0
F001E0
F001E0
F001E0
F003C0
F807C0
FE0F80
FFFF00
F3FE00
F1F800
F00000
F00000
F00000
F00000
F00000
F00000
F00000
ENDCHAR
STARTCHAR 03C2
ENCODING 962
SWIDTH 427 0
DWIDTH 19 0
BBX 16 30 2 -8
BITMAP
01F8
07FE
1FFF
3F0E
3C04
7800
7800
F000
F000
F000
F000
F000
F000
F000
F800
7800
7C00
3F00
1FC0
0FF0
03FC
00FC
003E
001E
001E
001C
001C
003C
0078
0030
ENDCHAR
STARTCHAR 03C3
ENCODING 963
SWIDTH 540 0
DWIDTH 24 0
BBX 22 22 2 0
BITMAP
01FFFC
07FFFC
1FFFFC
3E0F00
3C0780
7803C0
7801C0
F001E0
F001E0
F001E0
F000E0
F000E0
F000E0
F001E0
F001E0
7801E0
7803C0
3C07C0
3F0F80
1FFF00
07FE00
01F800
ENDCHAR
STARTCHAR 03C4
ENCODING 964
SWIDTH 450 0
DWIDTH 20 0
BBX 18 22 1 0
BITMAP
FFFFC0
FFFFC0
FFFFC0
01E000
01E000
01E000
01E000
01E000
01E000
01E000
01E000
01E000
01E000
01E000
01E000
01E000
01E000
01E000
00E000
00FE00
00FE00
007E00
ENDCHAR
STARTCHAR 03C5
ENCODING 965
SWIDTH 517 0
DWIDTH 23 0
BBX 17 22 3 0
BITMAP
E00700
E00F00
F00F00
F00700
F00780
F00780
F00780
F00780
E00780
E00780
E00380
E00380
E00780
E00780
E00780
F00780
F00F00
780F00
7C3E00
3FFC00
1FF800
07E000
ENDCHAR
STARTCHAR 03C6
ENCODING 966
SWIDTH 675 0
DWIDTH 30 0
BBX 26 36 2 -8
BITMAP
001E0000
001E0000
001E0000
001E0000
001E0000
001E0000
00FFC000
03FFF800
0FFFFC00
1F1E3E00
3E1E0F00
7C1E0780
781E0780
701E03C0
F01E03C0
F01E03C0
F01E03C0
F01E03C0
F01E03C0
F01E03C0
781E03C0
781E0780
7C1E0780
3E1E0F00
1F1E3E00
0FFFFC00
03FFF000
00FFC000
001E0000
001E0000
001E0000
001E0000
001E0000
001E0000
001E0000
001E0000
ENDCHAR
STARTCHAR 03C7
ENCODING 967
SWIDTH 472 0
DWIDTH 21 0
BBX 21 31 1 -9
BITMAP
6001E0
F001E0
F803C0
780380
3C0780
3C0700
1E0F00
1F0E00
0F1E00
079C00
07BC00
03F800
01F800
01F000
00F000
00F000
01F800
03F800
03BC00
079C00
071E00
0F0F00
0E0F00
1E0780
1C03C0
3C03C0
7801E0
7801E0
F000F0
F000F8
200040
ENDCHAR
STARTCHAR 03C8
ENCODING 968
SWIDTH 697 0
DWIDTH 31 0
BBX 25 35 3 -7
BITMAP
003C0000
003C0000
003C0000
003C0000
003C0000
003C0000
E03C0600
E03C0F00
F03C0F00
F03C0F00
F03C0780
F03C0780
F03C0780
F03C0780
F03C0780
F03C0780
E03C0780
E03C0780
E03C0780
F03C0780
F03C0780
703C0F00
783C0F00
7C3C1E00
3E3C7C00
1FFFF800
0FFFF000
01FF8000
003C0000
003C0000
003C0000
003C0000
003C0000
003C0000
003C0000
ENDCHAR
STARTCHAR 03C9
ENCODING 969
SWIDTH 697 0
DWIDTH 31 0
BBX 27 22 2 0
BITMAP
08000200
1F000F00
1E000F80
3C000780
3C0003C0
780003C0
780003C0
700001E0
700F01E0
F00E01E0
F00E01E0
F00E01E0
F00E01E0
F00E01E0
F00E01E0
700E01E0
781F03C0
781F03C0
3C3B8780
3FFBFF80
1FF1FF00
07C07C00
ENDCHAR
STARTCHAR 03CA
ENCODING 970
SWIDTH 270 0
DWIDTH 12 0
BBX 13 31 -1 0
BITMAP
7070
F078
F078
F078
0000
0000
0000
0000
0000
0700
0700
0700
0700
0700
0700
0700
0700
0700
0700
0700
0700
0700
0700
0700
0700
0700
0700
0700
07E0
07E0
01E0
ENDCHAR
STARTCHAR 03CB
ENCODING 971
SWIDTH 517 0
DWIDTH 23 0
BBX 17 30 3 0
BITMAP
383C00
7C3C00
7C3C00
381800
000000
000000
000000
000000
E00700
E00F00
F00F00
F00700
F00780
F00780
F00780
F00780
E00780
E00780
E00380
E00380
E00780
E00780
E00780
F00780
F00F00
780F00
7C3E00
3FFC00
1FF800
07E000
ENDCHAR
STARTCHAR 03CC
ENCODING 972
SWIDTH 540 0
DWIDTH 24 0
BBX 20 34 2 0
BITMAP
003C00
003C00
003800
003800
007800
007000
007000
007000
006000
000000
000000
000000
01F800
07FE00
1FFF00
3F0F80
3C03C0
7803E0
7801E0
F001E0
F000F0
F000F0
F000F0
F000F0
F000F0
F000F0
F001E0
7801E0
7801E0
3C03C0
3F0F80
1FFF00
07FE00
01F800
ENDCHAR
STARTCHAR 03CD
ENCODING 973
SWIDTH 517 0
DWIDTH 23 0
BBX 17 34 3 0
BITMAP
00F000
00F000
00E000
00E000
01E000
01C000
01C000
01C000
038000
000000
000000
000000
E00700
E00F00
F00F00
F00700
F00780
F00780
F00780
F00780
E00780
E00780
E00380
E00380
E00780
E00780
E00780
F00780
F00F00
780F00
7C3E00
3FFC00
1FF800
07E000
ENDCHAR
STARTCHAR 03CE
ENCODING 974
SWIDTH 697 0
DWIDTH 31 0
BBX 27 34 2 0
BITMAP
00038000
00038000
00078000
00078000
00070000
00070000
00070000
000E0000
000E0000
00000000
00000000
00000000
08000200
1F000F00
1E000F80
3C000780
3C0003C0
780003C0
780003C0
700001E0
700F01E0
F00E01E0
F00E01E0
F00E01E0
F00E01E0
F00E01E0
F00E01E0
700E01E0
781F03C0
781F03C0
3C3B8780
3FFBFF80
1FF1FF00
07C07C00
ENDCHAR
STARTCHAR 03D0
ENCODING 976
SWIDTH 562 0
DWIDTH 25 0
BBX 20 32 3 0
BITMAP
03F000
0FFC00
1FFE00
3E1F00
3C0780
780780
780380
700380
700380
F00380
F00780
F00F00
F01E00
F03C00
F1F800
FFFE00
FFFF80
FC07C0
F001E0
F001E0
F000F0
F000F0
F000F0
7000F0
7800F0
7800F0
7C01E0
3E03E0
1F8FC0
0FFF80
07FF00
01FC00
ENDCHAR
STARTCHAR 03D1
ENCODING 977
SWIDTH 517 0
DWIDTH 23 0
BBX 18 32 3 0
BITMAP
07E000
1FF800
3FFC00
7C3E00
781E00
F00F00
F00700
E00780
E00780
F00780
F00380
700380
780380
3C03C0
1FEFC0
0FFFC0
01FFC0
0003C0
0003C0
700380
700380
700380
700380
700780
700780
780700
780F00
780F00
3E1E00
3FFC00
1FF800
07E000
ENDCHAR
STARTCHAR 03D5
ENCODING 981
SWIDTH 675 0
DWIDTH 30 0
BBX 26 30 2 -8
BITMAP
0C00F800
0E03FE00
1E07FF00
3E079F00
3C0F0780
780E0780
780E03C0
700E03C0
F01E03C0
F01E03C0
F01E03C0
F01E03C0
F01E03C0
F01E03C0
701E03C0
781E0780
781E0780
3E1E0F00
1F1E3E00
0FFFFC00
07FFF000
00FFC000
001E0000
001E0000
001E0000
001E0000
001E0000
001E0000
001E0000
001E0000
ENDCHAR
STARTCHAR 03D7
ENCODING 983
SWIDTH 495 0
DWIDTH 22 0
BBX 19 30 3 -8
BITMAP
000080
F00380
7007C0
701FC0
703E00
707C00
707800
70F000
71E000
73C000
73E000
77F000
7EF000
7C7800
7C7800
783C00
781E00
701E00
700F00
700780
7007C0
7003E0
0001E0
0003C0
0003C0
000780
000F00
001E00
003E00
007C00
ENDCHAR
STARTCHAR 03D9
ENCODING 985
SWIDTH 540 0
DWIDTH 24 0
BBX 20 29 2 -7
BITMAP
01F800
07FE00
1FFF00
3F0F80
3C03C0
7803E0
7801E0
7001E0
F000F0
F000F0
F000F0
F000F0
F000F0
F000F0
F000E0
7801E0
7801E0
3C03C0
3E0780
1FFF80
0FFE00
03F800
00F000
00F000
00F000
00F000
00F000
00F000
00F000
ENDCHAR
STARTCHAR 03DB
ENCODING 987
SWIDTH 472 0
DWIDTH 21 0
BBX 18 30 2 -8
BITMAP
01FFC0
07FFC0
1FFFC0
3F0000
3C0000
780000
780000
700000
F00000
F00000
F00000
F00000
F00000
F00000
F80000
780000
7C0000
3E0000
1FC000
0FF800
07FE00
00FF00
001F00
000F00
000700
000700
000E00
000E00
001C00
000400
ENDCHAR
STARTCHAR 03DD
ENCODING 989
SWIDTH 405 0
DWIDTH 18 0
BBX 13 30 4 -8
BITMAP
FFF8
FFF8
FFF8
E000
E000
E000
E000
E000
E000
E000
E000
E000
E000
FFF0
FFF0
FFF0
E000
E000
E000
E000
E000
E000
E000
E000
E000
E000
E000
E000
E000
E000
ENDCHAR
STARTCHAR 03E1
ENCODING 993
SWIDTH 495 0
DWIDTH 22 0
BBX 20 38 1 -7
BITMAP
1C0000
3E0000
3F0000
0F8000
07C000
03E000
01F000
00F800
007C00
003C00
001E00
001F00
000F00
003F80
00FF80
07FBC0
1FE3C0
7F83C0
FE01E0
F801E0
6001E0
0007E0
001FE0
007FF0
01FCF0
0FF0F0
0FC0F0
0F00F0
0400F0
0000F0
0000F0
0000F0
0000F0
0000F0
0000F0
0000F0
0000F0
0000E0
ENDCHAR
STARTCHAR 0400
ENCODING 1024
SWIDTH 517 0
DWIDTH 23 0
BBX 17 38 4 0
BITMAP
0C0000
1E0000
1F0000
0F8000
03C000
01E000
00C000
000000
000000
FFFF80
FFFF80
FFFF80
F00000
F00000
F00000
F00000
F00000
F00000
F00000
F00000
F00000
FFFE00
FFFE00
FFFE00
F00000
F00000
F00000
F00000
F00000
F00000
F00000
F00000
F00000
F00000
F00000
FFFF80
FFFF80
FFFF80
ENDCHAR
STARTCHAR 0401
ENCODING 1025
SWIDTH 517 0
DWIDTH 23 0
BBX 17 36 4 0
BITMAP
180E00
3C1E00
3C1E00
3C1E00
000000
000000
000000
FFFF80
FFFF80
FFFF80
F00000
F00000
F00000
F00000
F00000
F00000
F00000
F00000
F00000
FFFE00
FFFE00
FFFE00
F00000
F00000
F00000
F00000
F00000
F00000
F00000
F00000
F00000
F00000
F00000
FFFF80
FFFF80
FFFF80
ENDCHAR
STARTCHAR 0402
ENCODING 1026
SWIDTH 697 0
DWIDTH 31 0
BBX 27 29 1 0
BITMAP
FFFFFC00
FFFFFC00
FFFFFC00
00F00000
00F00000
00F00000
00F00000
00F00000
00F00000
00F00000
00F00000
00FFF800
00FFFF00
00FFFF80
00F00FC0
00F003C0
00F001E0
00F001E0
00F001E0
00F000E0
00F000E0
00F000E0
00F001E0
00F001E0
00F003E0
00F007C0
00F07F80
00F07F00
00F07C00
ENDCHAR
STARTCHAR 0403
ENCODING 1027
SWIDTH 495 0
DWIDTH 22 0
BBX 17 38 4 0
BITMAP
000C00
001C00
003C00
00F800
01F000
01C000
008000
000000
000000
FFFF80
FFFF80
FFFF80
F00000
F00000
F00000
F00000
F00000
F00000
F00000
F00000
F00000
F00000
F00000
F00000
F00000
F00000
F00000
F00000
F00000
F00000
F00000
F00000
F00000
F00000
F00000
F00000
F00000
F00000
ENDCHAR
STARTCHAR 0404
ENCODING 1028
SWIDTH 562 0
DWIDTH 25 0
BBX 22 29 2 0
BITMAP
007F80
01FFE0
07FFF0
0FE1F8
1F0030
1E0000
3C0000
380000
780000
780000
700000
700000
FFFF00
FFFF00
FFFF00
F00000
F00000
700000
700000
780000
780000
3C0000
3C0000
1E0018
1F003C
0FE1F8
07FFF0
01FFE0
007F00
ENDCHAR
STARTCHAR 0405
ENCODING 1029
SWIDTH 540 0
DWIDTH 24 0
BBX 20 29 2 0
BITMAP
01FC00
07FF00
0FFFC0
1F07E0
3C01C0
380000
780000
780000
780000
3C0000
3E0000
1F8000
0FE000
07FC00
01FF00
007F80
000FC0
0003E0
0001F0
0000F0
0000F0
0000F0
0000F0
7000F0
F801E0
7F0FC0
3FFF80
0FFF00
03FC00
ENDCHAR
STARTCHAR 0406
ENCODING 1030
SWIDTH 270 0
DWIDTH 12 0
BBX 4 29 4 0
BITMAP
F0
F0
F0
F0
F0
F0
F0
F0
F0
F0
F0
F0
F0
F0
F0
F0
F0
F0
F0
F0
F0
F0
F0
F0
F0
F0
F0
F0
F0
ENDCHAR
STARTCHAR 0407
ENCODING 1031
SWIDTH 270 0
DWIDTH 12 0
BBX 14 36 -1 0
BITMAP
7038
F07C
F07C
F038
0000
0000
0000
0780
0780
0780
0780
0780
0780
0780
0780
0780
0780
0780
0780
0780
0780
0780
0780
0780
0780
0780
0780
0780
0780
0780
0780
0780
0780
0780
0780
0780
ENDCHAR
STARTCHAR 0408
ENCODING 1032
SWIDTH 472 0
DWIDTH 21 0
BBX 16 29 1 0
BITMAP
0007
0007
0007
0007
0007
0007
0007
0007
0007
0007
0007
0007
0007
0007
0007
0007
0007
0007
0007
0007
0007
0007
000F
300F
F81F
7C3E
3FFC
1FF8
07E0
ENDCHAR
STARTCHAR 0409
ENCODING 1033
SWIDTH 900 0
DWIDTH 40 0
BBX 38 29 0 0
BITMAP
003FFE0000
007FFE0000
007FFE0000
00780E0000
00700E0000
00700E0000
00700E0000
00F00E0000
00F00E0000
00F00E0000
00E00E0000
00E00E0000
00E00FFF00
01E00FFFE0
01E00FFFF0
01C00E01F8
01C00E0078
01C00E003C
03C00E003C
03C00E003C
03800E001C
03800E003C
07800E003C
07800E003C
0F000E0078
0F000E01F8
7E000FFFF0
7E000FFFC0
F8000FFF00
ENDCHAR
STARTCHAR 040A
ENCODING 1034
SWIDTH 922 0
DWIDTH 41 0
BBX 35 29 4 0
BITMAP
F000780000
F000780000
F000780000
F000780000
F000780000
F000780000
F000780000
F000780000
F000780000
F000780000
F000780000
F000780000
FFFFFFF800
FFFFFFFF00
FFFFFFFF80
F000780FC0
F0007803E0
F0007801E0
F0007801E0
F0007800E0
F0007800E0
F0007800E0
F0007801E0
F0007801E0
F0007803C0
F000780FC0
F0007FFF80
F0007FFE00
F0007FF800
ENDCHAR
STARTCHAR 040B
ENCODING 1035
SWIDTH 697 0
DWIDTH 31 0
BBX 27 29 1 0
BITMAP
FFFFFC00
FFFFFC00
FFFFFC00
00F00000
00F00000
00F00000
00F00000
00F00000
00F00000
00F00000
00F00000
00FFF800
00FFFE00
00FFFF80
00F00FC0
00F003C0
00F003C0
00F001E0
00F001E0
00F001E0
00F001E0
00F001E0
00F001E0
00F001E0
00F001E0
00F001E0
00F001E0
00F001E0
00F001E0
ENDCHAR
STARTCHAR 040C
ENCODING 1036
SWIDTH 585 0
DWIDTH 26 0
BBX 21 38 4 1
BITMAP
000600
000F00
001F00
003C00
007800
00F000
004000
000000
000000
F00078
F000F8
F001F8
F003F0
F00780
F00780
F00F00
F00E00
F01E00
F01C00
F03C00
F03800
F07800
FFF000
FFF000
FFF000
F07800
F03C00
F03E00
F01E00
F00F00
F00F80
F00780
F003C0
F001E0
F001E0
F000F0
F00078
F00078
ENDCHAR
STARTCHAR 040D
ENCODING 1037
SWIDTH 652 0
DWIDTH 29 0
BBX 21 38 4 1
BITMAP
030000
078000
03C000
01E000
00F000
007800
001000
000000
000000
F00078
F000F8
F000F8
F001F8
F001F8
F003B8
F007B8
F00738
F00F38
F00E38
F01E38
F01C38
F03C38
F07838
F07078
F0F078
F0E078
F1E078
F3C078
F38078
E78078
E70078
EF0078
EE0078
FE0078
FC0078
F80078
F80078
F00078
ENDCHAR
STARTCHAR 040E
ENCODING 1038
SWIDTH 517 0
DWIDTH 23 0
BBX 23 37 0 0
BITMAP
0701C0
0701C0
0783C0
03C780
01FF00
00FE00
000000
000000
F0001E
78003C
78003C
3C0038
3C0078
1E0078
1E00F0
0E00F0
0F00E0
0701E0
0781E0
0783C0
03C3C0
03C380
01C780
01E700
00E700
00FF00
007E00
007E00
003C00
003C00
003C00
007800
007800
0FF000
0FE000
1FC000
1F8000
ENDCHAR
STARTCHAR 040F
ENCODING 1039
SWIDTH 652 0
DWIDTH 29 0
BBX 21 37 4 -8
BITMAP
F00078
F00078
F00078
F00078
F00078
F00078
F00078
F00078
F00078
F00078
F00078
F00078
F00078
F00078
F00078
F00078
F00078
F00078
F00078
F00078
F00078
F00078
F00078
F00078
F00078
F00078
FFFFF8
FFFFF8
FFFFF8
007000
007000
007000
007000
007000
007000
007000
007000
ENDCHAR
STARTCHAR 0410
ENCODING 1040
SWIDTH 540 0
DWIDTH 24 0
BBX 24 29 0 0
BITMAP
003C00
007E00
007E00
007E00
00F700
00E700
00E700
01E780
01C380
01C380
03C3C0
0381C0
0381C0
0781E0
0700E0
0700E0
0F00F0
0FFFF0
0FFFF0
1FFFF8
1E0078
1C0038
3C003C
3C003C
38001E
78001E
78001E
70000F
F0000F
ENDCHAR
STARTCHAR 0411
ENCODING 1041
SWIDTH 585 0
DWIDTH 26 0
BBX 20 29 4 0
BITMAP
FFFFC0
FFFFC0
FFFFC0
F00000
F00000
F00000
F00000
F00000
F00000
F00000
F00000
F00000
FFF800
FFFF00
FFFFC0
F007E0
F001E0
F000F0
F000F0
F000F0
F000F0
F000F0
F000F0
F000E0
F001E0
F007C0
FFFFC0
FFFF00
FFFC00
ENDCHAR
STARTCHAR 0412
ENCODING 1042
SWIDTH 585 0
DWIDTH 26 0
BBX 20 29 4 0
BITMAP
FFF800
FFFF00
FFFF80
F00FC0
F003C0
F001E0
F001E0
F001E0
F001E0
F001C0
F003C0
F00F80
FFFF00
FFFE00
FFFF80
F007E0
F001E0
F000F0
F000F0
F00070
F00070
F00070
F000F0
F000F0
F001E0
F007E0
FFFFC0
FFFF00
FFFC00
ENDCHAR
STARTCHAR 0413
ENCODING 1043
SWIDTH 495 0
DWIDTH 22 0
BBX 17 29 4 0
BITMAP
FFFF80
FFFF80
FFFF80
F00000
F00000
F00000
F00000
F00000
F00000
F00000
F00000
F00000
F00000
F00000
F00000
F00000
F00000
F00000
F00000
F00000
F00000
F00000
F00000
F00000
F00000
F00000
F00000
F00000
F00000
ENDCHAR
STARTCHAR 0414
ENCODING 1044
SWIDTH 630 0
DWIDTH 28 0
BBX 26 37 1 -8
BITMAP
00FFFE00
00FFFE00
00FFFE00
00E01E00
01E01E00
01E01E00
01E01E00
01C01E00
01C01E00
01C01E00
03C01E00
03C01E00
03C01E00
03801E00
03801E00
03801E00
07801E00
07801E00
07001E00
07001E00
0F001E00
0F001E00
0E001E00
1E001E00
1C001E00
3C001E00
FFFFFFC0
FFFFFFC0
FFFFFFC0
F00001C0
F00001C0
F00001C0
F00001C0
F00001C0
F00001C0
F00001C0
F00001C0
ENDCHAR
STARTCHAR 0415
ENCODING 1045
SWIDTH 517 0
DWIDTH 23 0
BBX 17 29 4 0
BITMAP
FFFF80
FFFF80
FFFF80
F00000
F00000
F00000
F00000
F00000
F00000
F00000
F00000
F00000
FFFE00
FFFE00
FFFE00
F00000
F00000
F00000
F00000
F00000
F00000
F00000
F00000
F00000
F00000
F00000
FFFF80
FFFF80
FFFF80
ENDCHAR
STARTCHAR 0416
ENCODING 1046
SWIDTH 810 0
DWIDTH 36 0
BBX 34 29 1 0
BITMAP
F001E003C0
F801E007C0
FC01E00FC0
FE01E01FC0
1E01E01C00
0F01E03C00
0701E03800
0781E07800
0381E07000
03C1E0F000
03C1E0E000
01E1E1E000
01E1E1C000
00FFFFC000
00FFFFC000
01FFFFC000
01E1E1E000
03C1E0F000
0381E0F000
0781E07800
0F01E07800
0F01E03C00
1E01E01E00
1E01E01E00
3C01E00F00
7801E00F00
7801E00780
F001E003C0
F001E003C0
ENDCHAR
STARTCHAR 0417
ENCODING 1047
SWIDTH 562 0
DWIDTH 25 0
BBX 21 29 2 0
BITMAP
01FC00
0FFF00
3FFF80
7F0FC0
3803E0
0001E0
0000E0
0000E0
0000E0
0001E0
0001C0
0007C0
03FF80
03FE00
03FFC0
0007E0
0001F0
0000F0
000078
000078
000078
000078
000078
6000F0
F801F0
7F0FE0
3FFFC0
1FFF80
03FC00
ENDCHAR
STARTCHAR 0418
ENCODING 1048
SWIDTH 652 0
DWIDTH 29 0
BBX 21 29 4 0
BITMAP
F00078
F000F8
F000F8
F001F8
F001F8
F003B8
F007B8
F00738
F00F38
F00E38
F01E38
F01C38
F03C38
F07838
F07078
F0F078
F0E078
F1E078
F3C078
F38078
E78078
E70078
EF0078
EE0078
FE0078
FC0078
F80078
F80078
F00078
ENDCHAR
STARTCHAR 0419
ENCODING 1049
SWIDTH 652 0
DWIDTH 29 0
BBX 21 37 4 0
BITMAP
0E0380
0E0380
070380
078700
03FF00
00FC00
000000
000000
F00078
F000F8
F000F8
F001F8
F001F8
F003B8
F007B8
F00738
F00F38
F00E38
F01E38
F01C38
F03C38
F07838
F07078
F0F078
F0E078
F1E078
F3C078
F38078
E78078
E70078
EF0078
EE0078
FE0078
FC0078
F80078
F80078
F00078
ENDCHAR
STARTCHAR 041A
ENCODING 1050
SWIDTH 585 0
DWIDTH 26 0
BBX 21 29 4 0
BITMAP
F00078
F000F8
F001F8
F003F0
F00780
F00780
F00F00
F00E00
F01E00
F01C00
F03C00
F03800
F07800
FFF000
FFF000
FFF000
F07800
F03C00
F03E00
F01E00
F00F00
F00F80
F00780
F003C0
F001E0
F001E0
F000F0
F00078
F00078
ENDCHAR
STARTCHAR 041B
ENCODING 1051
SWIDTH 630 0
DWIDTH 28 0
BBX 24 29 0 0
BITMAP
007FFF
007FFF
007FFF
00700F
00700F
00F00F
00F00F
00F00F
00E00F
00E00F
00E00F
01E00F
01E00F
01C00F
01C00F
01C00F
03C00F
03C00F
03C00F
03800F
03800F
07800F
07800F
07000F
0F000F
7F000F
FE000F
FC000F
F8000F
ENDCHAR
STARTCHAR 041C
ENCODING 1052
SWIDTH 720 0
DWIDTH 32 0
BBX 24 29 4 0
BITMAP
F8000F
F8001F
F8001F
FC001F
FC003F
FC003F
EE0077
EE0077
EF0077
E700E7
E700E7
E380E7
E381C7
E381C7
E1C1C7
E1C387
E1C387
E0E307
E0E707
E0F707
E07607
E07E07
E03E07
E03C07
E03C07
E01C07
E00007
E00007
E00007
ENDCHAR
STARTCHAR 041D
ENCODING 1053
SWIDTH 652 0
DWIDTH 29 0
BBX 21 29 4 0
BITMAP
F00078
F00078
F00078
F00078
F00078
F00078
F00078
F00078
F00078
F00078
F00078
F00078
FFFFF8
FFFFF8
FFFFF8
F00078
F00078
F00078
F00078
F00078
F00078
F00078
F00078
F00078
F00078
F00078
F00078
F00078
F00078
ENDCHAR
STARTCHAR 041E
ENCODING 1054
SWIDTH 675 0
DWIDTH 30 0
BBX 25 29 2 0
BITMAP
007F0000
01FFE000
07FFF000
0FE1F800
1F007C00
1E003E00
3C001F00
3C000F00
78000F00
78000780
78000780
70000780
F0000780
F0000780
F0000780
F0000780
F0000780
70000780
78000780
78000780
78000F00
3C000F00
3C001E00
1E003E00
1F807C00
0FE1F800
07FFF000
01FFE000
007F0000
ENDCHAR
STARTCHAR 041F
ENCODING 1055
SWIDTH 652 0
DWIDTH 29 0
BBX 21 29 4 0
BITMAP
FFFFF8
FFFFF8
FFFFF8
F00078
F00078
F00078
F00078
F00078
F00078
F00078
F00078
F00078
F00078
F00078
F00078
F00078
F00078
F00078
F00078
F00078
F00078
F00078
F00078
F00078
F00078
F00078
F00078
F00078
F00078
ENDCHAR
STARTCHAR 0420
ENCODING 1056
SWIDTH 562 0
DWIDTH 25 0
BBX 19 29 4 0
BITMAP
FFF800
FFFF00
FFFF80
F00FC0
F003C0
F001E0
F001E0
F001E0
F000E0
F000E0
F001E0
F001E0
F001E0
F003C0
F00FC0
FFFF80
FFFE00
FFF800
F00000
F00000
F00000
F00000
F00000
F00000
F00000
F00000
F00000
F00000
F00000
ENDCHAR
STARTCHAR 0421
ENCODING 1057
SWIDTH 562 0
DWIDTH 25 0
BBX 22 29 2 0
BITMAP
003F80
01FFE0
03FFF0
0FE1F8
0F8030
1E0010
3C0000
3C0000
780000
780000
780000
700000
F00000
F00000
F00000
F00000
F00000
700000
780000
780000
780000
3C0000
3C0000
1E0018
1F803C
0FE1F8
07FFF0
01FFE0
007F00
ENDCHAR
STARTCHAR 0422
ENCODING 1058
SWIDTH 540 0
DWIDTH 24 0
BBX 22 29 1 0
BITMAP
FFFFFC
FFFFFC
FFFFFC
007800
007800
007800
007800
007800
007800
007800
007800
007800
007800
007800
007800
007800
007800
007800
007800
007800
007800
007800
007800
007800
007800
007800
007800
007800
007800
ENDCHAR
STARTCHAR 0423
ENCODING 1059
SWIDTH 517 0
DWIDTH 23 0
BBX 23 29 0 0
BITMAP
F0001E
78003C
78003C
3C0038
3C0078
1E0078
1E00F0
0E00F0
0F00E0
0701E0
0781E0
0783C0
03C3C0
03C380
01C780
01E700
00E700
00FF00
007E00
007E00
003C00
003C00
003C00
007800
007800
0FF000
0FE000
1FC000
1F8000
ENDCHAR
STARTCHAR 0424
ENCODING 1060
SWIDTH 742 0
DWIDTH 33 0
BBX 28 29 2 0
BITMAP
00070000
00070000
00070000
007FF000
03FFFE00
0FFFFF80
1FFFFFC0
3F871FE0
7E0703E0
780701F0
780700F0
F00700F0
F0070070
F0070070
F0070070
F0070070
F0070070
700700F0
780700F0
7C0701E0
3E0703C0
1F871F80
0FFFFF00
03FFFC00
007FE000
00070000
00070000
00070000
00070000
ENDCHAR
STARTCHAR 0425
ENCODING 1061
SWIDTH 517 0
DWIDTH 23 0
BBX 21 29 1 0
BITMAP
7800F0
7800F0
3C01E0
3C01E0
1E03C0
1E03C0
0F0780
0F0700
078F00
038E00
03DE00
01FC00
01FC00
00F800
00F800
01F800
01FC00
03DE00
039E00
078F00
0F0F00
0F0780
1E0780
1E03C0
3C01E0
3801E0
7800F0
F000F0
F00078
ENDCHAR
STARTCHAR 0426
ENCODING 1062
SWIDTH 652 0
DWIDTH 29 0
BBX 23 37 4 -8
BITMAP
F000F0
F000F0
F000F0
F000F0
F000F0
F000F0
F000F0
F000F0
F000F0
F000F0
F000F0
F000F0
F000F0
F000F0
F000F0
F000F0
F000F0
F000F0
F000F0
F000F0
F000F0
F000F0
F000F0
F000F0
F000F0
F000F0
FFFFFE
FFFFFE
FFFFFE
00000E
00000E
00000E
00000E
00000E
00000E
00000E
00000E
ENDCHAR
STARTCHAR 0427
ENCODING 1063
SWIDTH 607 0
DWIDTH 27 0
BBX 20 29 3 0
BITMAP
F000F0
F000F0
F000F0
F000F0
F000F0
F000F0
F000F0
F000F0
F000F0
F000F0
F800F0
7800F0
7E00F0
3FFFF0
0FFFF0
03FFF0
0000F0
0000F0
0000F0
0000F0
0000F0
0000F0
0000F0
0000F0
0000F0
0000F0
0000F0
0000F0
0000F0
ENDCHAR
STARTCHAR 0428
ENCODING 1064
SWIDTH 855 0
DWIDTH 38 0
BBX 30 29 4 0
BITMAP
F007801C
F007801C
F007801C
F007801C
F007801C
F007801C
F007801C
F007801C
F007801C
F007801C
F007801C
F007801C
F007801C
F007801C
F007801C
F007801C
F007801C
F007801C
F007801C
F007801C
F007801C
F007801C
F007801C
F007801C
F007801C
F007801C
FFFFFFFC
FFFFFFFC
FFFFFFFC
ENDCHAR
STARTCHAR 0429
ENCODING 1065
SWIDTH 877 0
DWIDTH 39 0
BBX 34 37 4 -8
BITMAP
F007801C00
F007801C00
F007801C00
F007801C00
F007801C00
F007801C00
F007801C00
F007801C00
F007801C00
F007801C00
F007801C00
F007801C00
F007801C00
F007801C00
F007801C00
F007801C00
F007801C00
F007801C00
F007801C00
F007801C00
F007801C00
F007801C00
F007801C00
F007801C00
F007801C00
F007801C00
FFFFFFFFC0
FFFFFFFFC0
FFFFFFFFC0
00000003C0
00000003C0
00000003C0
0000000380
0000000380
0000000380
0000000380
0000000380
ENDCHAR
STARTCHAR 042A
ENCODING 1066
SWIDTH 720 0
DWIDTH 32 0
BBX 29 29 1 0
BITMAP
FFF80000
FFF80000
FFF80000
00380000
00380000
00380000
00380000
00380000
00380000
00380000
00380000
00380000
003FFE00
003FFF80
003FFFE0
003803F0
003800F0
00380078
00380078
00380078
00380078
00380078
00380078
00380078
003800F0
003803E0
003FFFE0
003FFF80
003FFE00
ENDCHAR
STARTCHAR 042B
ENCODING 1067
SWIDTH 787 0
DWIDTH 35 0
BBX 27 29 4 0
BITMAP
F00000E0
F00000E0
F00000E0
F00000E0
F00000E0
F00000E0
F00000E0
F00000E0
F00000E0
F00000E0
F00000E0
F00000E0
FFF800E0
FFFE00E0
FFFF80E0
F00FC0E0
F003C0E0
F001E0E0
F001E0E0
F001E0E0
F001E0E0
F001E0E0
F001E0E0
F001C0E0
F003C0E0
F00F80E0
FFFF00E0
FFFE00E0
FFF800E0
ENDCHAR
STARTCHAR 042C
ENCODING 1068
SWIDTH 585 0
DWIDTH 26 0
BBX 20 29 4 0
BITMAP
F00000
F00000
F00000
F00000
F00000
F00000
F00000
F00000
F00000
F00000
F00000
F00000
FFFC00
FFFF00
FFFFC0
F00FE0
F001E0
F001E0
F000F0
F000F0
F000F0
F000F0
F000F0
F001E0
F003E0
F00FC0
FFFF80
FFFF00
FFF800
ENDCHAR
STARTCHAR 042D
ENCODING 1069
SWIDTH 562 0
DWIDTH 25 0
BBX 21 29 2 0
BITMAP
03F800
1FFE00
7FFF80
FC1FC0
7007C0
0001E0
0001F0
0000F0
000070
000078
000078
000078
07FFF8
07FFF8
07FFF8
000078
000078
000078
000078
000070
0000F0
0000F0
0001E0
6001E0
F007C0
FC1F80
7FFF00
1FFE00
07F000
ENDCHAR
STARTCHAR 042E
ENCODING 1070
SWIDTH 900 0
DWIDTH 40 0
BBX 34 29 4 0
BITMAP
F0001FC000
F000FFF000
F001FFF800
F003F0FC00
F007C03E00
F00F801F00
F00F000F00
F01E000780
F01E000780
F01E0003C0
F03C0003C0
F03C0003C0
FFFC0003C0
FFFC0003C0
FFFC0003C0
F03C0003C0
F03C0003C0
F03C0003C0
F01C0003C0
F01E000380
F01E000780
F01E000780
F00F000F00
F00F801F00
F007C03E00
F003F0FC00
F001FFF800
F000FFF000
F0001F8000
ENDCHAR
STARTCHAR 042F
ENCODING 1071
SWIDTH 585 0
DWIDTH 26 0
BBX 21 29 1 0
BITMAP
00FFF8
07FFF8
0FFFF8
1F0078
3E0078
3C0078
380078
380078
380078
380078
3C0078
3C0078
3E0078
1F8078
0FFFF8
07FFF8
00FFF8
00E078
01E078
03C078
03C078
078078
0F0078
0F0078
1E0078
3C0078
3C0078
780078
F80078
ENDCHAR
STARTCHAR 0430
ENCODING 1072
SWIDTH 495 0
DWIDTH 22 0
BBX 17 22 2 0
BITMAP
03F800
0FFE00
3FFF00
3C1F00
300780
000780
000780
000380
000780
01FF80
07FF80
1F0380
3C0380
780380
700380
F00380
F00780
F00F80
783F80
7FFB80
3FE380
0F8380
ENDCHAR
STARTCHAR 0431
ENCODING 1073
SWIDTH 540 0
DWIDTH 24 0
BBX 20 32 2 1
BITMAP
0003E0
003FE0
01FFE0
07FF80
0FF000
1F0000
1E0000
3C0000
380000
780000
780000
707C00
73FF00
77FFC0
7E07C0
FC01E0
F801E0
F000F0
F000F0
F000F0
F000F0
7000F0
7000F0
7000F0
7800F0
7801E0
3C01E0
3E03C0
1F07C0
0FFF80
07FF00
01F800
ENDCHAR
STARTCHAR 0432
ENCODING 1074
SWIDTH 517 0
DWIDTH 23 0
BBX 17 22 4 0
BITMAP
FFF000
FFFC00
FFFE00
E01F00
E00F00
E00F00
E00F00
E00F00
E01E00
FFFC00
FFF000
FFFE00
E01F00
E00F00
E00780
E00780
E00780
E00780
E00F00
FFFF00
FFFC00
FFF000
ENDCHAR
STARTCHAR 0433
ENCODING 1075
SWIDTH 405 0
DWIDTH 18 0
BBX 13 22 4 0
BITMAP
FFF8
FFF8
FFF8
E000
E000
E000
E000
E000
E000
E000
E000
E000
E000
E000
E000
E000
E000
E000
E000
E000
E000
E000
ENDCHAR
STARTCHAR 0434
ENCODING 1076
SWIDTH 540 0
DWIDTH 24 0
BBX 22 30 1 -8
BITMAP
07FFE0
07FFE0
07FFE0
0701E0
0701E0
0F01E0
0F01E0
0E01E0
0E01E0
0E01E0
0E01E0
0E01E0
0E01E0
1E01E0
1E01E0
1C01E0
1C01E0
3C01E0
3801E0
FFFFFC
FFFFFC
FFFFFC
E0003C
E0003C
E0003C
E00038
E00038
E00038
E00038
E00038
ENDCHAR
STARTCHAR 0435
ENCODING 1077
SWIDTH 495 0
DWIDTH 22 0
BBX 18 22 2 0
BITMAP
01F800
07FE00
0FFF00
1E0F80
3C0380
7803C0
7001C0
7001C0
F001C0
FFFFC0
FFFFC0
FFFFC0
F00000
F00000
F00000
780000
780000
3C0000
3F0380
1FFF80
07FF00
01FC00
ENDCHAR
STARTCHAR 0436
ENCODING 1078
SWIDTH 675 0
DWIDTH 30 0
BBX 28 22 1 0
BITMAP
F00F0070
F80F01F0
7C0F03F0
7E0F03E0
0E0F0780
0F0F0700
070F0E00
078F0E00
038F1E00
03FFFC00
03FFFC00
03FFFE00
078F0E00
070F0F00
0F0F0700
1E0F0780
1E0F0380
3C0F03C0
380F01E0
780F01E0
F00F00F0
F00F00F0
ENDCHAR
STARTCHAR 0437
ENCODING 1079
SWIDTH 450 0
DWIDTH 20 0
BBX 17 22 2 0
BITMAP
0FE000
3FF800
FFFE00
703E00
000E00
000F00
000F00
000E00
001E00
0FFC00
0FF000
0FFC00
001E00
000F00
000700
000780
000700
400F00
F01F00
FFFE00
7FFC00
0FE000
ENDCHAR
STARTCHAR 0438
ENCODING 1080
SWIDTH 562 0
DWIDTH 25 0
BBX 17 22 4 0
BITMAP
E00380
E00780
E00F80
E00F80
E01F80
E03F80
E03B80
E07380
E0F380
E0E380
E1E380
E1C380
E38380
E78380
E70380
EE0380
EE0380
FC0380
F80380
F80380
F00380
E00380
ENDCHAR
STARTCHAR 0439
ENCODING 1081
SWIDTH 562 0
DWIDTH 25 0
BBX 17 33 4 0
BITMAP
380700
380700
380E00
3C0E00
1E1C00
0FF800
07F000
000000
000000
000000
000000
E00380
E00780
E00F80
E00F80
E01F80
E03F80
E03B80
E07380
E0F380
E0E380
E1E380
E1C380
E38380
E78380
E70380
EE0380
EE0380
FC0380
F80380
F80380
F00380
E00380
ENDCHAR
STARTCHAR 043A
ENCODING 1082
SWIDTH 495 0
DWIDTH 22 0
BBX 17 22 4 0
BITMAP
E00700
E00F00
E01F00
E03F00
E03800
E07000
E07000
E0F000
E0E000
FFE000
FFC000
FFE000
E0F000
E0F000
E07800
E03800
E03C00
E01E00
E01E00
E00F00
E00780
E00780
ENDCHAR
STARTCHAR 043B
ENCODING 1083
SWIDTH 540 0
DWIDTH 24 0
BBX 19 22 1 0
BITMAP
03FFE0
07FFE0
07FFE0
0781E0
0701E0
0701E0
0701E0
0701E0
0701E0
0701E0
0F01E0
0F01E0
0E01E0
0E01E0
0E01E0
0E01E0
1E01E0
1E01E0
FC01E0
FC01E0
F801E0
F001E0
ENDCHAR
STARTCHAR 043C
ENCODING 1084
SWIDTH 630 0
DWIDTH 28 0
BBX 20 22 4 0
BITMAP
F000F0
F000F0
F801F0
F801F0
FC01B0
FC03B0
FE03F0
EE0770
EE0770
E70770
E70E70
E78E70
E39C70
E39C70
E1DC70
E1F870
E1F870
E0F070
E0F070
E07070
E00070
E00070
ENDCHAR
STARTCHAR 043D
ENCODING 1085
SWIDTH 562 0
DWIDTH 25 0
BBX 17 22 4 0
BITMAP
E00380
E00380
E00380
E00380
E00380
E00380
E00380
E00380
E00380
FFFF80
FFFF80
FFFF80
E00380
E00380
E00380
E00380
E00380
E00380
E00380
E00380
E00380
E00380
ENDCHAR
STARTCHAR 043E
ENCODING 1086
SWIDTH 540 0
DWIDTH 24 0
BBX 20 22 2 0
BITMAP
01F800
07FE00
0FFF80
1F0FC0
3C03C0
7801E0
7801E0
7000F0
F000F0
F000F0
F000F0
F000F0
F000F0
F000F0
F000F0
7801E0
7801E0
3C03C0
1F0FC0
1FFF80
07FE00
01F800
ENDCHAR
STARTCHAR 043F
ENCODING 1087
SWIDTH 562 0
DWIDTH 25 0
BBX 17 22 4 0
BITMAP
FFFF80
FFFF80
FFFF80
E00780
E00780
E00780
E00780
E00780
E00780
E00780
E00780
E00780
E00780
E00780
E00780
E00780
E00780
E00780
E00780
E00780
E00780
E00780
ENDCHAR
STARTCHAR 0440
ENCODING 1088
SWIDTH 562 0
DWIDTH 25 0
BBX 19 31 4 -9
BITMAP
E1F800
E7FE00
EFFF00
FE1F80
F80780
F003C0
E003C0
E003C0
E001C0
E001E0
E001E0
E001E0
E001C0
E003C0
E003C0
E003C0
E00780
F00F80
FC1F00
FFFE00
E7FC00
E1F000
E00000
E00000
E00000
E00000
E00000
E00000
E00000
E00000
E00000
ENDCHAR
STARTCHAR 0441
ENCODING 1089
SWIDTH 450 0
DWIDTH 20 0
BBX 17 22 2 0
BITMAP
01FC00
07FF00
0FFF80
1F0700
3C0200
7C0000
780000
700000
F00000
F00000
F00000
F00000
F00000
F00000
F00000
780000
7C0000
3C0100
3F0780
1FFF80
07FE00
01F800
ENDCHAR
STARTCHAR 0442
ENCODING 1090
SWIDTH 450 0
DWIDTH 20 0
BBX 18 22 1 0
BITMAP
FFFFC0
FFFFC0
FFFFC0
01E000
01E000
01E000
01E000
01E000
01E000
01E000
01E000
01E000
01E000
01E000
01E000
01E000
01E000
01E000
01E000
01E000
01E000
01E000
ENDCHAR
STARTCHAR 0443
ENCODING 1091
SWIDTH 472 0
DWIDTH 21 0
BBX 19 31 1 -9
BITMAP
E001E0
F001E0
7001C0
7801C0
7803C0
380380
3C0380
1C0780
1C0700
1E0700
0E0F00
0F0E00
0F0E00
071E00
079C00
039C00
03B800
03F800
01F800
01F000
00F000
00F000
00E000
00E000
01E000
01C000
03C000
078000
7F0000
7E0000
FC0000
ENDCHAR
STARTCHAR 0444
ENCODING 1092
SWIDTH 742 0
DWIDTH 33 0
BBX 29 41 2 -9
BITMAP
00070000
00070000
00070000
00070000
00070000
00070000
00070000
00070000
00070000
00070000
03E73E00
0FFFFF80
1FFFFFC0
3E1FC3E0
3C0701E0
780700F0
780700F0
700700F0
F0070070
F0070078
F0070078
F0070078
F0070070
F0070070
F00700F0
780700F0
780700E0
7C0701E0
3E1FC7C0
1FFFFFC0
0FF7FF80
07E73E00
00070000
00070000
00070000
00070000
00070000
00070000
00070000
00070000
00070000
ENDCHAR
STARTCHAR 0445
ENCODING 1093
SWIDTH 450 0
DWIDTH 20 0
BBX 18 22 1 0
BITMAP
F00380
780780
3C0700
3C0F00
1E1E00
0E1C00
0F3C00
07B800
07F800
03F000
01E000
03F000
07F000
077800
0F3800
0E3C00
1E1E00
3C1E00
380F00
780780
700780
F003C0
ENDCHAR
STARTCHAR 0446
ENCODING 1094
SWIDTH 562 0
DWIDTH 25 0
BBX 20 30 4 -8
BITMAP
E00780
E00780
E00780
E00780
E00780
E00780
E00780
E00780
E00780
E00780
E00780
E00780
E00780
E00780
E00780
E00780
E00780
E00780
E00780
FFFFF0
FFFFF0
FFFFF0
0000F0
0000F0
0000F0
0000F0
0000F0
0000E0
0000E0
0000E0
ENDCHAR
STARTCHAR 0447
ENCODING 1095
SWIDTH 517 0
DWIDTH 23 0
BBX 16 22 3 0
BITMAP
E00F
E00F
E00F
E00F
E00F
E00F
E00F
E00F
F00F
F00F
FC0F
7FFF
3FFF
0FFF
000F
000F
000F
000F
000F
000F
000F
000F
ENDCHAR
STARTCHAR 0448
ENCODING 1096
SWIDTH 742 0
DWIDTH 33 0
BBX 26 22 4 0
BITMAP
E01C03C0
E01C03C0
E01C03C0
E01C03C0
E01C03C0
E01C03C0
E01C03C0
E01C03C0
E01C03C0
E01C03C0
E01C03C0
E01C03C0
E01C03C0
E01C03C0
E01C03C0
E01C03C0
E01C03C0
E01C03C0
E01C03C0
FFFFFFC0
FFFFFFC0
FFFFFFC0
ENDCHAR
STARTCHAR 0449
ENCODING 1097
SWIDTH 765 0
DWIDTH 34 0
BBX 29 30 4 -8
BITMAP
E01C03C0
E01C03C0
E01C03C0
E01C03C0
E01C03C0
E01C03C0
E01C03C0
E01C03C0
E01C03C0
E01C03C0
E01C03C0
E01C03C0
E01C03C0
E01C03C0
E01C03C0
E01C03C0
E01C03C0
E01C03C0
E01C03C0
FFFFFFF8
FFFFFFF8
FFFFFFF8
00000078
00000078
00000078
00000078
00000078
00000078
00000070
00000070
ENDCHAR
STARTCHAR 044A
ENCODING 1098
SWIDTH 585 0
DWIDTH 26 0
BBX 24 22 1 0
BITMAP
FFE000
FFE000
FFE000
00E000
00E000
00E000
00E000
00E000
00FFC0
00FFF8
00FFFC
00E03E
00E01E
00E00F
00E00F
00E00F
00E00F
00E01E
00E03E
00FFFC
00FFF8
00FFE0
ENDCHAR
STARTCHAR 044B
ENCODING 1099
SWIDTH 675 0
DWIDTH 30 0
BBX 22 22 4 0
BITMAP
E0001C
E0001C
E0001C
E0001C
E0001C
E0001C
E0001C
E0001C
FFC01C
FFF01C
FFF81C
E07C1C
E01E1C
E01E1C
E01E1C
E01E1C
E01E1C
E01E1C
E07C1C
FFF81C
FFF01C
FFC01C
ENDCHAR
STARTCHAR 044C
ENCODING 1100
SWIDTH 495 0
DWIDTH 22 0
BBX 16 22 4 0
BITMAP
E000
E000
E000
E000
E000
E000
E000
E000
FFE0
FFF8
FFFC
E03E
E00F
E00F
E00F
E00F
E00F
E00F
E03E
FFFC
FFF8
FFE0
ENDCHAR
STARTCHAR 044D
ENCODING 1101
SWIDTH 450 0
DWIDTH 20 0
BBX 17 22 1 0
BITMAP
0FE000
3FF800
7FFC00
703E00
201F00
000F00
000780
000780
000780
0FFF80
0FFF80
0FFF80
000380
000380
000780
000780
000F00
401F00
703E00
FFFC00
3FF800
0FC000
ENDCHAR
STARTCHAR 044E
ENCODING 1102
SWIDTH 742 0
DWIDTH 33 0
BBX 27 22 4 0
BITMAP
E003F000
E00FFE00
E01FFF00
E03E1F80
E03C0780
E07803C0
E07003C0
E0F001C0
E0F001E0
FFE001E0
FFE001E0
FFE001E0
E0E001E0
E0F001E0
E0F001C0
E07003C0
E07803C0
E03C0780
E03E1F00
E01FFF00
E00FFC00
E003F000
ENDCHAR
STARTCHAR 044F
ENCODING 1103
SWIDTH 517 0
DWIDTH 23 0
BBX 17 22 2 0
BITMAP
03FF80
1FFF80
3FFF80
3E0380
780380
780380
780380
780380
780380
3E0380
1FFF80
0FFF80
03FF80
078380
078380
0F0380
1E0380
1E0380
3C0380
780380
F80380
F00380
ENDCHAR
STARTCHAR 0450
ENCODING 1104
SWIDTH 495 0
DWIDTH 22 0
BBX 18 34 2 1
BITMAP
060000
0F0000
0F8000
078000
03C000
01E000
00F000
007000
002000
000000
000000
000000
01F800
07FE00
0FFF00
1E0F80
3C0380
7803C0
7001C0
7001C0
F001C0
FFFFC0
FFFFC0
FFFFC0
F00000
F00000
F00000
780000
780000
3C0000
3F0380
1FFF80
07FF00
01FC00
ENDCHAR
STARTCHAR 0451
ENCODING 1105
SWIDTH 495 0
DWIDTH 22 0
BBX 18 30 2 0
BITMAP
0E0F00
1F0F00
1F0F00
0E0600
000000
000000
000000
000000
01F800
07FE00
0FFF00
1E0F80
3C0380
7803C0
7001C0
7001C0
F001C0
FFFFC0
FFFFC0
FFFFC0
F00000
F00000
F00000
780000
780000
3C0000
3F0380
1FFF80
07FF00
01FC00
ENDCHAR
STARTCHAR 0452
ENCODING 1106
SWIDTH 540 0
DWIDTH 24 0
BBX 22 41 0 -9
BITMAP
0E0000
0E0000
0E0000
0E0000
FFFE00
FFFE00
0E0000
0E0000
0E0000
0E0000
0E0000
0E0F80
0E3FE0
0EFFF0
0FE1F0
0F80F8
0F0078
0E003C
0E003C
0E003C
0E003C
0E003C
0E003C
0E003C
0E003C
0E003C
0E003C
0E003C
0E003C
0E003C
0E003C
0E003C
00003C
000038
000078
000078
0000F0
0001F0
001FE0
001FC0
001F00
ENDCHAR
STARTCHAR 0453
ENCODING 1107
SWIDTH 405 0
DWIDTH 18 0
BBX 13 35 4 0
BITMAP
0020
0070
0078
00F0
01E0
03C0
0780
0700
0200
0000
0000
0000
0000
FFF8
FFF8
FFF8
E000
E000
E000
E000
E000
E000
E000
E000
E000
E000
E000
E000
E000
E000
E000
E000
E000
E000
E000
ENDCHAR
STARTCHAR 0454
ENCODING 1108
SWIDTH 450 0
DWIDTH 20 0
BBX 17 22 2 0
BITMAP
01FC00
07FE00
1FFF80
1E0700
3C0000
780000
780000
700000
F00000
FFFC00
FFFC00
FFFC00
F00000
F00000
F00000
700000
780000
3C0100
3F0780
1FFF80
0FFE00
01F800
ENDCHAR
STARTCHAR 0455
ENCODING 1109
SWIDTH 427 0
DWIDTH 19 0
BBX 15 22 2 0
BITMAP
07E0
1FF8
3FFC
781C
7008
F000
F000
7800
7C00
3F80
1FE0
07F8
00FC
003E
001E
000E
000E
C01E
F03C
FFFC
7FF8
0FE0
ENDCHAR
STARTCHAR 0456
ENCODING 1110
SWIDTH 247 0
DWIDTH 11 0
BBX 5 31 3 0
BITMAP
70
F8
F8
F8
70
00
00
00
00
70
70
70
70
70
70
70
70
70
70
70
70
70
70
70
70
70
70
70
70
70
70
ENDCHAR
STARTCHAR 0457
ENCODING 1111
SWIDTH 247 0
DWIDTH 11 0
BBX 13 31 -1 0
BITMAP
7070
F078
F078
F078
0000
0000
0000
0000
0000
0700
0700
0700
0700
0700
0700
0700
0700
0700
0700
0700
0700
0700
0700
0700
0700
0700
0700
0700
0700
0700
0700
ENDCHAR
STARTCHAR 0458
ENCODING 1112
SWIDTH 247 0
DWIDTH 11 0
BBX 10 40 -2 -9
BITMAP
0380
07C0
07C0
07C0
0380
0000
0000
0000
0000
0380
0380
0380
0380
0380
0380
0380
0380
0380
0380
0380
0380
0380
0380
0380
0380
0380
0380
0380
0380
0380
0380
0380
0380
0380
0380
0780
0780
7F00
FF00
FC00
ENDCHAR
STARTCHAR 0459
ENCODING 1113
SWIDTH 742 0
DWIDTH 33 0
BBX 30 22 1 0
BITMAP
07FFC000
07FFC000
07FFC000
0781C000
0781C000
0701C000
0701C000
0701C000
0701FF80
0701FFE0
0701FFF0
0701C0F8
0F01C038
0F01C03C
0F01C03C
0E01C03C
0E01C03C
1E01C038
FC01C0F8
FC01FFF0
F801FFE0
F001FF80
ENDCHAR
STARTCHAR 045A
ENCODING 1114
SWIDTH 765 0
DWIDTH 34 0
BBX 28 22 4 0
BITMAP
E0070000
E0070000
E0070000
E0070000
E0070000
E0070000
E0070000
E0070000
E007FC00
FFFFFF80
FFFFFFC0
FFFF03E0
E00701F0
E00700F0
E00700F0
E00700F0
E00700F0
E00700E0
E00703E0
E007FFC0
E007FF80
E007FE00
ENDCHAR
STARTCHAR 045B
ENCODING 1115
SWIDTH 540 0
DWIDTH 24 0
BBX 21 32 0 0
BITMAP
0E0000
0E0000
0E0000
0E0000
FFFE00
FFFE00
0E0000
0E0000
0E0000
0E0000
0E0000
0E0F80
0E3FE0
0EFFF0
0FE1F0
0FC0F0
0F0078
0E0078
0E0078
0E0078
0E0078
0E0078
0E0078
0E0078
0E0078
0E0078
0E0078
0E0078
0E0078
0E0078
0E0078
0E0078
ENDCHAR
STARTCHAR 045C
ENCODING 1116
SWIDTH 495 0
DWIDTH 22 0
BBX 17 35 4 0
BITMAP
000800
001C00
003C00
007800
00F000
01E000
03C000
038000
010000
000000
000000
000000
000000
E00700
E00F00
E01F00
E03F00
E03800
E07000
E07000
E0F000
E0E000
FFE000
FFC000
FFE000
E0F000
E0F000
E07800
E03800
E03C00
E01E00
E01E00
E00F00
E00780
E00780
ENDCHAR
STARTCHAR 045D
ENCODING 1117
SWIDTH 562 0
DWIDTH 25 0
BBX 17 35 4 0
BITMAP
080000
1C0000
3E0000
0F0000
078000
03C000
01C000
00E000
004000
000000
000000
000000
000000
E00380
E00780
E00F80
E00F80
E01F80
E03F80
E03B80
E07380
E0F380
E0E380
E1E380
E1C380
E38380
E78380
E70380
EE0380
EE0380
FC0380
F80380
F80380
F00380
E00380
ENDCHAR
STARTCHAR 045E
ENCODING 1118
SWIDTH 472 0
DWIDTH 21 0
BBX 19 42 1 -9
BITMAP
1C0380
1C0380
1C0700
0E0700
0F0F00
07FE00
03F800
000000
000000
000000
000000
E001E0
F001E0
7001C0
7801C0
7803C0
380380
3C0380
1C0780
1C0700
1E0700
0E0F00
0F0E00
0F0E00
071E00
079C00
039C00
03B800
03F800
01F800
01F000
00F000
00F000
00E000
00E000
01E000
01C000
03C000
078000
7F0000
7E0000
FC0000
ENDCHAR
STARTCHAR 045F
ENCODING 1119
SWIDTH 562 0
DWIDTH 25 0
BBX 17 30 4 -8
BITMAP
E00780
E00780
E00780
E00780
E00780
E00780
E00780
E00780
E00780
E00780
E00780
E00780
E00780
E00780
E00780
E00780
E00780
E00780
E00780
FFFF80
FFFF80
FFFF80
01C000
01C000
01C000
01C000
01C000
01C000
01C000
01C000
ENDCHAR
STARTCHAR 0462
ENCODING 1122
SWIDTH 607 0
DWIDTH 27 0
BBX 24 32 1 0
BITMAP
03C000
03C000
03C000
03C000
03C000
03C000
FFFFF8
FFFFF8
FFFFF8
03C000
03C000
03C000
03C000
03C000
03C000
03FF00
03FFF0
03FFFC
03C07E
03C01F
03C00F
03C00F
03C007
03C007
03C007
03C00F
03C00F
03C01E
03C07E
03FFFC
03FFF8
03FFC0
ENDCHAR
STARTCHAR 0463
ENCODING 1123
SWIDTH 585 0
DWIDTH 26 0
BBX 23 27 1 0
BITMAP
01E000
01E000
01E000
01E000
01E000
FFFFE0
FFFFE0
FFFFE0
01E000
01E000
01E000
01E000
01E000
01FF80
01FFF0
01FFF8
01E07C
01E03C
01E01E
01E01E
01E01E
01E01E
01E03C
01E07C
01FFF8
01FFF0
01FFC0
ENDCHAR
STARTCHAR 0472
ENCODING 1138
SWIDTH 675 0
DWIDTH 30 0
BBX 25 29 2 0
BITMAP
007F8000
01FFE000
07FFF800
0FC1FC00
1F003C00
3E001E00
3C000F00
78000F00
78000700
78000780
70000780
F0000780
FFFFFF80
FFFFFF80
FFFFFF80
F0000380
F0000780
70000780
70000780
78000780
78000F00
3C000F00
3C001F00
1E001E00
1F007C00
0FC0F800
07FFF000
01FFE000
007F0000
ENDCHAR
STARTCHAR 0473
ENCODING 1139
SWIDTH 540 0
DWIDTH 24 0
BBX 20 22 2 0
BITMAP
01F800
07FE00
1FFF80
3E07C0
3C03C0
7801E0
7000E0
7000F0
F000F0
FFFFF0
FFFFF0
FFFFF0
F00070
F000F0
F000F0
7000E0
7801E0
3C03C0
3E07C0
1FFF80
07FE00
01F800
ENDCHAR
STARTCHAR 0474
ENCODING 1140
SWIDTH 540 0
DWIDTH 24 0
BBX 25 29 0 0
BITMAP
F0000780
F0001F80
78003F00
78003F00
78003800
3C007800
3C007000
3C007000
1C00F000
1E00F000
1E00E000
0E01E000
0F01E000
0F01C000
0701C000
0783C000
0783C000
03838000
03878000
03C78000
01C70000
01C70000
01EF0000
00EE0000
00EE0000
00FE0000
007E0000
007C0000
007C0000
ENDCHAR
STARTCHAR 0475
ENCODING 1141
SWIDTH 472 0
DWIDTH 21 0
BBX 21 22 1 0
BITMAP
E00078
F000F8
F001F8
7003E0
7803C0
780380
380780
3C0700
1C0700
1C0F00
1E0E00
0E0E00
0E1E00
0F1C00
071C00
071C00
07BC00
03B800
03B800
03F800
01F000
01F000
ENDCHAR
STARTCHAR 0490
ENCODING 1168
SWIDTH 495 0
DWIDTH 22 0
BBX 17 37 4 0
BITMAP
000380
000380
000380
000380
000380
000380
000780
000780
FFFF80
FFFF80
FFFF80
F00000
F00000
F00000
F00000
F00000
F00000
F00000
F00000
F00000
F00000
F00000
F00000
F00000
F00000
F00000
F00000
F00000
F00000
F00000
F00000
F00000
F00000
F00000
F00000
F00000
F00000
ENDCHAR
STARTCHAR 0491
ENCODING 1169
SWIDTH 405 0
DWIDTH 18 0
BBX 14 30 4 0
BITMAP
001C
001C
001C
003C
003C
003C
0038
0038
FFF8
FFF8
FFF8
E000
E000
E000
E000
E000
E000
E000
E000
E000
E000
E000
E000
E000
E000
E000
E000
E000
E000
E000
ENDCHAR
STARTCHAR 0492
ENCODING 1170
SWIDTH 517 0
DWIDTH 23 0
BBX 21 29 1 0
BITMAP
0FFFF8
0FFFF8
0FFFF8
0F0000
0F0000
0F0000
0F0000
0F0000
0F0000
0F0000
0F0000
0F0000
0F0000
FFFC00
FFFC00
0F0000
0F0000
0F0000
0F0000
0F0000
0F0000
0F0000
0F0000
0F0000
0F0000
0F0000
0F0000
0F0000
0F0000
ENDCHAR
STARTCHAR 0493
ENCODING 1171
SWIDTH 427 0
DWIDTH 19 0
BBX 17 22 1 0
BITMAP
1FFF80
1FFF80
1FFF80
1E0000
1E0000
1E0000
1E0000
1E0000
1E0000
1E0000
FFF800
FFF800
1E0000
1E0000
1E0000
1E0000
1E0000
1E0000
1E0000
1E0000
1E0000
1E0000
ENDCHAR
STARTCHAR 0496
ENCODING 1174
SWIDTH 855 0
DWIDTH 38 0
BBX 35 37 1 -8
BITMAP
F001E003C0
F801E007C0
FC01E00FC0
FE01E01FC0
1E01E01C00
0F01E03C00
0701E03800
0781E07800
0381E07000
03C1E0F000
03C1E0E000
01E1E1E000
01E1E1C000
00FFFFC000
00FFFFC000
01FFFFC000
01E1E1E000
03C1E0F000
0381E0F000
0781E07800
0F01E07800
0F01E03C00
1E01E01E00
1E01E01E00
3C01E00F00
7801E00F00
7801E007E0
F001E003E0
F001E003E0
00000000E0
00000000E0
00000000E0
00000000E0
00000000E0
00000000E0
00000000E0
00000000E0
ENDCHAR
STARTCHAR 0497
ENCODING 1175
SWIDTH 720 0
DWIDTH 32 0
BBX 30 30 1 -8
BITMAP
F00F0070
F80F01F0
7C0F03F0
7E0F03E0
0E0F0780
0F0F0700
070F0E00
078F0E00
038F1E00
03FFFC00
03FFFC00
03FFFE00
078F0E00
070F0F00
0F0F0700
1E0F0780
1E0F0380
3C0F03C0
380F01E0
780F01FC
F00F00FC
F00F00FC
0000001C
0000001C
0000001C
0000001C
0000001C
0000001C
0000001C
0000001C
ENDCHAR
STARTCHAR 0498
ENCODING 1176
SWIDTH 562 0
DWIDTH 25 0
BBX 21 37 2 -8
BITMAP
01FC00
0FFF00
3FFF80
7F0FC0
3803E0
0001E0
0000E0
0000E0
0000E0
0001E0
0001C0
0007C0
03FF80
03FE00
03FFC0
0007E0
0001F0
0000F0
000078
000078
000078
000078
000078
6000F0
F801F0
7E07E0
3FFFC0
1FFF80
03FC00
007000
007000
007000
007000
007000
007000
007000
007000
ENDCHAR
STARTCHAR 0499
ENCODING 1177
SWIDTH 450 0
DWIDTH 20 0
BBX 17 29 2 -7
BITMAP
0FE000
3FF800
FFFE00
703E00
000E00
000F00
000F00
000E00
001E00
0FFC00
0FF000
0FFC00
001E00
000F00
000700
000780
000700
400F00
F01F00
FFFE00
7FFC00
1FF000
03C000
03C000
03C000
038000
038000
038000
038000
ENDCHAR
STARTCHAR 049A
ENCODING 1178
SWIDTH 630 0
DWIDTH 28 0
BBX 23 37 4 -8
BITMAP
F00078
F000F8
F001F8
F003F0
F00780
F00780
F00F00
F00E00
F01E00
F01C00
F03C00
F03800
F07800
FFF000
FFF000
FFF000
F07800
F03C00
F03E00
F01E00
F00F00
F00F80
F00780
F003C0
F001E0
F001E0
F000FE
F0007E
F0007E
00001E
00001E
00001E
00001E
00001E
00001C
00001C
00001C
ENDCHAR
STARTCHAR 049B
ENCODING 1179
SWIDTH 540 0
DWIDTH 24 0
BBX 19 30 4 -8
BITMAP
E00700
E00F00
E01F00
E03F00
E03800
E07000
E07000
E0F000
E0E000
FFE000
FFC000
FFE000
E0F000
E0F000
E07800
E03800
E03C00
E01E00
E01E00
E00FE0
E007E0
E007E0
0001E0
0001E0
0001E0
0001E0
0001E0
0001E0
0001E0
0001E0
ENDCHAR
STARTCHAR 04A0
ENCODING 1184
SWIDTH 720 0
DWIDTH 32 0
BBX 30 29 1 0
BITMAP
FFF8003C
FFF8007C
FFF800FC
007801F8
007803C0
00780380
00780780
00780700
00780F00
00781E00
00781C00
00783C00
007FF800
007FF800
007FFC00
00783C00
00781E00
00781E00
00780F00
00780780
00780780
007803C0
007801E0
007801E0
007800F0
007800F8
00780078
0078003C
0078003C
ENDCHAR
STARTCHAR 04A1
ENCODING 1185
SWIDTH 607 0
DWIDTH 27 0
BBX 25 22 1 0
BITMAP
FFE00780
FFE00F00
FFE01F00
00E03F00
00E03800
00E07800
00E07000
00E0F000
00E0E000
00FFE000
00FFC000
00FFE000
00E0F000
00E07000
00E07800
00E03C00
00E03C00
00E01E00
00E00F00
00E00F00
00E00780
00E00780
ENDCHAR
STARTCHAR 04A2
ENCODING 1186
SWIDTH 652 0
DWIDTH 29 0
BBX 24 37 4 -8
BITMAP
F00078
F00078
F00078
F00078
F00078
F00078
F00078
F00078
F00078
F00078
F00078
F00078
FFFFF8
FFFFF8
FFFFF8
F00078
F00078
F00078
F00078
F00078
F00078
F00078
F00078
F00078
F00078
F00078
F0007F
F0007F
F0007F
000007
000007
000007
000007
000007
000007
000007
000007
ENDCHAR
STARTCHAR 04A3
ENCODING 1187
SWIDTH 562 0
DWIDTH 25 0
BBX 20 30 4 -8
BITMAP
E00380
E00380
E00380
E00380
E00380
E00380
E00380
E00380
E00380
FFFF80
FFFF80
FFFF80
E00380
E00380
E00380
E00380
E00380
E00380
E00380
E003F0
E003F0
E003F0
000070
000070
000070
000070
000070
000070
000070
000070
ENDCHAR
STARTCHAR 04AA
ENCODING 1194
SWIDTH 562 0
DWIDTH 25 0
BBX 22 37 2 -8
BITMAP
003F80
01FFE0
03FFF0
0FE1F8
0F8030
1E0010
3C0000
3C0000
780000
780000
780000
700000
F00000
F00000
F00000
F00000
F00000
F00000
780000
780000
780000
3C0000
3C0000
1E0018
1F803C
0FE0F8
07FFF0
01FFE0
007F80
001E00
001E00
001E00
001E00
001E00
001E00
001E00
001E00
ENDCHAR
STARTCHAR 04AB
ENCODING 1195
SWIDTH 450 0
DWIDTH 20 0
BBX 17 29 2 -7
BITMAP
01FC00
07FF00
0FFF80
1F0700
3C0200
7C0000
780000
700000
F00000
F00000
F00000
F00000
F00000
F00000
F00000
780000
780000
3C0100
3F0780
1FFF80
0FFF00
03FC00
00F000
00F000
00F000
00F000
00F000
00E000
00E000
ENDCHAR
STARTCHAR 04AE
ENCODING 1198
SWIDTH 472 0
DWIDTH 21 0
BBX 21 29 0 0
BITMAP
F00078
780070
7800F0
3C00E0
3C01E0
1E01C0
1E03C0
0E0380
0F0780
070700
078700
038E00
03CE00
01DE00
01FC00
00FC00
00F800
007800
007000
007000
007000
007000
007000
007000
007000
007000
007000
007000
007000
ENDCHAR
STARTCHAR 04AF
ENCODING 1199
SWIDTH 472 0
DWIDTH 21 0
BBX 19 31 1 -9
BITMAP
E001E0
F001E0
F001C0
7803C0
7803C0
380380
3C0780
3C0700
1C0700
1E0F00
1E0E00
0E0E00
0F1E00
071C00
071C00
07BC00
03B800
03B800
03F000
01F000
01F000
00E000
00E000
00E000
00E000
00E000
00E000
00E000
00E000
00E000
00E000
ENDCHAR
STARTCHAR 04B0
ENCODING 1200
SWIDTH 472 0
DWIDTH 21 0
BBX 21 29 0 0
BITMAP
F00078
780070
7800F0
3C00E0
3C01E0
1E01C0
1E03C0
0E0380
0F0780
070700
078F00
038E00
03CE00
01DC00
01FC00
00F800
1FFFE0
1FFFE0
007000
007000
007000
007000
007000
007000
007000
007000
007000
007000
007000
ENDCHAR
STARTCHAR 04B1
ENCODING 1201
SWIDTH 472 0
DWIDTH 21 0
BBX 19 31 1 -9
BITMAP
E000E0
F001E0
F001C0
7001C0
7803C0
780380
380380
3C0780
1C0700
1C0F00
1E0F00
0E0E00
0E1E00
0F1C00
071C00
071C00
03B800
03B800
03F800
01F000
7FFFC0
7FFFC0
00E000
00E000
00E000
00E000
00E000
00E000
00E000
00E000
00E000
ENDCHAR
STARTCHAR 04B2
ENCODING 1202
SWIDTH 540 0
DWIDTH 24 0
BBX 22 37 1 -8
BITMAP
7800F0
7800F0
3C01E0
3C01E0
1E03C0
1E03C0
0F0780
0F0700
078F00
038E00
03DE00
01FC00
01FC00
00F800
00F800
01F800
01FC00
03DE00
039E00
078F00
0F0F00
0F0780
1E0780
1E03C0
3C01E0
3801E0
7800FC
F000FC
F0007C
00001C
00001C
00001C
00001C
00001C
00001C
00001C
00001C
ENDCHAR
STARTCHAR 04B3
ENCODING 1203
SWIDTH 472 0
DWIDTH 21 0
BBX 20 30 1 -8
BITMAP
F00380
780780
3C0700
3C0F00
1E1E00
0E1C00
0F3C00
07B800
07F800
03F000
01E000
03F000
07F000
077800
0F3800
0E3C00
1E1E00
3C1E00
380F00
7807F0
7007F0
F003F0
0000E0
0000E0
0000E0
0000E0
0000E0
0000E0
0000E0
0000E0
ENDCHAR
STARTCHAR 04B6
ENCODING 1206
SWIDTH 607 0
DWIDTH 27 0
BBX 23 37 3 -8
BITMAP
F000F0
F000F0
F000F0
F000F0
F000F0
F000F0
F000F0
F000F0
F000F0
F000F0
F800F0
7800F0
7E00F0
3FFFF0
0FFFF0
03FFF0
0000F0
0000F0
0000F0
0000F0
0000F0
0000F0
0000F0
0000F0
0000F0
0000F0
0000FE
0000FE
0000FE
00001E
00001E
00001E
00001E
00001E
00001E
00001C
00001C
ENDCHAR
STARTCHAR 04B7
ENCODING 1207
SWIDTH 517 0
DWIDTH 23 0
BBX 19 30 3 -8
BITMAP
E00F00
E00F00
E00F00
E00F00
E00F00
E00F00
E00F00
E00F00
F00F00
F00F00
FC0F00
7FFF00
3FFF00
0FFF00
000F00
000F00
000F00
000F00
000F00
000FE0
000FE0
000FE0
0000E0
0000E0
0000E0
0000E0
0000E0
0000E0
0000E0
0000E0
ENDCHAR
STARTCHAR 04BA
ENCODING 1210
SWIDTH 607 0
DWIDTH 27 0
BBX 20 29 4 0
BITMAP
F00000
F00000
F00000
F00000
F00000
F00000
F00000
F00000
F00000
F00000
F00000
FFFC00
FFFF00
FFFF80
F00FC0
F003E0
F001E0
F001E0
F000F0
F000F0
F000F0
F000F0
F000F0
F000F0
F000F0
F000F0
F000F0
F000F0
F000F0
ENDCHAR
STARTCHAR 04BB
ENCODING 1211
SWIDTH 540 0
DWIDTH 24 0
BBX 17 32 4 0
BITMAP
E00000
E00000
E00000
E00000
E00000
E00000
E00000
E00000
E00000
E00000
E0F800
E3FE00
EFFF00
FE1F00
FC0F80
F00780
E00780
E00780
E00780
E00780
E00780
E00780
E00780
E00780
E00780
E00780
E00780
E00780
E00780
E00780
E00780
E00780
ENDCHAR
STARTCHAR 04C0
ENCODING 1216
SWIDTH 270 0
DWIDTH 12 0
BBX 4 29 4 0
BITMAP
F0
F0
F0
F0
F0
F0
F0
F0
F0
F0
F0
F0
F0
F0
F0
F0
F0
F0
F0
F0
F0
F0
F0
F0
F0
F0
F0
F0
F0
ENDCHAR
STARTCHAR 04C1
ENCODING 1217
SWIDTH 810 0
DWIDTH 36 0
BBX 35 38 0 -1
BITMAP
001C078000
001E070000
000E070000
000F0F0000
0007FE0000
0001F80000
0000000000
0000000000
78000001E0
7C00F003E0
7E00F007E0
7F00F00FE0
0F00F00E00
0780F01E00
0380F01C00
03C0F03C00
01C0F03800
01E0F07800
01E0F07000
00F0F0F000
00F0F0E000
007FFFE000
007FFFE000
00FFFFE000
00F0F0F000
01E0F07000
01E0F07800
03C0F03C00
0380F03C00
0780F01E00
0F00F01E00
0F00F00F00
1E00F00F00
1E00F00780
3C00F003C0
3C00F003C0
7800F001E0
F800F001E0
ENDCHAR
STARTCHAR 04C2
ENCODING 1218
SWIDTH 675 0
DWIDTH 30 0
BBX 29 32 1 0
BITMAP
01C03800
01C03800
00E03800
00E07000
0070F000
007FE000
001F8000
00000000
00000000
00000000
F0000070
F80F01F0
7C0F03F0
7E0F03E0
0E0F0780
0F0F0700
070F0E00
070F0E00
038F1E00
03FFFC00
03FFFC00
03FFFE00
078F0E00
070F0F00
0F0F0700
1E0F0780
1C0F03C0
3C0F03C0
380F01E0
780F01E0
F00F00F0
F00F0078
ENDCHAR
STARTCHAR 04CF
ENCODING 1231
SWIDTH 247 0
DWIDTH 11 0
BBX 6 32 4 0
BITMAP
E0
E0
E0
E0
E0
E0
E0
E0
E0
E0
E0
E0
E0
E0
E0
E0
E0
E0
E0
E0
E0
E0
E0
E0
E0
E0
E0
E0
F0
F8
F8
7C
ENDCHAR
STARTCHAR 04D0
ENCODING 1232
SWIDTH 540 0
DWIDTH 24 0
BBX 24 37 0 0
BITMAP
0780E0
0381E0
0381C0
03C3C0
01FF80
007E00
000000
000000
003C00
007E00
007E00
007E00
00F700
00E700
00E700
01E780
01C380
01C380
03C3C0
0381C0
0381C0
0781E0
0700E0
0700E0
0F00F0
0FFFF0
0FFFF0
1FFFF8
1E0078
1C0038
3C003C
3C003C
38001E
78001E
78001E
70000F
F0000F
ENDCHAR
STARTCHAR 04D1
ENCODING 1233
SWIDTH 495 0
DWIDTH 22 0
BBX 17 32 2 0
BITMAP
1C0380
1C0380
1C0700
1E0700
0F0E00
07FC00
01F800
000000
000000
000000
03F800
0FFE00
3FFF00
3C1F00
300780
000780
000780
000380
000780
01FF80
07FF80
1F0380
3C0380
780380
700380
F00380
F00780
F00F80
783F80
7FFB80
3FE380
0F8380
ENDCHAR
STARTCHAR 04D4
ENCODING 1236
SWIDTH 832 0
DWIDTH 37 0
BBX 33 29 1 0
BITMAP
0003FFFF80
0003FFFF80
0007FFFF80
0007780000
000F780000
000E780000
001E780000
001C780000
003C780000
0038780000
0078780000
0070780000
00F07FFE00
00E07FFE00
01E07FFE00
03C0780000
03C0780000
0780780000
07FFF80000
0FFFF80000
0FFFF80000
1E00780000
1E00780000
3C00780000
3C00780000
7800780000
78007FFF80
F0007FFF80
F0007FFF80
ENDCHAR
STARTCHAR 04D5
ENCODING 1237
SWIDTH 787 0
DWIDTH 35 0
BBX 30 22 3 0
BITMAP
03E01F80
1FF83FE0
7FFCFFF0
783CE0F8
600FC038
000F803C
000F801C
0007001C
001F001C
03FF001C
0FFFFFFC
3F07FFFC
78070000
F0070000
E0078000
E0078000
E007C000
F00FE000
F83DF038
7FF8FFF8
7FE07FF0
1F801FC0
ENDCHAR
STARTCHAR 04D6
ENCODING 1238
SWIDTH 517 0
DWIDTH 23 0
BBX 17 37 4 0
BITMAP
380E00
380E00
3C0E00
1E1C00
0FF800
07F000
000000
000000
FFFF80
FFFF80
FFFF80
F00000
F00000
F00000
F00000
F00000
F00000
F00000
F00000
F00000
FFFE00
FFFE00
FFFE00
F00000
F00000
F00000
F00000
F00000
F00000
F00000
F00000
F00000
F00000
F00000
FFFF80
FFFF80
FFFF80
ENDCHAR
STARTCHAR 04D7
ENCODING 1239
SWIDTH 495 0
DWIDTH 22 0
BBX 18 32 2 0
BITMAP
1C0380
1C0380
1C0700
0E0700
0F0E00
07FC00
01F800
000000
000000
000000
01F800
07FE00
0FFF00
1E0F80
3C0380
7803C0
7001C0
7001C0
F001C0
FFFFC0
FFFFC0
FFFFC0
F00000
F00000
F00000
780000
780000
3C0000
3F0380
1FFF80
07FF00
01FC00
ENDCHAR
STARTCHAR 04D8
ENCODING 1240
SWIDTH 652 0
DWIDTH 29 0
BBX 24 29 3 0
BITMAP
00FF00
07FFC0
0FFFF0
1F03F8
1C00F8
08003C
00003E
00001E
00001E
00000F
00000F
00000F
00000F
FFFFFF
FFFFFF
FFFFFF
E0000F
F0000F
F0000F
F0000E
F0001E
78001E
78003C
3C007C
3E00F8
1F83F0
0FFFE0
03FFC0
00FE00
ENDCHAR
STARTCHAR 04D9
ENCODING 1241
SWIDTH 495 0
DWIDTH 22 0
BBX 18 22 2 0
BITMAP
07F000
3FFC00
7FFE00
381F00
200F00
000780
000380
0003C0
0003C0
0003C0
FFFFC0
FFFFC0
FFFFC0
E003C0
E003C0
E00380
F00780
700F00
7C1F00
3FFE00
1FFC00
07F000
ENDCHAR
STARTCHAR 04E2
ENCODING 1250
SWIDTH 652 0
DWIDTH 29 0
BBX 21 35 4 0
BITMAP
07FF80
07FF80
07FF80
000000
000000
000000
F00078
F000F8
F000F8
F001F8
F001F8
F003B8
F007B8
F00738
F00F38
F00E38
F01E38
F01C38
F03C38
F07838
F07078
F0F078
F0E078
F1E078
F3C078
F38078
E78078
E70078
EF0078
EE0078
FE0078
FC0078
F80078
F80078
F00078
ENDCHAR
STARTCHAR 04E3
ENCODING 1251
SWIDTH 562 0
DWIDTH 25 0
BBX 17 29 4 0
BITMAP
1FFE00
1FFE00
1FFE00
000000
000000
000000
000000
E00380
E00780
E00F80
E00F80
E01F80
E03F80
E03B80
E07380
E0F380
E0E380
E1E380
E1C380
E38380
E78380
E70380
EE0380
EE0380
FC0380
F80380
F80380
F00380
E00380
ENDCHAR
STARTCHAR 04E6
ENCODING 1254
SWIDTH 675 0
DWIDTH 30 0
BBX 25 35 2 0
BITMAP
03C0E000
03C1F000
03C1E000
01C0E000
00000000
00000000
007F0000
01FFE000
07FFF000
0FE1F800
1F007C00
1E003E00
3C001F00
3C000F00
78000F00
78000780
78000780
70000780
F0000780
F0000780
F0000780
F0000780
F0000780
70000780
78000780
78000780
78000F00
3C000F00
3C001E00
1E003E00
1F807C00
0FE1F800
07FFF000
01FFE000
007F0000
ENDCHAR
STARTCHAR 04E7
ENCODING 1255
SWIDTH 540 0
DWIDTH 24 0
BBX 20 30 2 0
BITMAP
0F0700
0F0F80
0F0F00
0E0700
000000
000000
000000
000000
01F800
07FE00
0FFF80
1F0FC0
3C03C0
7801E0
7801E0
7000F0
F000F0
F000F0
F000F0
F000F0
F000F0
F000F0
F000F0
7801E0
7801E0
3C03C0
1F0FC0
1FFF80
07FE00
01F800
ENDCHAR
STARTCHAR 04E8
ENCODING 1256
SWIDTH 675 0
DWIDTH 30 0
BBX 25 29 2 0
BITMAP
007F8000
01FFE000
07FFF800
0FC1FC00
1F003C00
3E001E00
3C000F00
78000F00
78000700
78000780
70000780
F0000780
FFFFFF80
FFFFFF80
FFFFFF80
F0000380
F0000780
70000780
70000780
78000780
78000F00
3C000F00
3C001F00
1E001E00
1F007C00
0FC0F800
07FFF000
01FFE000
007F0000
ENDCHAR
ENDFONT
